if (_typeface_js && _typeface_js.loadFace) _typeface_js.loadFace({"glyphs":{"0":{"ha":1240,"x_min":49,"x_max":1189,"o":"m 547 0 q 328 41 421 0 q 169 153 235 82 q 81 296 113 215 q 49 469 49 376 q 89 661 49 572 q 200 815 129 750 q 348 906 263 874 q 547 939 433 939 l 690 939 q 890 906 804 939 q 1038 815 975 874 q 1149 661 1108 750 q 1189 469 1189 572 q 1157 296 1189 376 q 1068 153 1125 215 q 910 41 1003 82 q 690 0 817 0 l 547 0 m 547 690 q 442 674 483 690 q 369 629 400 657 q 319 557 338 599 q 300 468 300 515 q 315 387 300 425 q 358 319 331 349 q 435 267 389 286 q 547 247 481 247 l 690 247 q 803 267 757 247 q 879 319 849 286 q 922 387 907 349 q 938 468 938 425 q 919 557 938 515 q 868 629 900 599 q 796 674 838 657 q 690 690 754 690 l 547 690 z "},"1":{"ha":560,"x_min":39,"x_max":479,"o":"m 247 939 q 357 924 313 939 q 428 879 401 910 q 467 801 456 849 q 479 689 479 754 l 479 0 l 229 0 l 229 651 q 193 690 229 690 l 39 690 l 39 939 l 247 939 z "},"2":{"ha":1081,"x_min":25,"x_max":1049,"o":"m 44 939 l 753 939 q 877 919 822 939 q 970 863 932 899 q 1028 778 1008 828 q 1049 672 1049 729 q 1001 524 1049 592 q 863 422 954 456 l 439 268 q 428 254 428 264 q 443 240 428 240 l 1038 240 l 1038 0 l 235 0 q 140 16 179 0 q 74 58 100 32 q 37 117 49 83 q 25 183 25 150 q 31 232 25 207 q 53 281 38 257 q 94 326 68 304 q 163 364 121 347 l 711 583 q 758 639 758 601 q 694 690 758 690 l 44 690 l 44 939 z "},"3":{"ha":1069,"x_min":54,"x_max":1051,"o":"m 869 939 q 988 899 949 939 q 1026 801 1026 860 q 1008 735 1026 763 q 956 681 990 707 l 803 569 q 797 558 797 565 q 807 547 797 549 q 983 471 915 536 q 1051 278 1051 406 q 1031 173 1051 224 q 973 84 1011 122 q 879 23 935 46 q 751 0 824 0 l 54 0 l 54 240 l 676 240 q 742 263 724 240 q 761 317 761 285 q 742 370 761 349 q 676 392 724 392 l 488 392 q 414 417 432 392 q 396 474 396 442 q 410 521 396 503 q 453 557 425 539 l 615 660 q 629 678 629 668 q 614 690 629 690 l 57 690 l 57 939 l 869 939 z "},"4":{"ha":1182,"x_min":33,"x_max":1115,"o":"m 863 0 l 863 131 l 208 131 q 121 143 154 131 q 68 178 88 156 q 33 281 33 217 q 40 323 33 301 q 63 367 46 344 q 85 392 72 379 q 125 424 99 404 l 793 913 q 859 949 829 939 q 924 960 889 960 q 997 949 960 960 q 1061 910 1033 938 q 1100 848 1085 886 q 1115 744 1115 810 l 1115 0 l 863 0 m 863 640 q 856 661 863 654 q 842 668 849 668 q 831 667 835 668 q 819 660 826 665 l 428 381 q 418 365 418 375 q 433 350 418 350 l 863 350 l 863 640 z "},"5":{"ha":1143,"x_min":54,"x_max":1121,"o":"m 781 240 q 847 263 825 240 q 867 315 867 282 q 847 368 867 349 q 781 389 826 389 l 158 389 q 94 410 118 389 q 74 476 71 432 l 94 849 q 190 939 99 939 l 1086 939 l 1086 690 l 365 690 q 347 674 349 690 l 339 582 q 342 566 338 571 q 358 561 346 561 l 807 561 q 935 544 883 561 q 1022 499 986 528 q 1096 403 1071 460 q 1121 279 1121 346 q 1057 93 1121 168 q 960 25 1019 50 q 810 0 900 0 l 54 0 l 54 240 l 781 240 z "},"6":{"ha":1108,"x_min":35,"x_max":1085,"o":"m 667 939 q 649 901 660 919 q 626 867 638 882 l 474 650 q 469 640 469 643 q 474 635 469 635 q 487 637 479 635 q 510 641 494 639 q 550 645 525 643 q 615 647 575 647 l 740 647 q 892 619 829 647 q 1000 543 956 592 q 1063 442 1040 499 q 1085 324 1085 386 q 1068 219 1085 269 q 1021 129 1051 169 q 909 35 978 71 q 740 0 840 0 l 389 0 q 226 28 289 0 q 119 106 163 57 q 58 204 81 149 q 35 324 35 260 q 51 426 35 376 q 107 538 67 475 l 347 907 q 363 939 357 921 l 667 939 m 715 240 q 769 249 749 240 q 804 272 790 257 q 832 343 832 303 q 811 406 832 381 q 774 435 796 425 q 715 446 751 446 l 419 446 q 361 435 383 446 q 324 406 339 425 q 303 343 303 381 q 331 272 303 303 q 365 249 344 257 q 419 240 386 240 l 715 240 z "},"7":{"ha":1110,"x_min":26,"x_max":1090,"o":"m 26 690 l 26 939 l 881 939 q 976 922 938 939 q 1042 874 1015 904 q 1078 815 1065 847 q 1090 744 1090 782 q 1080 685 1090 717 q 1036 606 1069 654 l 649 36 q 636 17 640 25 q 629 0 632 8 l 313 0 q 322 19 317 10 q 333 39 326 28 l 761 644 q 768 657 767 651 q 769 668 769 663 q 765 683 769 676 q 744 690 760 690 l 26 690 z "},"8":{"ha":1157,"x_min":44,"x_max":1113,"o":"m 342 0 q 202 25 258 0 q 110 93 146 50 q 62 174 79 129 q 44 268 44 218 q 70 389 44 333 q 149 472 96 444 q 78 552 103 503 q 54 663 54 601 q 74 769 54 722 q 125 850 93 815 q 356 939 207 939 l 801 939 q 1032 850 950 939 q 1083 769 1064 815 q 1103 663 1103 722 q 1078 552 1103 601 q 1008 472 1054 503 q 1087 389 1061 444 q 1113 268 1113 333 q 1095 174 1113 218 q 1047 93 1078 129 q 955 25 1011 50 q 815 0 899 0 l 342 0 m 401 386 q 357 379 374 386 q 329 360 340 372 q 308 308 308 336 q 328 256 308 279 q 356 235 339 243 q 401 228 374 228 l 756 228 q 801 235 783 228 q 829 256 818 243 q 849 308 849 279 q 828 360 849 336 q 800 379 817 372 q 756 386 783 386 l 401 386 m 400 703 q 358 695 374 703 q 331 675 342 688 q 314 629 314 654 q 331 583 314 604 q 358 562 342 569 q 400 554 374 554 l 757 554 q 799 562 783 554 q 826 583 815 569 q 843 629 843 604 q 826 675 843 654 q 799 695 815 688 q 757 703 783 703 l 400 703 z "},"9":{"ha":1108,"x_min":32,"x_max":1082,"o":"m 450 0 q 468 38 457 19 q 490 72 479 57 l 643 289 q 647 299 647 294 q 643 304 647 304 q 630 302 638 304 q 607 298 622 300 q 567 294 592 296 q 501 292 542 292 l 376 292 q 224 319 288 292 q 117 396 161 347 q 54 497 76 440 q 32 615 32 553 q 49 719 32 669 q 96 810 65 769 q 208 903 139 868 q 376 939 276 939 l 728 939 q 891 910 828 939 q 997 833 954 882 q 1059 735 1036 790 q 1082 615 1082 679 q 1066 513 1082 563 q 1010 401 1050 464 l 769 32 q 754 0 760 18 l 450 0 m 401 699 q 347 690 368 699 q 313 667 326 682 q 285 596 285 636 q 306 533 285 558 q 343 503 321 514 q 401 493 365 493 l 697 493 q 756 503 733 493 q 793 533 778 514 q 814 596 814 558 q 786 667 814 636 q 751 690 772 682 q 697 699 731 699 l 401 699 z "},"\u0017":{"ha":308,"x_min":0,"x_max":0,"o":""}," ":{"ha":560,"x_min":0,"x_max":0,"o":""},"!":{"ha":411,"x_min":79,"x_max":332,"o":"m 332 244 l 332 0 l 79 0 l 79 244 l 332 244 m 332 939 l 332 324 l 79 324 l 79 939 l 332 939 z "},"\"":{"ha":671,"x_min":56,"x_max":615,"o":"m 56 533 m 78 533 l 56 939 l 288 939 l 264 533 l 78 533 m 406 533 l 383 939 l 615 939 l 592 533 l 406 533 z "},"#":{"ha":888,"x_min":24,"x_max":860,"o":"m 465 0 l 514 250 l 313 250 l 268 0 l 117 0 l 164 250 l 24 250 l 24 363 l 183 363 l 225 578 l 63 578 l 63 692 l 244 692 l 294 939 l 444 939 l 396 692 l 594 692 l 640 939 l 792 939 l 744 692 l 860 692 l 860 578 l 725 578 l 685 363 l 821 363 l 821 250 l 664 250 l 617 0 l 465 0 m 574 578 l 375 578 l 335 363 l 533 363 l 574 578 z "},"$":{"ha":1042,"x_min":43,"x_max":1008,"o":"m 633 960 l 633 844 l 972 844 l 972 661 l 339 661 q 289 647 308 661 q 269 604 269 632 q 289 562 269 576 q 339 547 308 547 l 756 547 q 945 486 882 547 q 1008 321 1008 425 q 993 236 1008 276 q 945 165 978 196 q 864 115 913 133 q 749 96 815 96 l 633 96 l 633 -19 l 436 -19 l 436 96 l 67 96 l 67 275 l 714 275 q 765 290 744 275 q 786 336 786 304 q 765 382 786 368 q 714 396 744 396 l 282 396 q 181 413 225 396 q 106 459 136 429 q 59 530 75 489 q 43 619 43 571 q 58 708 43 667 q 105 779 74 749 q 184 827 136 810 q 296 844 232 844 l 436 844 l 436 960 l 633 960 z "},"%":{"ha":1506,"x_min":67,"x_max":1438,"o":"m 67 0 m 694 681 q 617 492 694 563 q 400 422 539 422 l 361 422 q 144 492 221 422 q 67 681 67 563 q 87 787 67 739 q 145 869 107 835 q 238 921 183 903 q 361 939 293 939 l 400 939 q 616 870 538 939 q 694 681 694 801 m 229 681 q 235 642 229 660 q 255 613 240 625 q 295 592 269 600 q 361 585 321 585 l 400 585 q 467 592 442 585 q 508 613 493 600 q 527 642 522 625 q 532 681 532 660 q 527 719 532 701 q 508 750 522 738 q 467 770 493 763 q 400 778 442 778 l 361 778 q 295 771 321 778 q 255 751 269 764 q 235 721 240 739 q 229 681 229 703 m 207 0 l 1078 939 l 1292 939 l 421 0 l 207 0 m 1438 258 q 1360 70 1438 140 q 1143 0 1282 0 l 1104 0 q 887 70 964 0 q 810 258 810 140 q 830 365 810 317 q 888 447 850 413 q 981 499 926 481 q 1104 517 1036 517 l 1143 517 q 1359 448 1281 517 q 1438 258 1438 379 m 972 258 q 978 220 972 238 q 998 190 983 203 q 1038 170 1013 178 q 1104 163 1064 163 l 1143 163 q 1210 170 1185 163 q 1251 190 1236 178 q 1270 220 1265 203 q 1275 258 1275 238 q 1270 297 1275 279 q 1251 328 1265 315 q 1210 348 1236 340 q 1143 356 1185 356 l 1104 356 q 1038 349 1064 356 q 998 329 1013 342 q 978 299 983 317 q 972 258 972 281 z "},"&":{"ha":1271,"x_min":33,"x_max":1265,"o":"m 831 99 q 769 52 799 71 q 708 22 739 33 q 642 5 676 10 q 568 0 608 0 l 296 0 q 99 70 164 0 q 33 257 33 140 q 42 338 33 300 q 73 407 51 375 q 131 465 94 439 q 225 510 168 490 l 339 549 l 293 589 q 244 638 264 615 q 213 681 225 660 q 197 724 201 703 q 193 769 193 746 q 204 830 193 800 q 240 884 215 860 q 301 924 264 908 q 393 939 339 939 l 757 939 q 927 887 874 939 q 981 749 981 835 q 945 630 981 678 q 850 557 910 582 l 707 497 l 842 381 l 942 471 q 964 497 957 486 l 1256 497 q 1236 474 1249 485 q 1213 451 1224 463 l 993 247 l 1226 40 q 1248 20 1239 29 q 1265 0 1257 11 l 939 0 q 929 11 935 6 q 917 24 924 17 l 831 99 m 567 225 q 625 230 603 225 q 671 246 647 235 l 494 403 l 376 354 q 322 290 322 332 q 340 243 322 261 q 400 225 358 225 l 567 225 m 474 729 q 478 703 474 714 q 499 682 483 693 l 560 629 l 665 664 q 713 686 701 675 q 725 718 725 697 q 714 753 725 740 q 669 767 703 767 l 542 767 q 491 760 508 767 q 474 729 474 753 z "},"'":{"ha":343,"x_min":56,"x_max":288,"o":"m 78 533 l 56 939 l 288 939 l 264 533 l 78 533 z "},"(":{"ha":535,"x_min":85,"x_max":522,"o":"m 85 424 q 99 603 85 513 q 144 782 114 694 q 223 951 175 869 q 338 1101 271 1032 l 522 1101 q 415 960 464 1032 q 329 806 365 888 q 273 631 293 725 q 253 424 253 536 q 273 217 253 311 q 329 41 293 122 q 415 -112 365 -40 q 522 -254 464 -185 l 338 -254 q 223 -103 271 -183 q 144 65 175 -22 q 99 243 114 153 q 85 424 85 333 z "},")":{"ha":535,"x_min":13,"x_max":450,"o":"m 450 424 q 435 243 450 333 q 390 65 421 153 q 312 -103 360 -22 q 197 -254 264 -183 l 13 -254 q 119 -112 71 -185 q 204 41 168 -40 q 260 217 240 122 q 281 424 281 311 q 260 631 281 536 q 204 806 240 725 q 119 960 168 888 q 13 1101 69 1032 l 197 1101 q 312 951 264 1032 q 390 782 360 869 q 435 603 421 694 q 450 424 450 513 z "},"*":{"ha":781,"x_min":21,"x_max":760,"o":"m 61 740 l 338 639 l 326 939 l 451 939 l 440 643 l 722 747 l 760 628 l 475 547 l 661 311 l 560 239 l 394 486 l 228 235 l 128 308 l 313 542 l 21 622 l 61 740 z "},"+":{"ha":878,"x_min":68,"x_max":807,"o":"m 807 382 l 531 382 l 531 107 l 346 107 l 346 382 l 68 382 l 68 567 l 346 567 l 346 846 l 531 846 l 531 567 l 807 567 l 807 382 z "},",":{"ha":417,"x_min":39,"x_max":351,"o":"m 351 244 l 236 -225 l 39 -225 l 99 244 l 351 244 z "},"-":{"ha":467,"x_min":44,"x_max":422,"o":"m 44 549 l 422 549 l 422 389 l 44 389 l 44 549 z "},".":{"ha":417,"x_min":82,"x_max":335,"o":"m 335 244 l 335 0 l 82 0 l 82 244 l 335 244 z "},"/":{"ha":857,"x_min":3,"x_max":847,"o":"m 3 -161 q 17 -128 4 -147 l 649 960 q 663 993 657 976 l 847 993 q 842 976 846 985 q 835 960 839 968 l 201 -128 q 188 -161 193 -144 l 3 -161 z "},":":{"ha":483,"x_min":115,"x_max":368,"o":"m 368 811 l 368 565 l 115 565 l 115 811 l 368 811 m 368 328 l 368 85 l 115 85 l 115 328 l 368 328 z "},";":{"ha":483,"x_min":61,"x_max":374,"o":"m 374 811 l 374 565 l 119 565 l 119 811 l 374 811 m 374 328 l 258 -140 l 61 -140 l 119 328 l 374 328 z "},"<":{"ha":878,"x_min":68,"x_max":807,"o":"m 807 126 l 167 338 q 93 389 118 353 q 68 475 68 425 q 94 559 68 524 q 167 610 121 594 l 807 824 l 807 628 l 315 490 q 304 475 304 486 q 315 458 304 463 l 807 319 l 807 126 z "},"=":{"ha":878,"x_min":69,"x_max":808,"o":"m 808 200 l 69 200 l 69 385 l 808 385 l 808 200 m 808 565 l 69 565 l 69 751 l 808 751 l 808 565 z "},">":{"ha":878,"x_min":68,"x_max":807,"o":"m 68 319 l 560 458 q 572 475 572 463 q 560 490 572 486 l 68 628 l 68 824 l 708 610 q 781 559 754 594 q 807 475 807 524 q 782 389 807 425 q 708 338 757 353 l 68 126 l 68 319 z "},"?":{"ha":831,"x_min":38,"x_max":804,"o":"m 38 939 l 533 939 q 656 919 607 939 q 738 863 704 899 q 786 788 768 831 q 804 700 804 746 q 774 577 804 636 q 663 456 743 518 q 604 408 628 428 q 565 372 581 388 q 542 345 550 357 q 531 324 535 333 l 279 324 q 300 376 283 344 q 351 447 317 407 q 408 510 382 483 q 464 560 433 536 q 513 603 501 589 q 525 636 525 617 q 513 672 525 657 q 465 690 497 690 l 38 690 l 38 939 m 521 244 l 521 0 l 268 0 l 268 244 l 521 244 z "},"@":{"ha":1136,"x_min":47,"x_max":1079,"o":"m 615 781 q 445 749 518 781 q 323 665 372 718 q 249 540 274 611 q 225 388 225 468 q 249 228 225 300 q 319 103 272 156 q 437 23 367 51 q 600 -6 507 -6 l 1067 -6 l 1067 -189 l 608 -189 q 363 -145 468 -189 q 188 -24 258 -101 q 83 158 118 53 q 47 388 47 264 q 90 628 47 525 q 207 801 132 732 q 385 904 282 869 q 608 939 488 939 l 879 939 q 1027 887 975 939 q 1079 731 1079 835 l 1079 304 q 1033 170 1079 221 q 899 119 988 119 l 681 119 q 549 139 607 119 q 452 194 492 158 q 392 278 413 229 q 372 389 372 328 q 451 584 372 510 q 681 658 531 658 l 921 658 l 921 738 q 878 781 921 781 l 615 781 m 531 386 q 563 301 531 333 q 661 268 594 268 l 889 268 q 921 301 921 268 l 921 504 l 661 504 q 563 472 594 504 q 531 386 531 439 z "},"A":{"ha":1304,"x_min":26,"x_max":1275,"o":"m 1260 42 q 1269 21 1265 31 q 1275 0 1272 11 l 992 0 q 986 17 989 10 q 981 32 983 25 l 931 146 l 375 146 l 326 33 q 321 17 324 25 q 317 0 318 8 l 26 0 q 33 21 29 11 q 42 42 36 31 l 378 786 q 483 917 418 874 q 650 960 549 960 q 815 917 749 960 q 921 786 881 874 l 1260 42 m 839 353 l 694 689 q 676 711 688 704 q 651 718 665 718 q 628 712 639 718 q 610 689 617 706 l 467 353 l 839 353 z "},"B":{"ha":1143,"x_min":71,"x_max":1115,"o":"m 804 939 q 1035 850 953 939 q 1086 769 1067 815 q 1106 663 1106 722 q 1081 552 1106 601 q 1011 472 1057 503 q 1090 389 1064 444 q 1115 268 1115 333 q 1098 174 1115 218 q 1050 93 1081 129 q 958 25 1014 50 q 818 0 901 0 l 133 0 q 71 60 71 0 l 71 881 q 133 939 71 939 l 804 939 m 322 249 q 342 228 322 228 l 758 228 q 803 235 786 228 q 832 256 821 243 q 851 308 851 279 q 831 360 851 336 q 803 379 819 372 q 758 386 786 386 l 322 386 l 322 249 m 760 554 q 802 562 786 554 q 829 583 818 569 q 846 629 846 604 q 829 675 846 654 q 802 695 818 688 q 760 703 786 703 l 342 703 q 322 682 322 703 l 322 554 l 760 554 z "},"C":{"ha":1088,"x_min":49,"x_max":1039,"o":"m 1039 0 l 547 0 q 328 41 421 0 q 169 153 235 82 q 81 296 113 215 q 49 469 49 376 q 89 661 49 572 q 200 815 129 750 q 348 906 263 874 q 547 939 433 939 l 1039 939 l 1039 690 l 547 690 q 442 674 483 690 q 369 629 400 657 q 319 557 338 599 q 300 468 300 515 q 315 387 300 425 q 358 319 331 349 q 435 267 389 286 q 547 247 481 247 l 1039 247 l 1039 0 z "},"D":{"ha":1188,"x_min":69,"x_max":1136,"o":"m 638 939 q 837 906 751 939 q 985 815 922 874 q 1096 661 1056 750 q 1136 469 1136 572 q 1104 296 1136 376 q 1015 153 1072 215 q 857 41 950 82 q 638 0 764 0 l 131 0 q 69 60 69 0 l 69 881 q 131 939 69 939 l 638 939 m 339 690 q 321 671 321 690 l 321 267 q 339 247 321 247 l 638 247 q 750 267 704 247 q 826 319 796 286 q 869 387 854 349 q 885 468 885 425 q 866 557 885 515 q 815 629 847 599 q 743 674 785 657 q 638 690 701 690 l 339 690 z "},"E":{"ha":1104,"x_min":68,"x_max":1056,"o":"m 1056 939 l 1056 690 l 342 690 q 319 667 319 690 l 319 560 l 1051 560 l 1051 379 l 319 379 l 319 265 q 342 240 319 240 l 1056 240 l 1056 0 l 200 0 q 68 131 68 0 l 68 813 q 201 939 68 939 l 1056 939 z "},"F":{"ha":1097,"x_min":68,"x_max":1056,"o":"m 1056 939 l 1056 690 l 358 690 q 319 649 319 690 l 319 547 l 1051 547 l 1051 314 l 319 314 l 319 0 l 68 0 l 68 767 q 238 939 68 939 l 1056 939 z "},"G":{"ha":1121,"x_min":49,"x_max":1056,"o":"m 547 0 q 328 41 421 0 q 169 153 235 82 q 81 296 113 215 q 49 469 49 376 q 89 661 49 572 q 200 815 129 750 q 348 906 263 874 q 547 939 433 939 l 1054 939 l 1054 690 l 547 690 q 442 674 483 690 q 369 629 400 657 q 319 557 338 599 q 300 468 300 515 q 315 387 300 425 q 358 319 331 349 q 435 265 389 286 q 547 243 481 243 l 788 243 q 806 263 806 243 l 806 514 l 1056 514 l 1056 60 q 996 0 1056 0 l 547 0 z "},"H":{"ha":1208,"x_min":71,"x_max":1136,"o":"m 1136 939 l 1136 0 l 883 0 l 883 363 l 324 363 l 324 0 l 71 0 l 71 939 l 324 939 l 324 599 l 883 599 l 883 939 l 1136 939 z "},"I":{"ha":394,"x_min":71,"x_max":324,"o":"m 324 939 l 324 0 l 71 0 l 71 939 l 324 939 z "},"J":{"ha":985,"x_min":28,"x_max":922,"o":"m 28 0 l 28 240 l 551 240 q 641 269 614 240 q 668 357 668 299 l 668 939 l 922 939 l 922 368 q 832 97 922 194 q 551 0 742 0 l 28 0 z "},"K":{"ha":1210,"x_min":69,"x_max":1190,"o":"m 324 939 l 324 554 l 751 900 q 790 939 774 918 l 1142 939 q 1131 926 1138 932 q 1117 914 1124 919 l 600 514 q 592 499 592 507 q 600 483 592 490 l 1154 35 q 1173 18 1164 26 q 1190 0 1182 10 l 815 0 q 774 39 801 17 l 324 415 l 324 0 l 69 0 l 69 939 l 324 939 z "},"L":{"ha":1079,"x_min":64,"x_max":1051,"o":"m 369 0 q 224 19 283 0 q 130 76 165 38 q 79 172 94 114 q 64 306 64 229 l 64 939 l 317 939 l 317 329 q 334 259 317 278 q 400 240 351 240 l 1051 240 l 1051 0 l 369 0 z "},"M":{"ha":1581,"x_min":64,"x_max":1514,"o":"m 789 -19 q 696 1 739 -19 q 631 67 653 22 l 346 657 q 328 668 342 668 q 313 662 319 668 q 306 643 306 656 l 306 0 l 64 0 l 64 688 q 87 818 64 767 q 151 903 110 869 q 224 944 183 928 q 315 960 265 960 q 460 911 404 960 q 553 785 517 863 l 765 324 q 789 306 772 306 q 813 324 806 306 l 1025 785 q 1117 911 1061 863 q 1263 960 1172 960 q 1353 944 1313 960 q 1426 903 1394 928 q 1491 818 1468 869 q 1514 688 1514 767 l 1514 0 l 1272 0 l 1272 643 q 1265 662 1272 656 q 1250 668 1258 668 q 1232 657 1236 668 l 947 67 q 882 1 925 22 q 789 -19 839 -19 z "},"N":{"ha":1304,"x_min":67,"x_max":1235,"o":"m 1235 182 q 1220 91 1235 129 q 1181 28 1206 53 q 1125 -8 1157 4 q 1058 -19 1093 -19 q 953 -2 999 -19 q 875 54 908 15 l 360 650 q 338 663 349 663 q 321 656 328 663 q 314 636 314 649 l 314 0 l 67 0 l 67 740 q 83 842 67 800 q 128 910 99 883 q 197 948 157 936 q 285 960 238 960 q 397 939 351 960 q 488 867 443 918 l 946 318 q 957 309 951 311 q 969 307 963 307 q 989 332 989 307 l 989 939 l 1235 939 l 1235 182 z "},"O":{"ha":1294,"x_min":49,"x_max":1243,"o":"m 547 0 q 328 41 421 0 q 169 153 235 82 q 81 296 113 215 q 49 469 49 376 q 89 661 49 572 q 200 815 129 750 q 348 906 263 874 q 547 939 433 939 l 744 939 q 944 906 858 939 q 1092 815 1029 874 q 1203 661 1163 750 q 1243 469 1243 572 q 1211 296 1243 376 q 1122 153 1179 215 q 964 41 1057 82 q 744 0 871 0 l 547 0 m 547 690 q 442 674 483 690 q 369 629 400 657 q 319 557 338 599 q 300 468 300 515 q 315 387 300 425 q 358 319 331 349 q 435 267 389 286 q 547 247 481 247 l 744 247 q 857 267 811 247 q 933 319 903 286 q 976 387 961 349 q 992 468 992 425 q 973 557 992 515 q 922 629 954 599 q 850 674 892 657 q 744 690 808 690 l 547 690 z "},"P":{"ha":1171,"x_min":69,"x_max":1139,"o":"m 753 939 q 920 912 853 939 q 1035 838 988 885 q 1111 724 1083 789 q 1139 588 1139 658 q 1117 467 1139 525 q 1057 363 1096 410 q 935 270 1008 304 q 753 236 861 236 l 321 236 l 321 0 l 69 0 l 69 881 q 131 939 69 939 l 753 939 m 758 467 q 826 478 800 467 q 867 511 851 490 q 889 578 889 540 q 865 649 889 618 q 824 679 850 668 q 758 690 799 690 l 339 690 q 321 671 321 690 l 321 467 l 758 467 z "},"Q":{"ha":1274,"x_min":49,"x_max":1260,"o":"m 533 25 q 320 65 411 25 q 167 174 229 104 q 80 313 111 235 q 49 482 49 390 q 88 669 49 582 q 196 818 128 756 q 340 907 257 875 q 533 939 422 939 l 757 939 q 951 907 868 939 q 1094 818 1033 875 q 1202 669 1163 756 q 1242 482 1242 582 q 1231 381 1242 432 q 1198 283 1219 331 q 1143 195 1176 236 q 1065 124 1110 154 l 1235 -64 q 1249 -82 1243 -72 q 1260 -100 1256 -92 l 921 -100 q 916 -92 919 -97 q 902 -75 913 -87 q 871 -38 892 -62 q 814 28 850 -14 q 786 26 800 26 q 757 25 772 25 l 533 25 m 526 690 q 426 675 465 690 q 358 632 386 660 q 309 564 326 604 q 292 479 292 524 q 306 402 292 439 q 347 338 321 365 q 420 287 376 306 q 526 268 464 268 l 763 268 q 869 287 825 268 q 942 338 913 306 q 983 402 968 365 q 997 479 997 439 q 980 564 997 524 q 931 632 963 604 q 863 675 903 660 q 763 690 824 690 l 526 690 z "},"R":{"ha":1169,"x_min":69,"x_max":1119,"o":"m 321 0 l 69 0 l 69 881 q 132 939 69 939 l 799 939 q 943 915 886 939 q 1039 850 1000 890 q 1094 766 1074 814 q 1114 665 1114 718 q 1094 558 1114 608 q 1025 471 1075 507 q 1094 400 1072 443 q 1115 276 1115 357 l 1115 89 q 1116 39 1115 58 q 1119 0 1117 19 l 865 0 q 861 63 861 31 l 861 250 q 838 314 861 294 q 758 333 814 333 l 321 333 l 321 0 m 765 547 q 808 556 792 547 q 836 578 825 564 q 854 626 854 600 q 833 679 854 658 q 765 704 811 704 l 342 704 q 321 683 321 704 l 321 547 l 765 547 z "},"S":{"ha":1128,"x_min":36,"x_max":1096,"o":"m 1051 690 l 376 690 q 340 685 353 690 q 318 672 326 681 q 299 624 299 653 q 322 574 299 593 q 342 563 331 567 q 376 560 354 560 l 789 560 q 923 537 868 560 q 1015 475 978 514 q 1074 386 1053 436 q 1096 281 1096 336 q 1077 182 1096 229 q 1026 97 1058 135 q 930 26 988 53 q 789 0 872 0 l 61 0 l 61 240 l 744 240 q 790 247 774 240 q 815 264 806 253 q 831 307 831 282 q 811 357 831 338 q 787 373 801 368 q 744 378 772 378 l 363 378 q 210 401 268 378 q 115 463 153 424 q 57 551 78 501 q 36 658 36 600 q 58 765 36 715 q 117 854 79 815 q 211 916 154 893 q 363 939 268 939 l 1051 939 l 1051 690 z "},"T":{"ha":1133,"x_min":28,"x_max":1104,"o":"m 1104 939 l 1104 690 l 693 690 l 693 0 l 440 0 l 440 690 l 28 690 l 28 939 l 1104 939 z "},"U":{"ha":1207,"x_min":64,"x_max":1143,"o":"m 393 0 q 242 17 304 0 q 140 72 179 35 q 82 165 100 108 q 64 300 64 221 l 64 939 l 317 939 l 317 328 q 407 240 317 240 l 797 240 q 890 328 890 240 l 890 939 l 1143 939 l 1143 300 q 1067 72 1143 143 q 814 0 990 0 l 393 0 z "},"V":{"ha":1304,"x_min":26,"x_max":1275,"o":"m 42 897 q 33 918 36 908 q 26 939 29 928 l 324 939 q 333 906 328 921 l 614 257 q 631 235 621 242 q 654 228 642 228 q 676 234 667 228 q 693 257 686 240 l 971 906 q 982 939 978 921 l 1275 939 q 1269 918 1272 928 q 1260 897 1265 908 l 924 153 q 818 23 883 65 q 653 -19 753 -19 q 381 153 458 -19 l 42 897 z "},"W":{"ha":1738,"x_min":31,"x_max":1707,"o":"m 872 736 q 842 708 849 736 l 696 190 q 599 31 665 82 q 424 -19 532 -19 q 312 -3 360 -19 q 231 40 264 13 q 178 107 197 68 q 151 190 158 146 l 35 894 q 31 939 31 921 l 296 939 q 297 922 296 932 q 299 903 297 913 l 397 261 q 431 229 401 229 q 451 235 443 229 q 464 258 460 242 l 607 763 q 697 912 636 864 q 872 960 758 960 q 1043 913 985 960 q 1128 769 1101 865 l 1268 258 q 1281 235 1272 242 q 1301 229 1289 229 q 1335 261 1329 229 l 1442 903 q 1444 923 1444 914 q 1444 939 1444 932 l 1707 939 q 1706 919 1707 928 q 1703 894 1706 910 l 1578 189 q 1495 38 1561 96 q 1303 -19 1429 -19 q 1038 190 1093 -19 l 903 708 q 872 736 896 736 z "},"X":{"ha":1400,"x_min":24,"x_max":1375,"o":"m 1325 939 q 1297 908 1313 922 l 876 501 l 1351 29 q 1364 15 1358 22 q 1375 0 1369 7 l 1015 0 q 993 28 1006 15 l 694 339 l 379 28 q 366 14 372 21 q 354 0 360 7 l 24 0 q 35 15 29 8 q 49 29 40 21 l 533 501 l 114 908 q 88 939 97 922 l 438 939 q 461 908 447 924 l 710 656 l 972 908 q 987 924 981 915 q 999 939 993 932 l 1325 939 z "},"Y":{"ha":1186,"x_min":8,"x_max":1178,"o":"m 32 907 q 16 925 21 918 q 8 939 11 932 l 318 939 q 326 925 321 933 q 340 907 331 917 l 576 650 q 596 640 586 640 q 615 650 606 640 l 850 907 q 874 939 868 925 l 1178 939 q 1169 925 1174 932 q 1153 907 1164 918 l 713 421 l 713 0 l 458 0 l 458 438 l 32 907 z "},"Z":{"ha":1108,"x_min":54,"x_max":1063,"o":"m 1063 240 l 1063 0 l 235 0 q 144 17 179 0 q 89 61 110 33 q 54 163 54 107 q 64 214 54 188 q 94 265 74 240 q 118 287 104 276 q 160 317 132 297 l 664 671 q 668 679 668 672 q 657 690 668 690 l 61 690 l 61 939 l 871 939 q 956 925 924 939 q 1008 889 988 911 q 1040 840 1029 867 q 1051 786 1051 813 q 1036 715 1051 750 q 1016 683 1029 699 q 971 643 1003 667 l 464 265 q 456 253 456 258 q 472 240 456 240 l 1063 240 z "},"[":{"ha":535,"x_min":161,"x_max":504,"o":"m 161 1101 l 504 1101 l 504 972 l 328 972 l 328 -124 l 504 -124 l 504 -254 l 161 -254 l 161 1101 z "},"\\":{"ha":857,"x_min":10,"x_max":854,"o":"m 669 -161 q 656 -128 664 -144 l 22 960 q 15 976 18 968 q 10 993 11 985 l 194 993 q 208 960 200 976 l 840 -128 q 854 -161 853 -147 l 669 -161 z "},"]":{"ha":535,"x_min":29,"x_max":374,"o":"m 374 -254 l 29 -254 l 29 -124 l 207 -124 l 207 972 l 29 972 l 29 1101 l 374 1101 l 374 -254 z "},"^":{"ha":878,"x_min":89,"x_max":786,"o":"m 89 221 l 301 861 q 352 935 317 910 q 438 960 388 960 q 523 933 488 960 q 574 861 558 907 l 786 221 l 592 221 l 454 713 q 438 724 450 724 q 421 713 425 724 l 283 221 l 89 221 z "},"_":{"ha":1004,"x_min":3,"x_max":1010,"o":"m 3 -104 l 1010 -104 l 1010 -292 l 3 -292 l 3 -104 z "},"`":{"ha":568,"x_min":69,"x_max":499,"o":"m 333 1317 l 499 1000 l 289 1000 l 69 1317 l 333 1317 z "},"a":{"ha":1304,"x_min":26,"x_max":1275,"o":"m 26 0 m 1260 42 q 1269 21 1265 31 q 1275 0 1272 11 l 992 0 q 986 17 989 10 q 981 32 983 25 l 931 146 l 375 146 l 326 33 q 321 17 324 25 q 317 0 318 8 l 26 0 q 33 21 29 11 q 42 42 36 31 l 378 786 q 483 917 418 874 q 650 960 549 960 q 815 917 749 960 q 921 786 881 874 l 1260 42 m 839 353 l 694 689 q 676 711 688 704 q 651 718 665 718 q 628 712 639 718 q 610 689 617 706 l 467 353 l 839 353 z "},"b":{"ha":1143,"x_min":71,"x_max":1115,"o":"m 71 0 m 804 939 q 1035 850 953 939 q 1086 769 1067 815 q 1106 663 1106 722 q 1081 552 1106 601 q 1011 472 1057 503 q 1090 389 1064 444 q 1115 268 1115 333 q 1098 174 1115 218 q 1050 93 1081 129 q 958 25 1014 50 q 818 0 901 0 l 133 0 q 71 60 71 0 l 71 881 q 133 939 71 939 l 804 939 m 322 249 q 342 228 322 228 l 758 228 q 803 235 786 228 q 832 256 821 243 q 851 308 851 279 q 831 360 851 336 q 803 379 819 372 q 758 386 786 386 l 322 386 l 322 249 m 760 554 q 802 562 786 554 q 829 583 818 569 q 846 629 846 604 q 829 675 846 654 q 802 695 818 688 q 760 703 786 703 l 342 703 q 322 682 322 703 l 322 554 l 760 554 z "},"c":{"ha":1088,"x_min":49,"x_max":1039,"o":"m 49 0 m 1039 0 l 547 0 q 328 41 421 0 q 169 153 235 82 q 81 296 113 215 q 49 469 49 376 q 89 661 49 572 q 200 815 129 750 q 348 906 263 874 q 547 939 433 939 l 1039 939 l 1039 690 l 547 690 q 442 674 483 690 q 369 629 400 657 q 319 557 338 599 q 300 468 300 515 q 315 387 300 425 q 358 319 331 349 q 435 267 389 286 q 547 247 481 247 l 1039 247 l 1039 0 z "},"d":{"ha":1188,"x_min":69,"x_max":1136,"o":"m 69 0 m 638 939 q 837 906 751 939 q 985 815 922 874 q 1096 661 1056 750 q 1136 469 1136 572 q 1104 296 1136 376 q 1015 153 1072 215 q 857 41 950 82 q 638 0 764 0 l 131 0 q 69 60 69 0 l 69 881 q 131 939 69 939 l 638 939 m 339 690 q 321 671 321 690 l 321 267 q 339 247 321 247 l 638 247 q 750 267 704 247 q 826 319 796 286 q 869 387 854 349 q 885 468 885 425 q 866 557 885 515 q 815 629 847 599 q 743 674 785 657 q 638 690 701 690 l 339 690 z "},"e":{"ha":1104,"x_min":68,"x_max":1056,"o":"m 68 0 m 1056 939 l 1056 690 l 342 690 q 319 667 319 690 l 319 560 l 1051 560 l 1051 379 l 319 379 l 319 265 q 342 240 319 240 l 1056 240 l 1056 0 l 200 0 q 68 131 68 0 l 68 813 q 201 939 68 939 l 1056 939 z "},"f":{"ha":1097,"x_min":68,"x_max":1056,"o":"m 68 0 m 1056 939 l 1056 690 l 358 690 q 319 649 319 690 l 319 547 l 1051 547 l 1051 314 l 319 314 l 319 0 l 68 0 l 68 767 q 238 939 68 939 l 1056 939 z "},"g":{"ha":1121,"x_min":49,"x_max":1056,"o":"m 49 0 m 547 0 q 328 41 421 0 q 169 153 235 82 q 81 296 113 215 q 49 469 49 376 q 89 661 49 572 q 200 815 129 750 q 348 906 263 874 q 547 939 433 939 l 1054 939 l 1054 690 l 547 690 q 442 674 483 690 q 369 629 400 657 q 319 557 338 599 q 300 468 300 515 q 315 387 300 425 q 358 319 331 349 q 435 265 389 286 q 547 243 481 243 l 788 243 q 806 263 806 243 l 806 514 l 1056 514 l 1056 60 q 996 0 1056 0 l 547 0 z "},"h":{"ha":1208,"x_min":71,"x_max":1136,"o":"m 71 0 m 1136 939 l 1136 0 l 883 0 l 883 363 l 324 363 l 324 0 l 71 0 l 71 939 l 324 939 l 324 599 l 883 599 l 883 939 l 1136 939 z "},"i":{"ha":394,"x_min":71,"x_max":324,"o":"m 71 0 m 324 939 l 324 0 l 71 0 l 71 939 l 324 939 z "},"j":{"ha":985,"x_min":28,"x_max":922,"o":"m 28 0 m 28 0 l 28 240 l 551 240 q 641 269 614 240 q 668 357 668 299 l 668 939 l 922 939 l 922 368 q 832 97 922 194 q 551 0 742 0 l 28 0 z "},"k":{"ha":1210,"x_min":69,"x_max":1190,"o":"m 69 0 m 324 939 l 324 554 l 751 900 q 790 939 774 918 l 1142 939 q 1131 926 1138 932 q 1117 914 1124 919 l 600 514 q 592 499 592 507 q 600 483 592 490 l 1154 35 q 1173 18 1164 26 q 1190 0 1182 10 l 815 0 q 774 39 801 17 l 324 415 l 324 0 l 69 0 l 69 939 l 324 939 z "},"l":{"ha":1079,"x_min":64,"x_max":1051,"o":"m 64 0 m 369 0 q 224 19 283 0 q 130 76 165 38 q 79 172 94 114 q 64 306 64 229 l 64 939 l 317 939 l 317 329 q 334 259 317 278 q 400 240 351 240 l 1051 240 l 1051 0 l 369 0 z "},"m":{"ha":1581,"x_min":64,"x_max":1514,"o":"m 64 0 m 789 -19 q 696 1 739 -19 q 631 67 653 22 l 346 657 q 328 668 342 668 q 313 662 319 668 q 306 643 306 656 l 306 0 l 64 0 l 64 688 q 87 818 64 767 q 151 903 110 869 q 224 944 183 928 q 315 960 265 960 q 460 911 404 960 q 553 785 517 863 l 765 324 q 789 306 772 306 q 813 324 806 306 l 1025 785 q 1117 911 1061 863 q 1263 960 1172 960 q 1353 944 1313 960 q 1426 903 1394 928 q 1491 818 1468 869 q 1514 688 1514 767 l 1514 0 l 1272 0 l 1272 643 q 1265 662 1272 656 q 1250 668 1258 668 q 1232 657 1236 668 l 947 67 q 882 1 925 22 q 789 -19 839 -19 z "},"n":{"ha":1304,"x_min":67,"x_max":1235,"o":"m 67 0 m 1235 182 q 1220 91 1235 129 q 1181 28 1206 53 q 1125 -8 1157 4 q 1058 -19 1093 -19 q 953 -2 999 -19 q 875 54 908 15 l 360 650 q 338 663 349 663 q 321 656 328 663 q 314 636 314 649 l 314 0 l 67 0 l 67 740 q 83 842 67 800 q 128 910 99 883 q 197 948 157 936 q 285 960 238 960 q 397 939 351 960 q 488 867 443 918 l 946 318 q 957 309 951 311 q 969 307 963 307 q 989 332 989 307 l 989 939 l 1235 939 l 1235 182 z "},"o":{"ha":1294,"x_min":49,"x_max":1243,"o":"m 49 0 m 547 0 q 328 41 421 0 q 169 153 235 82 q 81 296 113 215 q 49 469 49 376 q 89 661 49 572 q 200 815 129 750 q 348 906 263 874 q 547 939 433 939 l 744 939 q 944 906 858 939 q 1092 815 1029 874 q 1203 661 1163 750 q 1243 469 1243 572 q 1211 296 1243 376 q 1122 153 1179 215 q 964 41 1057 82 q 744 0 871 0 l 547 0 m 547 690 q 442 674 483 690 q 369 629 400 657 q 319 557 338 599 q 300 468 300 515 q 315 387 300 425 q 358 319 331 349 q 435 267 389 286 q 547 247 481 247 l 744 247 q 857 267 811 247 q 933 319 903 286 q 976 387 961 349 q 992 468 992 425 q 973 557 992 515 q 922 629 954 599 q 850 674 892 657 q 744 690 808 690 l 547 690 z "},"p":{"ha":1171,"x_min":69,"x_max":1139,"o":"m 69 0 m 753 939 q 920 912 853 939 q 1035 838 988 885 q 1111 724 1083 789 q 1139 588 1139 658 q 1117 467 1139 525 q 1057 363 1096 410 q 935 270 1008 304 q 753 236 861 236 l 321 236 l 321 0 l 69 0 l 69 881 q 131 939 69 939 l 753 939 m 758 467 q 826 478 800 467 q 867 511 851 490 q 889 578 889 540 q 865 649 889 618 q 824 679 850 668 q 758 690 799 690 l 339 690 q 321 671 321 690 l 321 467 l 758 467 z "},"q":{"ha":1274,"x_min":49,"x_max":1260,"o":"m 49 0 m 533 25 q 320 65 411 25 q 167 174 229 104 q 80 313 111 235 q 49 482 49 390 q 88 669 49 582 q 196 818 128 756 q 340 907 257 875 q 533 939 422 939 l 757 939 q 951 907 868 939 q 1094 818 1033 875 q 1202 669 1163 756 q 1242 482 1242 582 q 1231 381 1242 432 q 1198 283 1219 331 q 1143 195 1176 236 q 1065 124 1110 154 l 1235 -64 q 1249 -82 1243 -72 q 1260 -100 1256 -92 l 921 -100 q 916 -92 919 -97 q 902 -75 913 -87 q 871 -38 892 -62 q 814 28 850 -14 q 786 26 800 26 q 757 25 772 25 l 533 25 m 526 690 q 426 675 465 690 q 358 632 386 660 q 309 564 326 604 q 292 479 292 524 q 306 402 292 439 q 347 338 321 365 q 420 287 376 306 q 526 268 464 268 l 763 268 q 869 287 825 268 q 942 338 913 306 q 983 402 968 365 q 997 479 997 439 q 980 564 997 524 q 931 632 963 604 q 863 675 903 660 q 763 690 824 690 l 526 690 z "},"r":{"ha":1169,"x_min":69,"x_max":1119,"o":"m 69 0 m 321 0 l 69 0 l 69 881 q 132 939 69 939 l 799 939 q 943 915 886 939 q 1039 850 1000 890 q 1094 766 1074 814 q 1114 665 1114 718 q 1094 558 1114 608 q 1025 471 1075 507 q 1094 400 1072 443 q 1115 276 1115 357 l 1115 89 q 1116 39 1115 58 q 1119 0 1117 19 l 865 0 q 861 63 861 31 l 861 250 q 838 314 861 294 q 758 333 814 333 l 321 333 l 321 0 m 765 547 q 808 556 792 547 q 836 578 825 564 q 854 626 854 600 q 833 679 854 658 q 765 704 811 704 l 342 704 q 321 683 321 704 l 321 547 l 765 547 z "},"s":{"ha":1128,"x_min":36,"x_max":1096,"o":"m 36 0 m 1051 690 l 376 690 q 340 685 353 690 q 318 672 326 681 q 299 624 299 653 q 322 574 299 593 q 342 563 331 567 q 376 560 354 560 l 789 560 q 923 537 868 560 q 1015 475 978 514 q 1074 386 1053 436 q 1096 281 1096 336 q 1077 182 1096 229 q 1026 97 1058 135 q 930 26 988 53 q 789 0 872 0 l 61 0 l 61 240 l 744 240 q 790 247 774 240 q 815 264 806 253 q 831 307 831 282 q 811 357 831 338 q 787 373 801 368 q 744 378 772 378 l 363 378 q 210 401 268 378 q 115 463 153 424 q 57 551 78 501 q 36 658 36 600 q 58 765 36 715 q 117 854 79 815 q 211 916 154 893 q 363 939 268 939 l 1051 939 l 1051 690 z "},"t":{"ha":1133,"x_min":28,"x_max":1104,"o":"m 28 0 m 1104 939 l 1104 690 l 693 690 l 693 0 l 440 0 l 440 690 l 28 690 l 28 939 l 1104 939 z "},"u":{"ha":1207,"x_min":64,"x_max":1143,"o":"m 64 0 m 393 0 q 242 17 304 0 q 140 72 179 35 q 82 165 100 108 q 64 300 64 221 l 64 939 l 317 939 l 317 328 q 407 240 317 240 l 797 240 q 890 328 890 240 l 890 939 l 1143 939 l 1143 300 q 1067 72 1143 143 q 814 0 990 0 l 393 0 z "},"v":{"ha":1304,"x_min":26,"x_max":1275,"o":"m 26 0 m 42 897 q 33 918 36 908 q 26 939 29 928 l 324 939 q 333 906 328 921 l 614 257 q 631 235 621 242 q 654 228 642 228 q 676 234 667 228 q 693 257 686 240 l 971 906 q 982 939 978 921 l 1275 939 q 1269 918 1272 928 q 1260 897 1265 908 l 924 153 q 818 23 883 65 q 653 -19 753 -19 q 381 153 458 -19 l 42 897 z "},"w":{"ha":1738,"x_min":31,"x_max":1707,"o":"m 31 0 m 872 736 q 842 708 849 736 l 696 190 q 599 31 665 82 q 424 -19 532 -19 q 312 -3 360 -19 q 231 40 264 13 q 178 107 197 68 q 151 190 158 146 l 35 894 q 31 939 31 921 l 296 939 q 297 922 296 932 q 299 903 297 913 l 397 261 q 431 229 401 229 q 451 235 443 229 q 464 258 460 242 l 607 763 q 697 912 636 864 q 872 960 758 960 q 1043 913 985 960 q 1128 769 1101 865 l 1268 258 q 1281 235 1272 242 q 1301 229 1289 229 q 1335 261 1329 229 l 1442 903 q 1444 923 1444 914 q 1444 939 1444 932 l 1707 939 q 1706 919 1707 928 q 1703 894 1706 910 l 1578 189 q 1495 38 1561 96 q 1303 -19 1429 -19 q 1038 190 1093 -19 l 903 708 q 872 736 896 736 z "},"x":{"ha":1400,"x_min":24,"x_max":1375,"o":"m 24 0 m 1325 939 q 1297 908 1313 922 l 876 501 l 1351 29 q 1364 15 1358 22 q 1375 0 1369 7 l 1015 0 q 993 28 1006 15 l 694 339 l 379 28 q 366 14 372 21 q 354 0 360 7 l 24 0 q 35 15 29 8 q 49 29 40 21 l 533 501 l 114 908 q 88 939 97 922 l 438 939 q 461 908 447 924 l 710 656 l 972 908 q 987 924 981 915 q 999 939 993 932 l 1325 939 z "},"y":{"ha":1186,"x_min":8,"x_max":1178,"o":"m 8 0 m 32 907 q 16 925 21 918 q 8 939 11 932 l 318 939 q 326 925 321 933 q 340 907 331 917 l 576 650 q 596 640 586 640 q 615 650 606 640 l 850 907 q 874 939 868 925 l 1178 939 q 1169 925 1174 932 q 1153 907 1164 918 l 713 421 l 713 0 l 458 0 l 458 438 l 32 907 z "},"z":{"ha":1108,"x_min":54,"x_max":1063,"o":"m 54 0 m 1063 240 l 1063 0 l 235 0 q 144 17 179 0 q 89 61 110 33 q 54 163 54 107 q 64 214 54 188 q 94 265 74 240 q 118 287 104 276 q 160 317 132 297 l 664 671 q 668 679 668 672 q 657 690 668 690 l 61 690 l 61 939 l 871 939 q 956 925 924 939 q 1008 889 988 911 q 1040 840 1029 867 q 1051 786 1051 813 q 1036 715 1051 750 q 1016 683 1029 699 q 971 643 1003 667 l 464 265 q 456 253 456 258 q 472 240 456 240 l 1063 240 z "},"{":{"ha":535,"x_min":135,"x_max":504,"o":"m 161 489 q 221 553 221 489 l 221 896 q 272 1049 221 996 q 406 1101 324 1101 l 504 1101 l 504 971 l 464 971 q 408 948 425 971 q 390 883 390 925 l 390 571 q 367 467 390 499 q 311 424 343 435 q 367 381 343 413 q 390 276 390 349 l 390 -36 q 408 -100 390 -76 q 464 -124 425 -124 l 504 -124 l 504 -254 l 406 -254 q 272 -203 324 -254 q 221 -49 221 -153 l 221 294 q 161 357 221 357 l 135 357 l 135 489 l 161 489 z "},"|":{"ha":551,"x_min":192,"x_max":360,"o":"m 192 1101 l 360 1101 l 360 -254 l 192 -254 l 192 1101 z "},"}":{"ha":535,"x_min":29,"x_max":400,"o":"m 400 489 l 400 357 l 374 357 q 313 294 313 357 l 313 -50 q 261 -202 313 -150 q 129 -254 210 -254 l 29 -254 l 29 -124 l 69 -124 q 126 -100 108 -124 q 144 -36 144 -76 l 144 276 q 167 381 144 349 q 224 424 190 413 q 192 440 207 429 q 167 467 178 450 q 151 509 157 483 q 144 571 144 535 l 144 883 q 126 948 144 925 q 69 971 108 971 l 29 971 l 29 1101 l 129 1101 q 262 1051 211 1101 q 313 896 313 1000 l 313 553 q 374 489 313 489 l 400 489 z "},"~":{"ha":878,"x_min":68,"x_max":807,"o":"m 807 414 q 717 357 769 376 q 589 338 664 338 q 508 353 547 338 q 428 387 468 368 q 348 421 389 406 q 264 436 307 436 q 165 417 207 436 q 82 342 124 397 l 68 342 l 68 533 q 140 590 96 569 q 258 610 185 610 q 353 594 308 610 q 438 559 397 578 q 517 525 478 540 q 596 510 556 510 q 708 532 663 510 q 794 607 754 554 l 807 607 l 807 414 z "}," ":{"ha":560,"x_min":0,"x_max":0,"o":""},"¡":{"ha":411,"x_min":79,"x_max":332,"o":"m 79 694 l 79 939 l 332 939 l 332 694 l 79 694 m 79 0 l 79 615 l 332 615 l 332 0 l 79 0 z "},"¢":{"ha":1094,"x_min":71,"x_max":1022,"o":"m 738 960 l 738 844 l 1021 844 l 1021 644 l 500 644 q 390 633 428 644 q 324 594 351 622 q 275 464 275 543 q 324 338 275 386 q 390 299 351 310 q 500 288 428 288 l 1022 288 l 1022 94 l 738 94 l 738 -19 l 540 -19 l 540 94 l 499 94 q 397 100 442 94 q 315 117 353 106 q 247 149 278 129 q 185 196 215 168 q 101 314 131 244 q 71 468 71 383 q 101 624 71 554 q 185 742 131 693 q 247 789 215 769 q 315 821 278 808 q 397 839 353 833 q 499 844 442 844 l 540 844 l 540 960 l 738 960 z "},"£":{"ha":1038,"x_min":69,"x_max":965,"o":"m 76 549 l 211 549 q 231 713 211 640 q 296 836 251 786 q 410 913 340 886 q 582 939 481 939 l 963 939 l 963 690 l 572 690 q 485 657 507 690 q 463 549 463 624 l 958 549 l 958 388 l 463 388 l 463 240 l 965 240 l 965 0 l 69 0 l 69 240 l 211 240 l 211 388 l 76 388 l 76 549 z "},"¤":{"ha":1081,"x_min":68,"x_max":1010,"o":"m 756 135 q 654 86 708 104 q 540 68 600 68 q 425 86 479 68 q 325 135 371 104 l 193 -4 l 68 121 l 206 254 q 142 467 142 347 q 158 582 142 528 q 206 686 175 636 l 72 814 l 193 936 l 321 801 q 422 853 367 833 q 540 874 478 874 q 654 853 600 874 q 757 801 708 833 l 886 936 l 1008 814 l 872 686 q 921 581 904 636 q 938 467 938 526 q 921 353 938 408 q 872 253 904 297 l 1010 121 l 886 -4 l 756 135 m 540 244 q 627 263 588 244 q 695 310 667 281 q 740 381 724 340 q 756 467 756 421 q 740 555 756 514 q 695 626 724 596 q 627 675 667 657 q 540 693 588 693 q 451 675 492 693 q 382 626 411 657 q 336 555 353 596 q 319 467 319 514 q 336 381 319 421 q 382 310 353 340 q 451 263 411 281 q 540 244 492 244 z "},"¥":{"ha":1142,"x_min":40,"x_max":1100,"o":"m 93 551 l 364 551 l 63 907 q 48 925 53 918 q 40 939 43 932 l 331 939 q 338 925 333 933 q 351 907 343 917 l 556 661 q 575 650 565 650 q 593 661 583 650 l 796 907 q 810 926 806 918 q 817 939 814 933 l 1100 939 q 1091 925 1096 932 q 1078 907 1086 918 l 775 551 l 1043 551 l 1043 390 l 690 390 l 690 292 l 1043 292 l 1043 131 l 690 131 l 690 0 l 436 0 l 436 131 l 93 131 l 93 292 l 436 292 l 436 390 l 93 390 l 93 551 z "},"¦":{"ha":551,"x_min":192,"x_max":360,"o":"m 192 297 l 360 297 l 360 -254 l 192 -254 l 192 297 m 192 1101 l 360 1101 l 360 551 l 192 551 l 192 1101 z "},"§":{"ha":1008,"x_min":68,"x_max":939,"o":"m 329 486 q 278 468 293 486 q 264 425 264 450 q 279 383 264 401 q 331 364 294 364 l 676 364 q 726 383 713 364 q 740 426 740 401 q 726 467 740 447 q 675 486 711 486 l 329 486 m 906 754 l 507 754 q 442 696 442 754 q 456 654 442 669 q 506 639 469 639 l 707 639 q 808 623 765 639 q 881 580 851 607 q 924 516 910 553 q 939 436 939 479 q 925 339 939 379 q 887 272 911 299 q 829 231 863 244 q 757 215 796 218 q 767 185 763 204 q 771 142 771 165 q 758 58 771 99 q 716 -15 744 17 q 642 -67 688 -47 q 532 -86 596 -86 l 94 -86 l 94 97 l 496 97 q 547 113 531 97 q 564 157 564 129 q 549 199 564 182 q 497 215 535 215 l 326 215 q 135 269 201 215 q 68 428 68 322 q 84 522 68 483 q 126 586 100 561 q 188 624 153 611 q 260 639 222 636 q 238 713 238 674 q 252 801 238 760 q 295 874 267 843 q 367 922 324 904 q 469 939 411 939 l 906 939 l 906 754 z "},"¨":{"ha":788,"x_min":69,"x_max":717,"o":"m 717 1058 l 506 1058 l 506 1243 l 717 1243 l 717 1058 m 279 1058 l 69 1058 l 69 1243 l 279 1243 l 279 1058 z "},"©":{"ha":1224,"x_min":47,"x_max":1174,"o":"m 1174 469 q 1137 276 1174 363 q 1031 126 1100 189 q 953 68 993 92 q 867 29 914 44 q 765 7 821 14 q 639 0 710 0 l 582 0 q 456 7 511 0 q 353 29 400 14 q 267 68 307 44 q 190 126 228 92 q 85 276 122 189 q 47 469 47 363 q 85 663 47 578 q 190 811 122 749 q 267 870 228 846 q 353 910 307 894 q 456 932 400 925 q 582 939 511 939 l 639 939 q 765 932 710 939 q 868 909 821 925 q 954 869 915 893 q 1031 811 993 844 q 1137 663 1100 749 q 1174 469 1174 578 m 1051 469 q 948 722 1051 628 q 639 817 844 817 l 582 817 q 402 792 479 817 q 274 723 325 768 q 196 614 222 678 q 169 469 169 550 q 273 215 169 308 q 582 122 376 122 l 639 122 q 949 215 846 122 q 1051 469 1051 308 m 471 468 q 495 400 471 425 q 571 375 519 375 l 788 375 l 788 261 l 550 261 q 469 277 507 261 q 405 322 432 293 q 363 388 378 350 q 347 469 347 425 q 410 620 347 561 q 581 679 472 679 l 788 679 l 788 560 l 571 560 q 495 535 519 560 q 471 468 471 510 z "},"ª":{"ha":842,"x_min":44,"x_max":794,"o":"m 786 392 q 791 379 789 385 q 794 367 793 374 l 617 367 q 614 376 615 372 q 610 386 613 381 l 581 453 l 264 453 l 235 386 q 231 376 232 381 q 228 367 229 372 l 44 367 q 48 379 46 374 q 53 392 50 385 l 257 853 q 319 933 281 906 q 419 960 357 960 q 521 933 482 960 q 583 853 560 906 l 786 392 m 524 586 l 442 782 q 422 799 435 799 q 403 782 410 799 l 321 586 l 524 586 z "},"«":{"ha":678,"x_min":29,"x_max":649,"o":"m 29 0 m 344 939 l 200 496 q 194 469 194 481 q 200 443 194 460 l 344 0 l 176 0 l 39 418 q 32 444 35 432 q 29 468 29 456 q 32 494 29 482 q 39 521 35 506 l 176 939 l 344 939 m 649 939 l 504 496 q 499 469 499 481 q 504 443 499 460 l 649 0 l 481 0 l 343 418 q 336 444 339 432 q 333 468 333 456 q 336 494 333 482 q 343 521 339 506 l 481 939 l 649 939 z "},"¬":{"ha":878,"x_min":69,"x_max":808,"o":"m 808 0 l 622 0 l 622 393 l 69 393 l 69 578 l 808 578 l 808 0 z "},"®":{"ha":1224,"x_min":47,"x_max":1174,"o":"m 1174 469 q 1137 276 1174 363 q 1031 126 1100 189 q 953 68 993 92 q 867 29 914 44 q 765 7 821 14 q 639 0 710 0 l 582 0 q 456 7 511 0 q 353 29 400 14 q 267 68 307 44 q 190 126 228 92 q 85 276 122 189 q 47 469 47 363 q 85 663 47 578 q 190 811 122 749 q 267 870 228 846 q 353 910 307 894 q 456 932 400 925 q 582 939 511 939 l 639 939 q 765 932 710 939 q 868 909 821 925 q 954 869 915 893 q 1031 811 993 844 q 1137 663 1100 749 q 1174 469 1174 578 m 1051 469 q 1024 613 1051 550 q 949 721 997 676 q 890 765 921 746 q 823 794 860 783 q 741 811 786 806 q 639 817 696 817 l 582 817 q 480 811 525 817 q 398 794 435 806 q 331 765 361 783 q 272 721 300 746 q 197 613 224 676 q 169 469 169 550 q 197 326 169 390 q 272 217 224 263 q 330 172 300 190 q 397 143 360 154 q 478 127 433 132 q 582 122 524 122 l 639 122 q 741 127 696 122 q 823 144 786 132 q 890 174 860 156 q 949 217 921 192 q 1024 325 997 261 q 1051 469 1051 389 m 503 261 l 383 261 l 383 650 q 413 679 383 679 l 714 679 q 777 667 751 679 q 819 638 803 656 q 842 599 835 621 q 849 556 849 576 q 840 507 849 529 q 813 469 832 485 q 840 438 832 458 q 849 385 849 418 l 849 300 q 849 278 849 288 q 851 261 849 269 l 729 261 q 728 274 729 267 q 728 288 728 281 l 728 372 q 719 397 728 388 q 688 406 711 406 l 503 406 l 503 261 m 685 504 q 722 536 722 504 q 712 559 722 550 q 685 568 701 568 l 511 568 q 503 558 503 568 l 503 504 l 685 504 z "},"¯":{"ha":856,"x_min":69,"x_max":785,"o":"m 785 1064 l 69 1064 l 69 1238 l 785 1238 l 785 1064 z "},"°":{"ha":692,"x_min":68,"x_max":619,"o":"m 619 713 q 551 547 619 608 q 361 486 483 486 l 328 486 q 135 549 201 486 q 68 713 68 611 q 135 876 68 814 q 328 939 201 939 l 361 939 q 551 878 483 939 q 619 713 619 817 m 199 713 q 236 637 199 660 q 328 614 274 614 l 361 614 q 463 642 436 614 q 490 713 490 669 q 463 783 490 756 q 361 810 436 810 l 328 810 q 226 783 254 810 q 199 713 199 756 z "},"±":{"ha":878,"x_min":68,"x_max":808,"o":"m 68 0 m 807 493 l 531 493 l 531 218 l 346 218 l 346 493 l 68 493 l 68 678 l 346 678 l 346 957 l 531 957 l 531 678 l 807 678 l 807 493 m 808 -62 l 69 -62 l 69 122 l 808 122 l 808 -62 z "},"²":{"ha":632,"x_min":33,"x_max":597,"o":"m 33 422 m 43 939 l 431 939 q 550 898 503 939 q 597 785 597 857 q 569 701 597 739 q 494 643 542 663 q 408 610 440 622 q 360 592 376 599 q 340 584 344 586 q 336 579 336 582 q 342 574 336 574 q 398 576 361 574 q 501 578 435 578 l 590 578 l 590 422 l 140 422 q 60 453 88 422 q 33 524 33 485 q 50 578 33 553 q 100 618 67 603 q 256 683 197 660 q 347 720 315 707 q 388 741 378 733 q 397 757 397 749 q 389 775 397 771 q 369 779 381 779 q 330 778 350 779 q 263 778 310 778 l 43 778 l 43 939 z "},"³":{"ha":626,"x_min":49,"x_max":597,"o":"m 49 422 m 492 939 q 562 916 540 939 q 583 860 583 893 q 581 839 583 849 q 569 818 578 829 q 547 794 561 807 q 513 764 533 782 q 503 757 510 761 q 489 748 496 753 q 477 739 482 743 q 472 732 472 735 q 476 728 472 729 q 563 676 529 713 q 597 581 597 640 q 588 526 597 554 q 558 474 578 497 q 506 437 538 451 q 432 422 475 422 l 49 422 l 49 578 l 374 578 q 398 587 390 578 q 406 607 406 596 q 398 624 406 615 q 374 632 390 632 l 278 632 q 228 647 240 632 q 217 681 217 661 q 222 701 217 692 q 246 725 226 711 l 268 740 q 303 761 286 753 q 319 776 319 769 q 315 781 319 781 q 291 779 304 781 q 257 778 278 778 l 50 778 l 50 939 l 492 939 z "},"´":{"ha":568,"x_min":69,"x_max":499,"o":"m 499 1317 l 279 1000 l 69 1000 l 235 1317 l 499 1317 z "},"¶":{"ha":1088,"x_min":32,"x_max":1008,"o":"m 965 939 q 1008 897 1008 939 l 1008 -212 l 822 -212 l 822 742 q 810 754 822 754 l 618 754 l 618 -212 l 432 -212 l 432 449 l 304 449 q 105 512 178 449 q 32 693 32 575 q 106 875 32 811 q 304 939 181 939 l 965 939 m 219 688 q 286 619 219 619 l 432 619 l 432 754 l 286 754 q 219 688 219 754 z "},"·":{"ha":417,"x_min":82,"x_max":335,"o":"m 82 357 m 335 601 l 335 357 l 82 357 l 82 601 l 335 601 z "},"¸":{"ha":543,"x_min":69,"x_max":450,"o":"m 450 -69 l 268 -350 l 69 -350 l 204 -69 l 450 -69 z "},"¹":{"ha":358,"x_min":40,"x_max":294,"o":"m 40 421 m 165 939 q 267 906 239 939 q 294 796 294 874 l 294 421 l 133 421 l 133 756 q 113 778 133 778 l 40 778 l 40 939 l 165 939 z "},"º":{"ha":839,"x_min":57,"x_max":783,"o":"m 365 367 q 229 392 286 367 q 132 461 172 417 q 76 549 96 499 q 57 657 57 599 q 82 776 57 721 q 150 871 107 831 q 242 927 189 907 q 365 947 294 947 l 475 947 q 598 927 546 947 q 689 871 650 907 q 758 776 733 831 q 783 657 783 721 q 763 549 783 599 q 708 461 743 499 q 611 392 668 417 q 475 367 554 367 l 365 367 m 361 783 q 301 774 325 783 q 260 749 276 765 q 219 656 219 711 q 253 571 219 607 q 297 540 271 551 q 361 529 322 529 l 479 529 q 543 540 517 529 q 588 571 569 551 q 621 656 621 607 q 581 749 621 711 q 539 774 563 765 q 479 783 515 783 l 361 783 z "},"»":{"ha":678,"x_min":29,"x_max":649,"o":"m 29 0 m 197 939 l 335 521 q 342 494 339 506 q 344 468 344 482 q 342 444 344 456 q 335 418 339 432 l 197 0 l 29 0 l 174 443 q 179 469 179 460 q 174 496 179 481 l 29 939 l 197 939 m 501 939 l 639 521 q 646 494 643 506 q 649 468 649 482 q 646 444 649 456 q 639 418 643 432 l 501 0 l 333 0 l 478 443 q 483 469 483 460 q 478 496 483 481 l 333 939 l 501 939 z "},"¼":{"ha":1256,"x_min":67,"x_max":1188,"o":"m 67 0 m 278 939 q 379 906 351 939 q 407 796 407 874 l 407 421 l 246 421 l 246 756 q 225 778 246 778 l 153 778 l 153 939 l 278 939 m 67 0 l 938 939 l 1151 939 l 281 0 l 67 0 m 1024 0 l 1024 69 l 693 69 q 643 76 663 69 q 612 96 624 83 q 596 124 600 108 q 592 156 592 139 q 599 193 592 174 q 638 235 607 213 l 1008 504 q 1075 528 1042 528 q 1116 521 1096 528 q 1152 499 1136 514 q 1178 460 1168 483 q 1188 401 1188 436 l 1188 0 l 1024 0 m 1024 319 q 1014 332 1024 332 q 1007 329 1010 332 q 921 267 953 289 q 872 235 889 246 q 851 219 856 224 q 846 211 846 215 q 854 204 846 204 q 871 205 861 204 q 899 206 881 206 q 946 206 917 206 q 1024 207 975 207 l 1024 319 z "},"½":{"ha":1424,"x_min":67,"x_max":1356,"o":"m 67 0 m 288 939 q 389 906 361 939 q 417 796 417 874 l 417 421 l 256 421 l 256 756 q 235 778 256 778 l 163 778 l 163 939 l 288 939 m 67 0 l 938 939 l 1151 939 l 281 0 l 67 0 m 801 517 l 1189 517 q 1308 476 1261 517 q 1356 363 1356 435 q 1328 278 1356 317 q 1253 221 1300 240 q 1167 188 1199 200 q 1119 170 1135 176 q 1099 162 1103 164 q 1094 157 1094 160 q 1100 151 1094 151 q 1156 153 1119 151 q 1260 156 1193 156 l 1349 156 l 1349 0 l 899 0 q 819 31 846 0 q 792 101 792 63 q 808 156 792 131 q 858 196 825 181 q 1015 261 956 238 q 1105 298 1074 285 q 1146 319 1136 311 q 1156 335 1156 326 q 1147 353 1156 349 q 1128 357 1139 357 q 1088 356 1108 357 q 1021 356 1068 356 l 801 356 l 801 517 z "},"¾":{"ha":1392,"x_min":67,"x_max":1324,"o":"m 67 0 m 510 939 q 580 916 558 939 q 601 860 601 893 q 599 839 601 849 q 588 818 596 829 q 565 794 579 807 q 531 764 551 782 q 521 757 528 761 q 507 748 514 753 q 495 739 500 743 q 490 732 490 735 q 494 728 490 729 q 581 676 547 713 q 615 581 615 640 q 606 526 615 554 q 576 474 596 497 q 524 437 556 451 q 450 422 493 422 l 67 422 l 67 578 l 392 578 q 416 587 408 578 q 424 607 424 596 q 416 624 424 615 q 392 632 408 632 l 296 632 q 247 647 258 632 q 235 681 235 661 q 240 701 235 692 q 264 725 244 711 l 286 740 q 321 761 304 753 q 338 776 338 769 q 333 781 338 781 q 309 779 322 781 q 275 778 296 778 l 68 778 l 68 939 l 510 939 m 194 0 l 1065 939 l 1279 939 l 408 0 l 194 0 m 1160 0 l 1160 69 l 829 69 q 779 76 799 69 q 748 96 760 83 q 732 124 736 108 q 728 156 728 139 q 735 193 728 174 q 774 235 743 213 l 1144 504 q 1211 528 1178 528 q 1252 521 1232 528 q 1288 499 1272 514 q 1314 460 1304 483 q 1324 401 1324 436 l 1324 0 l 1160 0 m 1160 319 q 1150 332 1160 332 q 1143 329 1146 332 q 1057 267 1089 289 q 1008 235 1025 246 q 987 219 992 224 q 982 211 982 215 q 990 204 982 204 q 1007 205 997 204 q 1035 206 1017 206 q 1082 206 1053 206 q 1160 207 1111 207 l 1160 319 z "},"¿":{"ha":831,"x_min":26,"x_max":793,"o":"m 793 0 l 297 0 q 175 20 224 0 q 93 76 126 40 q 44 151 63 108 q 26 239 26 193 q 57 362 26 303 q 168 483 88 421 q 265 567 236 538 q 300 615 293 596 l 551 615 q 531 563 547 594 q 479 492 514 532 q 423 429 449 456 q 367 379 397 403 q 317 336 329 350 q 306 303 306 322 q 318 267 306 281 q 365 249 333 249 l 793 249 l 793 0 m 310 694 l 310 939 l 563 939 l 563 694 l 310 694 z "},"À":{"ha":1304,"x_min":26,"x_max":1275,"o":"m 26 0 m 1260 42 q 1269 21 1265 31 q 1275 0 1272 11 l 992 0 q 986 17 989 10 q 981 32 983 25 l 931 146 l 375 146 l 326 33 q 321 17 324 25 q 317 0 318 8 l 26 0 q 33 21 29 11 q 42 42 36 31 l 378 786 q 483 917 418 874 q 650 960 549 960 q 815 917 749 960 q 921 786 881 874 l 1260 42 m 839 353 l 694 689 q 676 711 688 704 q 651 718 665 718 q 628 712 639 718 q 610 689 617 706 l 467 353 l 839 353 m 632 1317 l 797 1000 l 588 1000 l 368 1317 l 632 1317 z "},"Á":{"ha":1304,"x_min":26,"x_max":1275,"o":"m 26 0 m 1260 42 q 1269 21 1265 31 q 1275 0 1272 11 l 992 0 q 986 17 989 10 q 981 32 983 25 l 931 146 l 375 146 l 326 33 q 321 17 324 25 q 317 0 318 8 l 26 0 q 33 21 29 11 q 42 42 36 31 l 378 786 q 483 917 418 874 q 650 960 549 960 q 815 917 749 960 q 921 786 881 874 l 1260 42 m 839 353 l 694 689 q 676 711 688 704 q 651 718 665 718 q 628 712 639 718 q 610 689 617 706 l 467 353 l 839 353 m 936 1317 l 717 1000 l 507 1000 l 672 1317 l 936 1317 z "},"Â":{"ha":1304,"x_min":26,"x_max":1275,"o":"m 26 0 m 1260 42 q 1269 21 1265 31 q 1275 0 1272 11 l 992 0 q 986 17 989 10 q 981 32 983 25 l 931 146 l 375 146 l 326 33 q 321 17 324 25 q 317 0 318 8 l 26 0 q 33 21 29 11 q 42 42 36 31 l 378 786 q 483 917 418 874 q 650 960 549 960 q 815 917 749 960 q 921 786 881 874 l 1260 42 m 839 353 l 694 689 q 676 711 688 704 q 651 718 665 718 q 628 712 639 718 q 610 689 617 706 l 467 353 l 839 353 m 756 1317 l 997 1000 l 786 1000 l 653 1183 l 519 1000 l 307 1000 l 550 1317 l 756 1317 z "},"Ã":{"ha":1304,"x_min":26,"x_max":1275,"o":"m 26 0 m 1260 42 q 1269 21 1265 31 q 1275 0 1272 11 l 992 0 q 986 17 989 10 q 981 32 983 25 l 931 146 l 375 146 l 326 33 q 321 17 324 25 q 317 0 318 8 l 26 0 q 33 21 29 11 q 42 42 36 31 l 378 786 q 483 917 418 874 q 650 960 549 960 q 815 917 749 960 q 921 786 881 874 l 1260 42 m 839 353 l 694 689 q 676 711 688 704 q 651 718 665 718 q 628 712 639 718 q 610 689 617 706 l 467 353 l 839 353 m 1010 1064 l 294 1064 l 294 1238 l 1010 1238 l 1010 1064 z "},"Ä":{"ha":1304,"x_min":26,"x_max":1275,"o":"m 26 0 m 1260 42 q 1269 21 1265 31 q 1275 0 1272 11 l 992 0 q 986 17 989 10 q 981 32 983 25 l 931 146 l 375 146 l 326 33 q 321 17 324 25 q 317 0 318 8 l 26 0 q 33 21 29 11 q 42 42 36 31 l 378 786 q 483 917 418 874 q 650 960 549 960 q 815 917 749 960 q 921 786 881 874 l 1260 42 m 839 353 l 694 689 q 676 711 688 704 q 651 718 665 718 q 628 712 639 718 q 610 689 617 706 l 467 353 l 839 353 m 975 1058 l 764 1058 l 764 1243 l 975 1243 l 975 1058 m 538 1058 l 328 1058 l 328 1243 l 538 1243 l 538 1058 z "},"Å":{"ha":1304,"x_min":26,"x_max":1275,"o":"m 26 0 m 1260 42 q 1269 21 1265 31 q 1275 0 1272 11 l 992 0 q 986 17 989 10 q 981 32 983 25 l 931 146 l 375 146 l 326 33 q 321 17 324 25 q 317 0 318 8 l 26 0 q 33 21 29 11 q 42 42 36 31 l 378 786 q 483 917 418 874 q 650 960 549 960 q 815 917 749 960 q 921 786 881 874 l 1260 42 m 839 353 l 694 689 q 676 711 688 704 q 651 718 665 718 q 628 712 639 718 q 610 689 617 706 l 467 353 l 839 353 m 590 965 q 508 981 543 965 q 450 1022 474 996 q 404 1140 404 1071 q 419 1213 404 1179 q 461 1271 435 1247 q 517 1304 485 1292 q 590 1317 549 1317 l 711 1317 q 785 1304 754 1317 q 840 1271 817 1292 q 883 1213 868 1247 q 899 1140 899 1179 q 886 1076 899 1106 q 853 1022 874 1046 q 794 981 829 996 q 711 965 760 965 l 590 965 m 593 1213 q 559 1207 572 1213 q 535 1192 546 1201 q 514 1140 514 1172 q 532 1093 514 1111 q 593 1069 551 1069 l 710 1069 q 769 1093 751 1069 q 789 1140 789 1113 q 767 1192 789 1172 q 742 1207 756 1201 q 710 1213 729 1213 l 593 1213 z "},"Æ":{"ha":1822,"x_min":26,"x_max":1772,"o":"m 1772 690 l 1071 690 l 1071 560 l 1768 560 l 1768 379 l 1071 379 l 1071 265 q 1093 240 1071 240 l 1772 240 l 1772 0 l 951 0 q 819 131 819 0 l 819 146 l 375 146 l 326 33 q 322 17 324 25 q 317 0 319 8 l 26 0 q 33 21 29 11 q 42 42 36 31 l 371 765 q 474 897 411 854 q 642 939 538 939 l 1772 939 l 1772 690 m 819 353 l 819 690 l 647 690 q 615 683 624 690 q 599 658 606 675 l 467 353 l 819 353 z "},"Ç":{"ha":1088,"x_min":49,"x_max":1039,"o":"m 49 0 m 1039 0 l 547 0 q 328 41 421 0 q 169 153 235 82 q 81 296 113 215 q 49 469 49 376 q 89 661 49 572 q 200 815 129 750 q 348 906 263 874 q 547 939 433 939 l 1039 939 l 1039 690 l 547 690 q 442 674 483 690 q 369 629 400 657 q 319 557 338 599 q 300 468 300 515 q 315 387 300 425 q 358 319 331 349 q 435 267 389 286 q 547 247 481 247 l 1039 247 l 1039 0 m 750 -69 l 568 -350 l 369 -350 l 504 -69 l 750 -69 z "},"È":{"ha":1104,"x_min":68,"x_max":1056,"o":"m 68 0 m 1056 939 l 1056 690 l 342 690 q 319 667 319 690 l 319 560 l 1051 560 l 1051 379 l 319 379 l 319 265 q 342 240 319 240 l 1056 240 l 1056 0 l 200 0 q 68 131 68 0 l 68 813 q 201 939 68 939 l 1056 939 m 560 1317 l 725 1000 l 515 1000 l 296 1317 l 560 1317 z "},"É":{"ha":1104,"x_min":68,"x_max":1056,"o":"m 68 0 m 1056 939 l 1056 690 l 342 690 q 319 667 319 690 l 319 560 l 1051 560 l 1051 379 l 319 379 l 319 265 q 342 240 319 240 l 1056 240 l 1056 0 l 200 0 q 68 131 68 0 l 68 813 q 201 939 68 939 l 1056 939 m 864 1317 l 644 1000 l 435 1000 l 600 1317 l 864 1317 z "},"Ê":{"ha":1104,"x_min":68,"x_max":1056,"o":"m 68 0 m 1056 939 l 1056 690 l 342 690 q 319 667 319 690 l 319 560 l 1051 560 l 1051 379 l 319 379 l 319 265 q 342 240 319 240 l 1056 240 l 1056 0 l 200 0 q 68 131 68 0 l 68 813 q 201 939 68 939 l 1056 939 m 683 1317 l 925 1000 l 714 1000 l 581 1183 l 447 1000 l 235 1000 l 478 1317 l 683 1317 z "},"Ë":{"ha":1104,"x_min":68,"x_max":1056,"o":"m 68 0 m 1056 939 l 1056 690 l 342 690 q 319 667 319 690 l 319 560 l 1051 560 l 1051 379 l 319 379 l 319 265 q 342 240 319 240 l 1056 240 l 1056 0 l 200 0 q 68 131 68 0 l 68 813 q 201 939 68 939 l 1056 939 m 903 1058 l 692 1058 l 692 1243 l 903 1243 l 903 1058 m 465 1058 l 256 1058 l 256 1243 l 465 1243 l 465 1058 z "},"Ì":{"ha":481,"x_min":0,"x_max":429,"o":"m 0 0 m 410 939 l 410 0 l 157 0 l 157 939 l 410 939 m 264 1317 l 429 1000 l 219 1000 l 0 1317 l 264 1317 z "},"Í":{"ha":482,"x_min":53,"x_max":482,"o":"m 53 0 m 324 939 l 324 0 l 71 0 l 71 939 l 324 939 m 482 1317 l 263 1000 l 53 1000 l 218 1317 l 482 1317 z "},"Î":{"ha":690,"x_min":0,"x_max":690,"o":"m 0 0 m 471 939 l 471 0 l 218 0 l 218 939 l 471 939 m 449 1317 l 690 1000 l 479 1000 l 346 1183 l 213 1000 l 0 1000 l 243 1317 l 449 1317 z "},"Ï":{"ha":647,"x_min":0,"x_max":647,"o":"m 0 0 m 450 939 l 450 0 l 197 0 l 197 939 l 450 939 m 647 1058 l 436 1058 l 436 1243 l 647 1243 l 647 1058 m 210 1058 l 0 1058 l 0 1243 l 210 1243 l 210 1058 z "},"Ð":{"ha":1188,"x_min":69,"x_max":1136,"o":"m 618 939 q 835 903 739 939 q 997 806 931 868 q 1100 657 1064 743 q 1136 469 1136 571 q 1101 282 1136 368 q 1000 133 1067 196 q 837 35 933 71 q 618 0 740 0 l 131 0 q 69 60 69 0 l 69 881 q 131 939 69 939 l 618 939 m 826 311 q 869 383 854 343 q 885 468 885 422 q 870 555 885 514 q 828 626 856 596 q 785 663 808 649 q 733 687 763 678 q 665 699 703 696 q 576 703 626 703 l 339 703 q 321 682 321 703 l 321 556 l 686 556 l 686 383 l 321 383 l 321 254 q 339 233 321 233 l 576 233 q 664 237 626 233 q 731 249 701 240 q 783 274 760 258 q 826 311 806 289 z "},"Ñ":{"ha":1304,"x_min":67,"x_max":1235,"o":"m 67 0 m 1235 182 q 1220 91 1235 129 q 1181 28 1206 53 q 1125 -8 1157 4 q 1058 -19 1093 -19 q 953 -2 999 -19 q 875 54 908 15 l 360 650 q 338 663 349 663 q 321 656 328 663 q 314 636 314 649 l 314 0 l 67 0 l 67 740 q 83 842 67 800 q 128 910 99 883 q 197 948 157 936 q 285 960 238 960 q 397 939 351 960 q 488 867 443 918 l 946 318 q 957 309 951 311 q 969 307 963 307 q 989 332 989 307 l 989 939 l 1235 939 l 1235 182 m 1010 1064 l 294 1064 l 294 1238 l 1010 1238 l 1010 1064 z "},"Ò":{"ha":1294,"x_min":49,"x_max":1243,"o":"m 49 0 m 547 0 q 328 41 421 0 q 169 153 235 82 q 81 296 113 215 q 49 469 49 376 q 89 661 49 572 q 200 815 129 750 q 348 906 263 874 q 547 939 433 939 l 744 939 q 944 906 858 939 q 1092 815 1029 874 q 1203 661 1163 750 q 1243 469 1243 572 q 1211 296 1243 376 q 1122 153 1179 215 q 964 41 1057 82 q 744 0 871 0 l 547 0 m 547 690 q 442 674 483 690 q 369 629 400 657 q 319 557 338 599 q 300 468 300 515 q 315 387 300 425 q 358 319 331 349 q 435 267 389 286 q 547 247 481 247 l 744 247 q 857 267 811 247 q 933 319 903 286 q 976 387 961 349 q 992 468 992 425 q 973 557 992 515 q 922 629 954 599 q 850 674 892 657 q 744 690 808 690 l 547 690 m 626 1317 l 792 1000 l 582 1000 l 363 1317 l 626 1317 z "},"Ó":{"ha":1294,"x_min":49,"x_max":1243,"o":"m 49 0 m 547 0 q 328 41 421 0 q 169 153 235 82 q 81 296 113 215 q 49 469 49 376 q 89 661 49 572 q 200 815 129 750 q 348 906 263 874 q 547 939 433 939 l 744 939 q 944 906 858 939 q 1092 815 1029 874 q 1203 661 1163 750 q 1243 469 1243 572 q 1211 296 1243 376 q 1122 153 1179 215 q 964 41 1057 82 q 744 0 871 0 l 547 0 m 547 690 q 442 674 483 690 q 369 629 400 657 q 319 557 338 599 q 300 468 300 515 q 315 387 300 425 q 358 319 331 349 q 435 267 389 286 q 547 247 481 247 l 744 247 q 857 267 811 247 q 933 319 903 286 q 976 387 961 349 q 992 468 992 425 q 973 557 992 515 q 922 629 954 599 q 850 674 892 657 q 744 690 808 690 l 547 690 m 931 1317 l 711 1000 l 501 1000 l 667 1317 l 931 1317 z "},"Ô":{"ha":1294,"x_min":49,"x_max":1243,"o":"m 49 0 m 547 0 q 328 41 421 0 q 169 153 235 82 q 81 296 113 215 q 49 469 49 376 q 89 661 49 572 q 200 815 129 750 q 348 906 263 874 q 547 939 433 939 l 744 939 q 944 906 858 939 q 1092 815 1029 874 q 1203 661 1163 750 q 1243 469 1243 572 q 1211 296 1243 376 q 1122 153 1179 215 q 964 41 1057 82 q 744 0 871 0 l 547 0 m 547 690 q 442 674 483 690 q 369 629 400 657 q 319 557 338 599 q 300 468 300 515 q 315 387 300 425 q 358 319 331 349 q 435 267 389 286 q 547 247 481 247 l 744 247 q 857 267 811 247 q 933 319 903 286 q 976 387 961 349 q 992 468 992 425 q 973 557 992 515 q 922 629 954 599 q 850 674 892 657 q 744 690 808 690 l 547 690 m 750 1317 l 992 1000 l 781 1000 l 647 1183 l 514 1000 l 301 1000 l 544 1317 l 750 1317 z "},"Õ":{"ha":1294,"x_min":49,"x_max":1243,"o":"m 49 0 m 547 0 q 328 41 421 0 q 169 153 235 82 q 81 296 113 215 q 49 469 49 376 q 89 661 49 572 q 200 815 129 750 q 348 906 263 874 q 547 939 433 939 l 744 939 q 944 906 858 939 q 1092 815 1029 874 q 1203 661 1163 750 q 1243 469 1243 572 q 1211 296 1243 376 q 1122 153 1179 215 q 964 41 1057 82 q 744 0 871 0 l 547 0 m 547 690 q 442 674 483 690 q 369 629 400 657 q 319 557 338 599 q 300 468 300 515 q 315 387 300 425 q 358 319 331 349 q 435 267 389 286 q 547 247 481 247 l 744 247 q 857 267 811 247 q 933 319 903 286 q 976 387 961 349 q 992 468 992 425 q 973 557 992 515 q 922 629 954 599 q 850 674 892 657 q 744 690 808 690 l 547 690 m 1004 1064 l 289 1064 l 289 1238 l 1004 1238 l 1004 1064 z "},"Ö":{"ha":1294,"x_min":49,"x_max":1243,"o":"m 49 0 m 547 0 q 328 41 421 0 q 169 153 235 82 q 81 296 113 215 q 49 469 49 376 q 89 661 49 572 q 200 815 129 750 q 348 906 263 874 q 547 939 433 939 l 744 939 q 944 906 858 939 q 1092 815 1029 874 q 1203 661 1163 750 q 1243 469 1243 572 q 1211 296 1243 376 q 1122 153 1179 215 q 964 41 1057 82 q 744 0 871 0 l 547 0 m 547 690 q 442 674 483 690 q 369 629 400 657 q 319 557 338 599 q 300 468 300 515 q 315 387 300 425 q 358 319 331 349 q 435 267 389 286 q 547 247 481 247 l 744 247 q 857 267 811 247 q 933 319 903 286 q 976 387 961 349 q 992 468 992 425 q 973 557 992 515 q 922 629 954 599 q 850 674 892 657 q 744 690 808 690 l 547 690 m 971 1058 l 760 1058 l 760 1243 l 971 1243 l 971 1058 m 533 1058 l 324 1058 l 324 1243 l 533 1243 l 533 1058 z "},"×":{"ha":878,"x_min":114,"x_max":768,"o":"m 636 147 l 442 343 l 247 147 l 115 279 l 311 475 l 114 669 l 246 801 l 442 604 l 638 801 l 768 669 l 572 475 l 767 279 l 636 147 z "},"Ø":{"ha":1294,"x_min":49,"x_max":1243,"o":"m 547 0 q 357 29 440 0 q 326 -7 332 1 q 317 -19 319 -15 l 124 -19 q 128 -10 125 -15 q 141 6 131 -6 q 171 40 151 18 q 225 101 190 63 q 151 173 183 132 q 95 262 118 214 q 60 363 72 310 q 49 469 49 415 q 89 661 49 572 q 200 815 129 750 q 348 906 263 874 q 547 939 433 939 l 744 939 q 847 931 799 939 q 936 908 894 924 q 967 945 960 936 q 976 960 974 954 l 1168 960 q 1164 951 1167 956 q 1151 933 1161 946 q 1122 898 1142 921 q 1067 836 1101 875 q 1243 469 1243 676 q 1211 296 1243 376 q 1122 153 1179 215 q 964 41 1057 82 q 744 0 871 0 l 547 0 m 547 700 q 442 683 483 700 q 369 636 400 665 q 319 560 338 604 q 300 468 300 517 q 323 368 300 415 q 386 285 346 321 l 753 700 l 547 700 m 992 468 q 986 519 992 493 q 969 570 981 546 q 942 616 958 594 q 904 651 926 638 l 539 238 l 744 238 q 857 258 811 238 q 933 313 903 278 q 976 384 961 344 q 992 468 992 424 z "},"Ù":{"ha":1207,"x_min":64,"x_max":1143,"o":"m 64 0 m 393 0 q 242 17 304 0 q 140 72 179 35 q 82 165 100 108 q 64 300 64 221 l 64 939 l 317 939 l 317 328 q 407 240 317 240 l 797 240 q 890 328 890 240 l 890 939 l 1143 939 l 1143 300 q 1067 72 1143 143 q 814 0 990 0 l 393 0 m 583 1317 l 749 1000 l 539 1000 l 319 1317 l 583 1317 z "},"Ú":{"ha":1207,"x_min":64,"x_max":1143,"o":"m 64 0 m 393 0 q 242 17 304 0 q 140 72 179 35 q 82 165 100 108 q 64 300 64 221 l 64 939 l 317 939 l 317 328 q 407 240 317 240 l 797 240 q 890 328 890 240 l 890 939 l 1143 939 l 1143 300 q 1067 72 1143 143 q 814 0 990 0 l 393 0 m 888 1317 l 668 1000 l 458 1000 l 624 1317 l 888 1317 z "},"Û":{"ha":1207,"x_min":64,"x_max":1143,"o":"m 64 0 m 393 0 q 242 17 304 0 q 140 72 179 35 q 82 165 100 108 q 64 300 64 221 l 64 939 l 317 939 l 317 328 q 407 240 317 240 l 797 240 q 890 328 890 240 l 890 939 l 1143 939 l 1143 300 q 1067 72 1143 143 q 814 0 990 0 l 393 0 m 707 1317 l 949 1000 l 738 1000 l 604 1183 l 471 1000 l 258 1000 l 501 1317 l 707 1317 z "},"Ü":{"ha":1207,"x_min":64,"x_max":1143,"o":"m 64 0 m 393 0 q 242 17 304 0 q 140 72 179 35 q 82 165 100 108 q 64 300 64 221 l 64 939 l 317 939 l 317 328 q 407 240 317 240 l 797 240 q 890 328 890 240 l 890 939 l 1143 939 l 1143 300 q 1067 72 1143 143 q 814 0 990 0 l 393 0 m 926 1058 l 715 1058 l 715 1243 l 926 1243 l 926 1058 m 489 1058 l 279 1058 l 279 1243 l 489 1243 l 489 1058 z "},"Ý":{"ha":1186,"x_min":8,"x_max":1178,"o":"m 8 0 m 32 907 q 16 925 21 918 q 8 939 11 932 l 318 939 q 326 925 321 933 q 340 907 331 917 l 576 650 q 596 640 586 640 q 615 650 606 640 l 850 907 q 874 939 868 925 l 1178 939 q 1169 925 1174 932 q 1153 907 1164 918 l 713 421 l 713 0 l 458 0 l 458 438 l 32 907 m 876 1317 l 657 1000 l 447 1000 l 613 1317 l 876 1317 z "},"Þ":{"ha":1164,"x_min":68,"x_max":1138,"o":"m 68 939 l 321 939 l 321 808 l 757 808 q 916 783 846 808 q 1035 714 986 758 q 1111 608 1085 669 q 1138 474 1138 546 q 1111 338 1138 400 q 1035 232 1085 276 q 915 163 986 188 q 754 138 844 138 l 321 138 l 321 0 l 68 0 l 68 939 m 888 474 q 862 547 888 518 q 768 576 836 576 l 321 576 l 321 369 l 768 369 q 862 399 836 369 q 888 474 888 429 z "},"ß":{"ha":2256,"x_min":36,"x_max":2224,"o":"m 36 0 m 1051 690 l 376 690 q 340 685 353 690 q 318 672 326 681 q 299 624 299 653 q 322 574 299 593 q 342 563 331 567 q 376 560 354 560 l 789 560 q 923 537 868 560 q 1015 475 978 514 q 1074 386 1053 436 q 1096 281 1096 336 q 1077 182 1096 229 q 1026 97 1058 135 q 930 26 988 53 q 789 0 872 0 l 61 0 l 61 240 l 744 240 q 790 247 774 240 q 815 264 806 253 q 831 307 831 282 q 811 357 831 338 q 787 373 801 368 q 744 378 772 378 l 363 378 q 210 401 268 378 q 115 463 153 424 q 57 551 78 501 q 36 658 36 600 q 58 765 36 715 q 117 854 79 815 q 211 916 154 893 q 363 939 268 939 l 1051 939 l 1051 690 m 2179 690 l 1504 690 q 1467 685 1481 690 q 1446 672 1454 681 q 1426 624 1426 653 q 1450 574 1426 593 q 1470 563 1458 567 q 1504 560 1482 560 l 1917 560 q 2051 537 1996 560 q 2143 475 2106 514 q 2202 386 2181 436 q 2224 281 2224 336 q 2205 182 2224 229 q 2154 97 2186 135 q 2058 26 2115 53 q 1917 0 2000 0 l 1189 0 l 1189 240 l 1872 240 q 1917 247 1901 240 q 1943 264 1933 253 q 1958 307 1958 282 q 1939 357 1958 338 q 1915 373 1929 368 q 1872 378 1900 378 l 1490 378 q 1338 401 1396 378 q 1243 463 1281 424 q 1185 551 1206 501 q 1164 658 1164 600 q 1185 765 1164 715 q 1244 854 1207 815 q 1339 916 1282 893 q 1490 939 1396 939 l 2179 939 l 2179 690 z "},"à":{"ha":1304,"x_min":26,"x_max":1275,"o":"m 26 0 m 1260 42 q 1269 21 1265 31 q 1275 0 1272 11 l 992 0 q 986 17 989 10 q 981 32 983 25 l 931 146 l 375 146 l 326 33 q 321 17 324 25 q 317 0 318 8 l 26 0 q 33 21 29 11 q 42 42 36 31 l 378 786 q 483 917 418 874 q 650 960 549 960 q 815 917 749 960 q 921 786 881 874 l 1260 42 m 839 353 l 694 689 q 676 711 688 704 q 651 718 665 718 q 628 712 639 718 q 610 689 617 706 l 467 353 l 839 353 m 632 1317 l 797 1000 l 588 1000 l 368 1317 l 632 1317 z "},"á":{"ha":1304,"x_min":26,"x_max":1275,"o":"m 26 0 m 1260 42 q 1269 21 1265 31 q 1275 0 1272 11 l 992 0 q 986 17 989 10 q 981 32 983 25 l 931 146 l 375 146 l 326 33 q 321 17 324 25 q 317 0 318 8 l 26 0 q 33 21 29 11 q 42 42 36 31 l 378 786 q 483 917 418 874 q 650 960 549 960 q 815 917 749 960 q 921 786 881 874 l 1260 42 m 839 353 l 694 689 q 676 711 688 704 q 651 718 665 718 q 628 712 639 718 q 610 689 617 706 l 467 353 l 839 353 m 936 1317 l 717 1000 l 507 1000 l 672 1317 l 936 1317 z "},"â":{"ha":1304,"x_min":26,"x_max":1275,"o":"m 26 0 m 1260 42 q 1269 21 1265 31 q 1275 0 1272 11 l 992 0 q 986 17 989 10 q 981 32 983 25 l 931 146 l 375 146 l 326 33 q 321 17 324 25 q 317 0 318 8 l 26 0 q 33 21 29 11 q 42 42 36 31 l 378 786 q 483 917 418 874 q 650 960 549 960 q 815 917 749 960 q 921 786 881 874 l 1260 42 m 839 353 l 694 689 q 676 711 688 704 q 651 718 665 718 q 628 712 639 718 q 610 689 617 706 l 467 353 l 839 353 m 756 1317 l 997 1000 l 786 1000 l 653 1183 l 519 1000 l 307 1000 l 550 1317 l 756 1317 z "},"ã":{"ha":1304,"x_min":26,"x_max":1275,"o":"m 26 0 m 1260 42 q 1269 21 1265 31 q 1275 0 1272 11 l 992 0 q 986 17 989 10 q 981 32 983 25 l 931 146 l 375 146 l 326 33 q 321 17 324 25 q 317 0 318 8 l 26 0 q 33 21 29 11 q 42 42 36 31 l 378 786 q 483 917 418 874 q 650 960 549 960 q 815 917 749 960 q 921 786 881 874 l 1260 42 m 839 353 l 694 689 q 676 711 688 704 q 651 718 665 718 q 628 712 639 718 q 610 689 617 706 l 467 353 l 839 353 m 1010 1064 l 294 1064 l 294 1238 l 1010 1238 l 1010 1064 z "},"ä":{"ha":1304,"x_min":26,"x_max":1275,"o":"m 26 0 m 1260 42 q 1269 21 1265 31 q 1275 0 1272 11 l 992 0 q 986 17 989 10 q 981 32 983 25 l 931 146 l 375 146 l 326 33 q 321 17 324 25 q 317 0 318 8 l 26 0 q 33 21 29 11 q 42 42 36 31 l 378 786 q 483 917 418 874 q 650 960 549 960 q 815 917 749 960 q 921 786 881 874 l 1260 42 m 839 353 l 694 689 q 676 711 688 704 q 651 718 665 718 q 628 712 639 718 q 610 689 617 706 l 467 353 l 839 353 m 975 1058 l 764 1058 l 764 1243 l 975 1243 l 975 1058 m 538 1058 l 328 1058 l 328 1243 l 538 1243 l 538 1058 z "},"å":{"ha":1304,"x_min":26,"x_max":1275,"o":"m 26 0 m 1260 42 q 1269 21 1265 31 q 1275 0 1272 11 l 992 0 q 986 17 989 10 q 981 32 983 25 l 931 146 l 375 146 l 326 33 q 321 17 324 25 q 317 0 318 8 l 26 0 q 33 21 29 11 q 42 42 36 31 l 378 786 q 483 917 418 874 q 650 960 549 960 q 815 917 749 960 q 921 786 881 874 l 1260 42 m 839 353 l 694 689 q 676 711 688 704 q 651 718 665 718 q 628 712 639 718 q 610 689 617 706 l 467 353 l 839 353 m 590 965 q 508 981 543 965 q 450 1022 474 996 q 404 1140 404 1071 q 419 1213 404 1179 q 461 1271 435 1247 q 517 1304 485 1292 q 590 1317 549 1317 l 711 1317 q 785 1304 754 1317 q 840 1271 817 1292 q 883 1213 868 1247 q 899 1140 899 1179 q 886 1076 899 1106 q 853 1022 874 1046 q 794 981 829 996 q 711 965 760 965 l 590 965 m 593 1213 q 559 1207 572 1213 q 535 1192 546 1201 q 514 1140 514 1172 q 532 1093 514 1111 q 593 1069 551 1069 l 710 1069 q 769 1093 751 1069 q 789 1140 789 1113 q 767 1192 789 1172 q 742 1207 756 1201 q 710 1213 729 1213 l 593 1213 z "},"æ":{"ha":1822,"x_min":26,"x_max":1772,"o":"m 26 0 m 1772 690 l 1071 690 l 1071 560 l 1768 560 l 1768 379 l 1071 379 l 1071 265 q 1093 240 1071 240 l 1772 240 l 1772 0 l 951 0 q 819 131 819 0 l 819 146 l 375 146 l 326 33 q 322 17 324 25 q 317 0 319 8 l 26 0 q 33 21 29 11 q 42 42 36 31 l 371 765 q 474 897 411 854 q 642 939 538 939 l 1772 939 l 1772 690 m 819 353 l 819 690 l 647 690 q 615 683 624 690 q 599 658 606 675 l 467 353 l 819 353 z "},"ç":{"ha":1088,"x_min":49,"x_max":1039,"o":"m 49 0 m 1039 0 l 547 0 q 328 41 421 0 q 169 153 235 82 q 81 296 113 215 q 49 469 49 376 q 89 661 49 572 q 200 815 129 750 q 348 906 263 874 q 547 939 433 939 l 1039 939 l 1039 690 l 547 690 q 442 674 483 690 q 369 629 400 657 q 319 557 338 599 q 300 468 300 515 q 315 387 300 425 q 358 319 331 349 q 435 267 389 286 q 547 247 481 247 l 1039 247 l 1039 0 m 750 -69 l 568 -350 l 369 -350 l 504 -69 l 750 -69 z "},"è":{"ha":1104,"x_min":68,"x_max":1056,"o":"m 68 0 m 1056 939 l 1056 690 l 342 690 q 319 667 319 690 l 319 560 l 1051 560 l 1051 379 l 319 379 l 319 265 q 342 240 319 240 l 1056 240 l 1056 0 l 200 0 q 68 131 68 0 l 68 813 q 201 939 68 939 l 1056 939 m 560 1317 l 725 1000 l 515 1000 l 296 1317 l 560 1317 z "},"é":{"ha":1104,"x_min":68,"x_max":1056,"o":"m 68 0 m 1056 939 l 1056 690 l 342 690 q 319 667 319 690 l 319 560 l 1051 560 l 1051 379 l 319 379 l 319 265 q 342 240 319 240 l 1056 240 l 1056 0 l 200 0 q 68 131 68 0 l 68 813 q 201 939 68 939 l 1056 939 m 864 1317 l 644 1000 l 435 1000 l 600 1317 l 864 1317 z "},"ê":{"ha":1104,"x_min":68,"x_max":1056,"o":"m 68 0 m 1056 939 l 1056 690 l 342 690 q 319 667 319 690 l 319 560 l 1051 560 l 1051 379 l 319 379 l 319 265 q 342 240 319 240 l 1056 240 l 1056 0 l 200 0 q 68 131 68 0 l 68 813 q 201 939 68 939 l 1056 939 m 683 1317 l 925 1000 l 714 1000 l 581 1183 l 447 1000 l 235 1000 l 478 1317 l 683 1317 z "},"ë":{"ha":1104,"x_min":68,"x_max":1056,"o":"m 68 0 m 1056 939 l 1056 690 l 342 690 q 319 667 319 690 l 319 560 l 1051 560 l 1051 379 l 319 379 l 319 265 q 342 240 319 240 l 1056 240 l 1056 0 l 200 0 q 68 131 68 0 l 68 813 q 201 939 68 939 l 1056 939 m 903 1058 l 692 1058 l 692 1243 l 903 1243 l 903 1058 m 465 1058 l 256 1058 l 256 1243 l 465 1243 l 465 1058 z "},"ì":{"ha":481,"x_min":0,"x_max":429,"o":"m 0 0 m 410 939 l 410 0 l 157 0 l 157 939 l 410 939 m 264 1317 l 429 1000 l 219 1000 l 0 1317 l 264 1317 z "},"í":{"ha":482,"x_min":53,"x_max":482,"o":"m 53 0 m 324 939 l 324 0 l 71 0 l 71 939 l 324 939 m 482 1317 l 263 1000 l 53 1000 l 218 1317 l 482 1317 z "},"î":{"ha":690,"x_min":0,"x_max":690,"o":"m 0 0 m 471 939 l 471 0 l 218 0 l 218 939 l 471 939 m 449 1317 l 690 1000 l 479 1000 l 346 1183 l 213 1000 l 0 1000 l 243 1317 l 449 1317 z "},"ï":{"ha":647,"x_min":0,"x_max":647,"o":"m 0 0 m 450 939 l 450 0 l 197 0 l 197 939 l 450 939 m 647 1058 l 436 1058 l 436 1243 l 647 1243 l 647 1058 m 210 1058 l 0 1058 l 0 1243 l 210 1243 l 210 1058 z "},"ð":{"ha":1188,"x_min":69,"x_max":1136,"o":"m 69 0 m 618 939 q 835 903 739 939 q 997 806 931 868 q 1100 657 1064 743 q 1136 469 1136 571 q 1101 282 1136 368 q 1000 133 1067 196 q 837 35 933 71 q 618 0 740 0 l 131 0 q 69 60 69 0 l 69 881 q 131 939 69 939 l 618 939 m 826 311 q 869 383 854 343 q 885 468 885 422 q 870 555 885 514 q 828 626 856 596 q 785 663 808 649 q 733 687 763 678 q 665 699 703 696 q 576 703 626 703 l 339 703 q 321 682 321 703 l 321 556 l 686 556 l 686 383 l 321 383 l 321 254 q 339 233 321 233 l 576 233 q 664 237 626 233 q 731 249 701 240 q 783 274 760 258 q 826 311 806 289 z "},"ñ":{"ha":1304,"x_min":67,"x_max":1235,"o":"m 67 0 m 1235 182 q 1220 91 1235 129 q 1181 28 1206 53 q 1125 -8 1157 4 q 1058 -19 1093 -19 q 953 -2 999 -19 q 875 54 908 15 l 360 650 q 338 663 349 663 q 321 656 328 663 q 314 636 314 649 l 314 0 l 67 0 l 67 740 q 83 842 67 800 q 128 910 99 883 q 197 948 157 936 q 285 960 238 960 q 397 939 351 960 q 488 867 443 918 l 946 318 q 957 309 951 311 q 969 307 963 307 q 989 332 989 307 l 989 939 l 1235 939 l 1235 182 m 1010 1064 l 294 1064 l 294 1238 l 1010 1238 l 1010 1064 z "},"ò":{"ha":1294,"x_min":49,"x_max":1243,"o":"m 49 0 m 547 0 q 328 41 421 0 q 169 153 235 82 q 81 296 113 215 q 49 469 49 376 q 89 661 49 572 q 200 815 129 750 q 348 906 263 874 q 547 939 433 939 l 744 939 q 944 906 858 939 q 1092 815 1029 874 q 1203 661 1163 750 q 1243 469 1243 572 q 1211 296 1243 376 q 1122 153 1179 215 q 964 41 1057 82 q 744 0 871 0 l 547 0 m 547 690 q 442 674 483 690 q 369 629 400 657 q 319 557 338 599 q 300 468 300 515 q 315 387 300 425 q 358 319 331 349 q 435 267 389 286 q 547 247 481 247 l 744 247 q 857 267 811 247 q 933 319 903 286 q 976 387 961 349 q 992 468 992 425 q 973 557 992 515 q 922 629 954 599 q 850 674 892 657 q 744 690 808 690 l 547 690 m 626 1317 l 792 1000 l 582 1000 l 363 1317 l 626 1317 z "},"ó":{"ha":1294,"x_min":49,"x_max":1243,"o":"m 49 0 m 547 0 q 328 41 421 0 q 169 153 235 82 q 81 296 113 215 q 49 469 49 376 q 89 661 49 572 q 200 815 129 750 q 348 906 263 874 q 547 939 433 939 l 744 939 q 944 906 858 939 q 1092 815 1029 874 q 1203 661 1163 750 q 1243 469 1243 572 q 1211 296 1243 376 q 1122 153 1179 215 q 964 41 1057 82 q 744 0 871 0 l 547 0 m 547 690 q 442 674 483 690 q 369 629 400 657 q 319 557 338 599 q 300 468 300 515 q 315 387 300 425 q 358 319 331 349 q 435 267 389 286 q 547 247 481 247 l 744 247 q 857 267 811 247 q 933 319 903 286 q 976 387 961 349 q 992 468 992 425 q 973 557 992 515 q 922 629 954 599 q 850 674 892 657 q 744 690 808 690 l 547 690 m 931 1317 l 711 1000 l 501 1000 l 667 1317 l 931 1317 z "},"ô":{"ha":1294,"x_min":49,"x_max":1243,"o":"m 49 0 m 547 0 q 328 41 421 0 q 169 153 235 82 q 81 296 113 215 q 49 469 49 376 q 89 661 49 572 q 200 815 129 750 q 348 906 263 874 q 547 939 433 939 l 744 939 q 944 906 858 939 q 1092 815 1029 874 q 1203 661 1163 750 q 1243 469 1243 572 q 1211 296 1243 376 q 1122 153 1179 215 q 964 41 1057 82 q 744 0 871 0 l 547 0 m 547 690 q 442 674 483 690 q 369 629 400 657 q 319 557 338 599 q 300 468 300 515 q 315 387 300 425 q 358 319 331 349 q 435 267 389 286 q 547 247 481 247 l 744 247 q 857 267 811 247 q 933 319 903 286 q 976 387 961 349 q 992 468 992 425 q 973 557 992 515 q 922 629 954 599 q 850 674 892 657 q 744 690 808 690 l 547 690 m 750 1317 l 992 1000 l 781 1000 l 647 1183 l 514 1000 l 301 1000 l 544 1317 l 750 1317 z "},"õ":{"ha":1294,"x_min":49,"x_max":1243,"o":"m 49 0 m 547 0 q 328 41 421 0 q 169 153 235 82 q 81 296 113 215 q 49 469 49 376 q 89 661 49 572 q 200 815 129 750 q 348 906 263 874 q 547 939 433 939 l 744 939 q 944 906 858 939 q 1092 815 1029 874 q 1203 661 1163 750 q 1243 469 1243 572 q 1211 296 1243 376 q 1122 153 1179 215 q 964 41 1057 82 q 744 0 871 0 l 547 0 m 547 690 q 442 674 483 690 q 369 629 400 657 q 319 557 338 599 q 300 468 300 515 q 315 387 300 425 q 358 319 331 349 q 435 267 389 286 q 547 247 481 247 l 744 247 q 857 267 811 247 q 933 319 903 286 q 976 387 961 349 q 992 468 992 425 q 973 557 992 515 q 922 629 954 599 q 850 674 892 657 q 744 690 808 690 l 547 690 m 1004 1064 l 289 1064 l 289 1238 l 1004 1238 l 1004 1064 z "},"ö":{"ha":1294,"x_min":49,"x_max":1243,"o":"m 49 0 m 547 0 q 328 41 421 0 q 169 153 235 82 q 81 296 113 215 q 49 469 49 376 q 89 661 49 572 q 200 815 129 750 q 348 906 263 874 q 547 939 433 939 l 744 939 q 944 906 858 939 q 1092 815 1029 874 q 1203 661 1163 750 q 1243 469 1243 572 q 1211 296 1243 376 q 1122 153 1179 215 q 964 41 1057 82 q 744 0 871 0 l 547 0 m 547 690 q 442 674 483 690 q 369 629 400 657 q 319 557 338 599 q 300 468 300 515 q 315 387 300 425 q 358 319 331 349 q 435 267 389 286 q 547 247 481 247 l 744 247 q 857 267 811 247 q 933 319 903 286 q 976 387 961 349 q 992 468 992 425 q 973 557 992 515 q 922 629 954 599 q 850 674 892 657 q 744 690 808 690 l 547 690 m 971 1058 l 760 1058 l 760 1243 l 971 1243 l 971 1058 m 533 1058 l 324 1058 l 324 1243 l 533 1243 l 533 1058 z "},"÷":{"ha":878,"x_min":68,"x_max":807,"o":"m 68 0 m 807 382 l 68 382 l 68 567 l 807 567 l 807 382 m 565 939 l 565 694 l 313 694 l 313 939 l 565 939 m 565 244 l 565 0 l 313 0 l 313 244 l 565 244 z "},"ø":{"ha":1294,"x_min":49,"x_max":1243,"o":"m 49 0 m 547 0 q 357 29 440 0 q 326 -7 332 1 q 317 -19 319 -15 l 124 -19 q 128 -10 125 -15 q 141 6 131 -6 q 171 40 151 18 q 225 101 190 63 q 151 173 183 132 q 95 262 118 214 q 60 363 72 310 q 49 469 49 415 q 89 661 49 572 q 200 815 129 750 q 348 906 263 874 q 547 939 433 939 l 744 939 q 847 931 799 939 q 936 908 894 924 q 967 945 960 936 q 976 960 974 954 l 1168 960 q 1164 951 1167 956 q 1151 933 1161 946 q 1122 898 1142 921 q 1067 836 1101 875 q 1243 469 1243 676 q 1211 296 1243 376 q 1122 153 1179 215 q 964 41 1057 82 q 744 0 871 0 l 547 0 m 547 700 q 442 683 483 700 q 369 636 400 665 q 319 560 338 604 q 300 468 300 517 q 323 368 300 415 q 386 285 346 321 l 753 700 l 547 700 m 992 468 q 986 519 992 493 q 969 570 981 546 q 942 616 958 594 q 904 651 926 638 l 539 238 l 744 238 q 857 258 811 238 q 933 313 903 278 q 976 384 961 344 q 992 468 992 424 z "},"ù":{"ha":1207,"x_min":64,"x_max":1143,"o":"m 64 0 m 393 0 q 242 17 304 0 q 140 72 179 35 q 82 165 100 108 q 64 300 64 221 l 64 939 l 317 939 l 317 328 q 407 240 317 240 l 797 240 q 890 328 890 240 l 890 939 l 1143 939 l 1143 300 q 1067 72 1143 143 q 814 0 990 0 l 393 0 m 583 1317 l 749 1000 l 539 1000 l 319 1317 l 583 1317 z "},"ú":{"ha":1207,"x_min":64,"x_max":1143,"o":"m 64 0 m 393 0 q 242 17 304 0 q 140 72 179 35 q 82 165 100 108 q 64 300 64 221 l 64 939 l 317 939 l 317 328 q 407 240 317 240 l 797 240 q 890 328 890 240 l 890 939 l 1143 939 l 1143 300 q 1067 72 1143 143 q 814 0 990 0 l 393 0 m 888 1317 l 668 1000 l 458 1000 l 624 1317 l 888 1317 z "},"û":{"ha":1207,"x_min":64,"x_max":1143,"o":"m 64 0 m 393 0 q 242 17 304 0 q 140 72 179 35 q 82 165 100 108 q 64 300 64 221 l 64 939 l 317 939 l 317 328 q 407 240 317 240 l 797 240 q 890 328 890 240 l 890 939 l 1143 939 l 1143 300 q 1067 72 1143 143 q 814 0 990 0 l 393 0 m 707 1317 l 949 1000 l 738 1000 l 604 1183 l 471 1000 l 258 1000 l 501 1317 l 707 1317 z "},"ü":{"ha":1207,"x_min":64,"x_max":1143,"o":"m 64 0 m 393 0 q 242 17 304 0 q 140 72 179 35 q 82 165 100 108 q 64 300 64 221 l 64 939 l 317 939 l 317 328 q 407 240 317 240 l 797 240 q 890 328 890 240 l 890 939 l 1143 939 l 1143 300 q 1067 72 1143 143 q 814 0 990 0 l 393 0 m 926 1058 l 715 1058 l 715 1243 l 926 1243 l 926 1058 m 489 1058 l 279 1058 l 279 1243 l 489 1243 l 489 1058 z "},"ý":{"ha":1186,"x_min":8,"x_max":1178,"o":"m 8 0 m 32 907 q 16 925 21 918 q 8 939 11 932 l 318 939 q 326 925 321 933 q 340 907 331 917 l 576 650 q 596 640 586 640 q 615 650 606 640 l 850 907 q 874 939 868 925 l 1178 939 q 1169 925 1174 932 q 1153 907 1164 918 l 713 421 l 713 0 l 458 0 l 458 438 l 32 907 m 876 1317 l 657 1000 l 447 1000 l 613 1317 l 876 1317 z "},"þ":{"ha":1164,"x_min":68,"x_max":1138,"o":"m 68 0 m 68 939 l 321 939 l 321 808 l 757 808 q 916 783 846 808 q 1035 714 986 758 q 1111 608 1085 669 q 1138 474 1138 546 q 1111 338 1138 400 q 1035 232 1085 276 q 915 163 986 188 q 754 138 844 138 l 321 138 l 321 0 l 68 0 l 68 939 m 888 474 q 862 547 888 518 q 768 576 836 576 l 321 576 l 321 369 l 768 369 q 862 399 836 369 q 888 474 888 429 z "},"ÿ":{"ha":1186,"x_min":8,"x_max":1178,"o":"m 8 0 m 32 907 q 16 925 21 918 q 8 939 11 932 l 318 939 q 326 925 321 933 q 340 907 331 917 l 576 650 q 596 640 586 640 q 615 650 606 640 l 850 907 q 874 939 868 925 l 1178 939 q 1169 925 1174 932 q 1153 907 1164 918 l 713 421 l 713 0 l 458 0 l 458 438 l 32 907 m 917 1058 l 706 1058 l 706 1243 l 917 1243 l 917 1058 m 479 1058 l 269 1058 l 269 1243 l 479 1243 l 479 1058 z "},"Ā":{"ha":1304,"x_min":26,"x_max":1275,"o":"m 26 0 m 1260 42 q 1269 21 1265 31 q 1275 0 1272 11 l 992 0 q 986 17 989 10 q 981 32 983 25 l 931 146 l 375 146 l 326 33 q 321 17 324 25 q 317 0 318 8 l 26 0 q 33 21 29 11 q 42 42 36 31 l 378 786 q 483 917 418 874 q 650 960 549 960 q 815 917 749 960 q 921 786 881 874 l 1260 42 m 839 353 l 694 689 q 676 711 688 704 q 651 718 665 718 q 628 712 639 718 q 610 689 617 706 l 467 353 l 839 353 m 1010 1064 l 294 1064 l 294 1238 l 1010 1238 l 1010 1064 z "},"ā":{"ha":1304,"x_min":26,"x_max":1275,"o":"m 26 0 m 1260 42 q 1269 21 1265 31 q 1275 0 1272 11 l 992 0 q 986 17 989 10 q 981 32 983 25 l 931 146 l 375 146 l 326 33 q 321 17 324 25 q 317 0 318 8 l 26 0 q 33 21 29 11 q 42 42 36 31 l 378 786 q 483 917 418 874 q 650 960 549 960 q 815 917 749 960 q 921 786 881 874 l 1260 42 m 839 353 l 694 689 q 676 711 688 704 q 651 718 665 718 q 628 712 639 718 q 610 689 617 706 l 467 353 l 839 353 m 1010 1064 l 294 1064 l 294 1238 l 1010 1238 l 1010 1064 z "},"Ă":{"ha":1304,"x_min":26,"x_max":1275,"o":"m 26 0 m 1260 42 q 1269 21 1265 31 q 1275 0 1272 11 l 992 0 q 986 17 989 10 q 981 32 983 25 l 931 146 l 375 146 l 326 33 q 321 17 324 25 q 317 0 318 8 l 26 0 q 33 21 29 11 q 42 42 36 31 l 378 786 q 483 917 418 874 q 650 960 549 960 q 815 917 749 960 q 921 786 881 874 l 1260 42 m 839 353 l 694 689 q 676 711 688 704 q 651 718 665 718 q 628 712 639 718 q 610 689 617 706 l 467 353 l 839 353 m 610 1000 q 486 1023 538 1000 q 403 1088 435 1046 q 356 1188 371 1129 q 339 1317 340 1246 l 510 1317 q 544 1174 510 1218 q 636 1131 578 1131 l 667 1131 q 759 1174 724 1131 q 794 1317 794 1218 l 964 1317 q 949 1192 964 1250 q 903 1091 935 1133 q 819 1024 871 1049 q 692 1000 767 1000 l 610 1000 z "},"ă":{"ha":1304,"x_min":26,"x_max":1275,"o":"m 26 0 m 1260 42 q 1269 21 1265 31 q 1275 0 1272 11 l 992 0 q 986 17 989 10 q 981 32 983 25 l 931 146 l 375 146 l 326 33 q 321 17 324 25 q 317 0 318 8 l 26 0 q 33 21 29 11 q 42 42 36 31 l 378 786 q 483 917 418 874 q 650 960 549 960 q 815 917 749 960 q 921 786 881 874 l 1260 42 m 839 353 l 694 689 q 676 711 688 704 q 651 718 665 718 q 628 712 639 718 q 610 689 617 706 l 467 353 l 839 353 m 610 1000 q 486 1023 538 1000 q 403 1088 435 1046 q 356 1188 371 1129 q 339 1317 340 1246 l 510 1317 q 544 1174 510 1218 q 636 1131 578 1131 l 667 1131 q 759 1174 724 1131 q 794 1317 794 1218 l 964 1317 q 949 1192 964 1250 q 903 1091 935 1133 q 819 1024 871 1049 q 692 1000 767 1000 l 610 1000 z "},"Ą":{"ha":1304,"x_min":26,"x_max":1304,"o":"m 26 0 m 1260 42 q 1269 21 1265 31 q 1275 0 1272 11 l 992 0 q 986 17 989 10 q 981 32 983 25 l 931 146 l 375 146 l 326 33 q 321 17 324 25 q 317 0 318 8 l 26 0 q 33 21 29 11 q 42 42 36 31 l 378 786 q 483 917 418 874 q 650 960 549 960 q 815 917 749 960 q 921 786 881 874 l 1260 42 m 839 353 l 694 689 q 676 711 688 704 q 651 718 665 718 q 628 712 639 718 q 610 689 617 706 l 467 353 l 839 353 m 1113 -350 q 1013 -336 1053 -350 q 950 -297 974 -322 q 914 -238 926 -272 q 896 -164 901 -204 l 1093 -19 l 1093 -85 q 1104 -120 1093 -108 q 1147 -132 1115 -132 l 1304 -132 l 1304 -350 l 1113 -350 z "},"ą":{"ha":1304,"x_min":26,"x_max":1304,"o":"m 26 0 m 1260 42 q 1269 21 1265 31 q 1275 0 1272 11 l 992 0 q 986 17 989 10 q 981 32 983 25 l 931 146 l 375 146 l 326 33 q 321 17 324 25 q 317 0 318 8 l 26 0 q 33 21 29 11 q 42 42 36 31 l 378 786 q 483 917 418 874 q 650 960 549 960 q 815 917 749 960 q 921 786 881 874 l 1260 42 m 839 353 l 694 689 q 676 711 688 704 q 651 718 665 718 q 628 712 639 718 q 610 689 617 706 l 467 353 l 839 353 m 1113 -350 q 1013 -336 1053 -350 q 950 -297 974 -322 q 914 -238 926 -272 q 896 -164 901 -204 l 1093 -19 l 1093 -85 q 1104 -120 1093 -108 q 1147 -132 1115 -132 l 1304 -132 l 1304 -350 l 1113 -350 z "},"Ć":{"ha":1088,"x_min":49,"x_max":1039,"o":"m 49 0 m 1039 0 l 547 0 q 328 41 421 0 q 169 153 235 82 q 81 296 113 215 q 49 469 49 376 q 89 661 49 572 q 200 815 129 750 q 348 906 263 874 q 547 939 433 939 l 1039 939 l 1039 690 l 547 690 q 442 674 483 690 q 369 629 400 657 q 319 557 338 599 q 300 468 300 515 q 315 387 300 425 q 358 319 331 349 q 435 267 389 286 q 547 247 481 247 l 1039 247 l 1039 0 m 939 1317 l 719 1000 l 510 1000 l 675 1317 l 939 1317 z "},"ć":{"ha":1088,"x_min":49,"x_max":1039,"o":"m 49 0 m 1039 0 l 547 0 q 328 41 421 0 q 169 153 235 82 q 81 296 113 215 q 49 469 49 376 q 89 661 49 572 q 200 815 129 750 q 348 906 263 874 q 547 939 433 939 l 1039 939 l 1039 690 l 547 690 q 442 674 483 690 q 369 629 400 657 q 319 557 338 599 q 300 468 300 515 q 315 387 300 425 q 358 319 331 349 q 435 267 389 286 q 547 247 481 247 l 1039 247 l 1039 0 m 939 1317 l 719 1000 l 510 1000 l 675 1317 l 939 1317 z "},"Ċ":{"ha":1088,"x_min":49,"x_max":1039,"o":"m 49 0 m 1039 0 l 547 0 q 328 41 421 0 q 169 153 235 82 q 81 296 113 215 q 49 469 49 376 q 89 661 49 572 q 200 815 129 750 q 348 906 263 874 q 547 939 433 939 l 1039 939 l 1039 690 l 547 690 q 442 674 483 690 q 369 629 400 657 q 319 557 338 599 q 300 468 300 515 q 315 387 300 425 q 358 319 331 349 q 435 267 389 286 q 547 247 481 247 l 1039 247 l 1039 0 m 760 1058 l 550 1058 l 550 1243 l 760 1243 l 760 1058 z "},"ċ":{"ha":1088,"x_min":49,"x_max":1039,"o":"m 49 0 m 1039 0 l 547 0 q 328 41 421 0 q 169 153 235 82 q 81 296 113 215 q 49 469 49 376 q 89 661 49 572 q 200 815 129 750 q 348 906 263 874 q 547 939 433 939 l 1039 939 l 1039 690 l 547 690 q 442 674 483 690 q 369 629 400 657 q 319 557 338 599 q 300 468 300 515 q 315 387 300 425 q 358 319 331 349 q 435 267 389 286 q 547 247 481 247 l 1039 247 l 1039 0 m 760 1058 l 550 1058 l 550 1243 l 760 1243 l 760 1058 z "},"Č":{"ha":1088,"x_min":49,"x_max":1039,"o":"m 49 0 m 1039 0 l 547 0 q 328 41 421 0 q 169 153 235 82 q 81 296 113 215 q 49 469 49 376 q 89 661 49 572 q 200 815 129 750 q 348 906 263 874 q 547 939 433 939 l 1039 939 l 1039 690 l 547 690 q 442 674 483 690 q 369 629 400 657 q 319 557 338 599 q 300 468 300 515 q 315 387 300 425 q 358 319 331 349 q 435 267 389 286 q 547 247 481 247 l 1039 247 l 1039 0 m 553 1000 l 310 1317 l 522 1317 l 656 1131 l 789 1317 l 1000 1317 l 758 1000 l 553 1000 z "},"č":{"ha":1088,"x_min":49,"x_max":1039,"o":"m 49 0 m 1039 0 l 547 0 q 328 41 421 0 q 169 153 235 82 q 81 296 113 215 q 49 469 49 376 q 89 661 49 572 q 200 815 129 750 q 348 906 263 874 q 547 939 433 939 l 1039 939 l 1039 690 l 547 690 q 442 674 483 690 q 369 629 400 657 q 319 557 338 599 q 300 468 300 515 q 315 387 300 425 q 358 319 331 349 q 435 267 389 286 q 547 247 481 247 l 1039 247 l 1039 0 m 553 1000 l 310 1317 l 522 1317 l 656 1131 l 789 1317 l 1000 1317 l 758 1000 l 553 1000 z "},"Ď":{"ha":1188,"x_min":69,"x_max":1136,"o":"m 69 0 m 638 939 q 837 906 751 939 q 985 815 922 874 q 1096 661 1056 750 q 1136 469 1136 572 q 1104 296 1136 376 q 1015 153 1072 215 q 857 41 950 82 q 638 0 764 0 l 131 0 q 69 60 69 0 l 69 881 q 131 939 69 939 l 638 939 m 339 690 q 321 671 321 690 l 321 267 q 339 247 321 247 l 638 247 q 750 267 704 247 q 826 319 796 286 q 869 387 854 349 q 885 468 885 425 q 866 557 885 515 q 815 629 847 599 q 743 674 785 657 q 638 690 701 690 l 339 690 m 443 1000 l 200 1317 l 413 1317 l 546 1131 l 679 1317 l 890 1317 l 649 1000 l 443 1000 z "},"ď":{"ha":1188,"x_min":69,"x_max":1136,"o":"m 69 0 m 638 939 q 837 906 751 939 q 985 815 922 874 q 1096 661 1056 750 q 1136 469 1136 572 q 1104 296 1136 376 q 1015 153 1072 215 q 857 41 950 82 q 638 0 764 0 l 131 0 q 69 60 69 0 l 69 881 q 131 939 69 939 l 638 939 m 339 690 q 321 671 321 690 l 321 267 q 339 247 321 247 l 638 247 q 750 267 704 247 q 826 319 796 286 q 869 387 854 349 q 885 468 885 425 q 866 557 885 515 q 815 629 847 599 q 743 674 785 657 q 638 690 701 690 l 339 690 m 443 1000 l 200 1317 l 413 1317 l 546 1131 l 679 1317 l 890 1317 l 649 1000 l 443 1000 z "},"Đ":{"ha":1188,"x_min":69,"x_max":1136,"o":"m 69 0 m 618 939 q 835 903 739 939 q 997 806 931 868 q 1100 657 1064 743 q 1136 469 1136 571 q 1101 282 1136 368 q 1000 133 1067 196 q 837 35 933 71 q 618 0 740 0 l 131 0 q 69 60 69 0 l 69 881 q 131 939 69 939 l 618 939 m 826 311 q 869 383 854 343 q 885 468 885 422 q 870 555 885 514 q 828 626 856 596 q 785 663 808 649 q 733 687 763 678 q 665 699 703 696 q 576 703 626 703 l 339 703 q 321 682 321 703 l 321 556 l 686 556 l 686 383 l 321 383 l 321 254 q 339 233 321 233 l 576 233 q 664 237 626 233 q 731 249 701 240 q 783 274 760 258 q 826 311 806 289 z "},"đ":{"ha":1188,"x_min":69,"x_max":1136,"o":"m 69 0 m 618 939 q 835 903 739 939 q 997 806 931 868 q 1100 657 1064 743 q 1136 469 1136 571 q 1101 282 1136 368 q 1000 133 1067 196 q 837 35 933 71 q 618 0 740 0 l 131 0 q 69 60 69 0 l 69 881 q 131 939 69 939 l 618 939 m 826 311 q 869 383 854 343 q 885 468 885 422 q 870 555 885 514 q 828 626 856 596 q 785 663 808 649 q 733 687 763 678 q 665 699 703 696 q 576 703 626 703 l 339 703 q 321 682 321 703 l 321 556 l 686 556 l 686 383 l 321 383 l 321 254 q 339 233 321 233 l 576 233 q 664 237 626 233 q 731 249 701 240 q 783 274 760 258 q 826 311 806 289 z "},"Ē":{"ha":1104,"x_min":68,"x_max":1056,"o":"m 68 0 m 1056 939 l 1056 690 l 342 690 q 319 667 319 690 l 319 560 l 1051 560 l 1051 379 l 319 379 l 319 265 q 342 240 319 240 l 1056 240 l 1056 0 l 200 0 q 68 131 68 0 l 68 813 q 201 939 68 939 l 1056 939 m 938 1064 l 222 1064 l 222 1238 l 938 1238 l 938 1064 z "},"ē":{"ha":1104,"x_min":68,"x_max":1056,"o":"m 68 0 m 1056 939 l 1056 690 l 342 690 q 319 667 319 690 l 319 560 l 1051 560 l 1051 379 l 319 379 l 319 265 q 342 240 319 240 l 1056 240 l 1056 0 l 200 0 q 68 131 68 0 l 68 813 q 201 939 68 939 l 1056 939 m 938 1064 l 222 1064 l 222 1238 l 938 1238 l 938 1064 z "},"Ĕ":{"ha":1104,"x_min":68,"x_max":1056,"o":"m 68 0 m 1056 939 l 1056 690 l 342 690 q 319 667 319 690 l 319 560 l 1051 560 l 1051 379 l 319 379 l 319 265 q 342 240 319 240 l 1056 240 l 1056 0 l 200 0 q 68 131 68 0 l 68 813 q 201 939 68 939 l 1056 939 m 538 1000 q 414 1023 465 1000 q 331 1088 363 1046 q 283 1188 299 1129 q 267 1317 268 1246 l 438 1317 q 472 1174 438 1218 q 564 1131 506 1131 l 594 1131 q 687 1174 651 1131 q 722 1317 722 1218 l 892 1317 q 877 1192 892 1250 q 831 1091 863 1133 q 747 1024 799 1049 q 619 1000 694 1000 l 538 1000 z "},"ĕ":{"ha":1104,"x_min":68,"x_max":1056,"o":"m 68 0 m 1056 939 l 1056 690 l 342 690 q 319 667 319 690 l 319 560 l 1051 560 l 1051 379 l 319 379 l 319 265 q 342 240 319 240 l 1056 240 l 1056 0 l 200 0 q 68 131 68 0 l 68 813 q 201 939 68 939 l 1056 939 m 538 1000 q 414 1023 465 1000 q 331 1088 363 1046 q 283 1188 299 1129 q 267 1317 268 1246 l 438 1317 q 472 1174 438 1218 q 564 1131 506 1131 l 594 1131 q 687 1174 651 1131 q 722 1317 722 1218 l 892 1317 q 877 1192 892 1250 q 831 1091 863 1133 q 747 1024 799 1049 q 619 1000 694 1000 l 538 1000 z "},"Ė":{"ha":1104,"x_min":68,"x_max":1056,"o":"m 68 0 m 1056 939 l 1056 690 l 342 690 q 319 667 319 690 l 319 560 l 1051 560 l 1051 379 l 319 379 l 319 265 q 342 240 319 240 l 1056 240 l 1056 0 l 200 0 q 68 131 68 0 l 68 813 q 201 939 68 939 l 1056 939 m 685 1058 l 475 1058 l 475 1243 l 685 1243 l 685 1058 z "},"ė":{"ha":1104,"x_min":68,"x_max":1056,"o":"m 68 0 m 1056 939 l 1056 690 l 342 690 q 319 667 319 690 l 319 560 l 1051 560 l 1051 379 l 319 379 l 319 265 q 342 240 319 240 l 1056 240 l 1056 0 l 200 0 q 68 131 68 0 l 68 813 q 201 939 68 939 l 1056 939 m 685 1058 l 475 1058 l 475 1243 l 685 1243 l 685 1058 z "},"Ę":{"ha":1104,"x_min":68,"x_max":1106,"o":"m 68 0 m 1056 939 l 1056 690 l 342 690 q 319 667 319 690 l 319 560 l 1051 560 l 1051 379 l 319 379 l 319 265 q 342 240 319 240 l 1056 240 l 1056 0 l 200 0 q 68 131 68 0 l 68 813 q 201 939 68 939 l 1056 939 m 914 -350 q 815 -336 854 -350 q 751 -297 775 -322 q 715 -238 728 -272 q 697 -164 703 -204 l 894 -19 l 894 -85 q 906 -120 894 -108 q 949 -132 917 -132 l 1106 -132 l 1106 -350 l 914 -350 z "},"ę":{"ha":1104,"x_min":68,"x_max":1106,"o":"m 68 0 m 1056 939 l 1056 690 l 342 690 q 319 667 319 690 l 319 560 l 1051 560 l 1051 379 l 319 379 l 319 265 q 342 240 319 240 l 1056 240 l 1056 0 l 200 0 q 68 131 68 0 l 68 813 q 201 939 68 939 l 1056 939 m 914 -350 q 815 -336 854 -350 q 751 -297 775 -322 q 715 -238 728 -272 q 697 -164 703 -204 l 894 -19 l 894 -85 q 906 -120 894 -108 q 949 -132 917 -132 l 1106 -132 l 1106 -350 l 914 -350 z "},"Ě":{"ha":1104,"x_min":68,"x_max":1056,"o":"m 68 0 m 1056 939 l 1056 690 l 342 690 q 319 667 319 690 l 319 560 l 1051 560 l 1051 379 l 319 379 l 319 265 q 342 240 319 240 l 1056 240 l 1056 0 l 200 0 q 68 131 68 0 l 68 813 q 201 939 68 939 l 1056 939 m 478 1000 l 235 1317 l 447 1317 l 581 1131 l 714 1317 l 925 1317 l 683 1000 l 478 1000 z "},"ě":{"ha":1104,"x_min":68,"x_max":1056,"o":"m 68 0 m 1056 939 l 1056 690 l 342 690 q 319 667 319 690 l 319 560 l 1051 560 l 1051 379 l 319 379 l 319 265 q 342 240 319 240 l 1056 240 l 1056 0 l 200 0 q 68 131 68 0 l 68 813 q 201 939 68 939 l 1056 939 m 478 1000 l 235 1317 l 447 1317 l 581 1131 l 714 1317 l 925 1317 l 683 1000 l 478 1000 z "},"Ğ":{"ha":1121,"x_min":49,"x_max":1056,"o":"m 49 0 m 547 0 q 328 41 421 0 q 169 153 235 82 q 81 296 113 215 q 49 469 49 376 q 89 661 49 572 q 200 815 129 750 q 348 906 263 874 q 547 939 433 939 l 1054 939 l 1054 690 l 547 690 q 442 674 483 690 q 369 629 400 657 q 319 557 338 599 q 300 468 300 515 q 315 387 300 425 q 358 319 331 349 q 435 265 389 286 q 547 243 481 243 l 788 243 q 806 263 806 243 l 806 514 l 1056 514 l 1056 60 q 996 0 1056 0 l 547 0 m 601 1000 q 478 1023 529 1000 q 394 1088 426 1046 q 347 1188 363 1129 q 331 1317 332 1246 l 501 1317 q 535 1174 501 1218 q 628 1131 569 1131 l 658 1131 q 751 1174 715 1131 q 786 1317 786 1218 l 956 1317 q 941 1192 956 1250 q 894 1091 926 1133 q 810 1024 863 1049 q 683 1000 758 1000 l 601 1000 z "},"ğ":{"ha":1121,"x_min":49,"x_max":1056,"o":"m 49 0 m 547 0 q 328 41 421 0 q 169 153 235 82 q 81 296 113 215 q 49 469 49 376 q 89 661 49 572 q 200 815 129 750 q 348 906 263 874 q 547 939 433 939 l 1054 939 l 1054 690 l 547 690 q 442 674 483 690 q 369 629 400 657 q 319 557 338 599 q 300 468 300 515 q 315 387 300 425 q 358 319 331 349 q 435 265 389 286 q 547 243 481 243 l 788 243 q 806 263 806 243 l 806 514 l 1056 514 l 1056 60 q 996 0 1056 0 l 547 0 m 601 1000 q 478 1023 529 1000 q 394 1088 426 1046 q 347 1188 363 1129 q 331 1317 332 1246 l 501 1317 q 535 1174 501 1218 q 628 1131 569 1131 l 658 1131 q 751 1174 715 1131 q 786 1317 786 1218 l 956 1317 q 941 1192 956 1250 q 894 1091 926 1133 q 810 1024 863 1049 q 683 1000 758 1000 l 601 1000 z "},"Ġ":{"ha":1121,"x_min":49,"x_max":1056,"o":"m 49 0 m 547 0 q 328 41 421 0 q 169 153 235 82 q 81 296 113 215 q 49 469 49 376 q 89 661 49 572 q 200 815 129 750 q 348 906 263 874 q 547 939 433 939 l 1054 939 l 1054 690 l 547 690 q 442 674 483 690 q 369 629 400 657 q 319 557 338 599 q 300 468 300 515 q 315 387 300 425 q 358 319 331 349 q 435 265 389 286 q 547 243 481 243 l 788 243 q 806 263 806 243 l 806 514 l 1056 514 l 1056 60 q 996 0 1056 0 l 547 0 m 749 1058 l 539 1058 l 539 1243 l 749 1243 l 749 1058 z "},"ġ":{"ha":1121,"x_min":49,"x_max":1056,"o":"m 49 0 m 547 0 q 328 41 421 0 q 169 153 235 82 q 81 296 113 215 q 49 469 49 376 q 89 661 49 572 q 200 815 129 750 q 348 906 263 874 q 547 939 433 939 l 1054 939 l 1054 690 l 547 690 q 442 674 483 690 q 369 629 400 657 q 319 557 338 599 q 300 468 300 515 q 315 387 300 425 q 358 319 331 349 q 435 265 389 286 q 547 243 481 243 l 788 243 q 806 263 806 243 l 806 514 l 1056 514 l 1056 60 q 996 0 1056 0 l 547 0 m 749 1058 l 539 1058 l 539 1243 l 749 1243 l 749 1058 z "},"Ģ":{"ha":1121,"x_min":49,"x_max":1056,"o":"m 49 0 m 547 0 q 328 41 421 0 q 169 153 235 82 q 81 296 113 215 q 49 469 49 376 q 89 661 49 572 q 200 815 129 750 q 348 906 263 874 q 547 939 433 939 l 1054 939 l 1054 690 l 547 690 q 442 674 483 690 q 369 629 400 657 q 319 557 338 599 q 300 468 300 515 q 315 387 300 425 q 358 319 331 349 q 435 265 389 286 q 547 243 481 243 l 788 243 q 806 263 806 243 l 806 514 l 1056 514 l 1056 60 q 996 0 1056 0 l 547 0 m 753 -69 l 571 -350 l 372 -350 l 507 -69 l 753 -69 z "},"ģ":{"ha":1121,"x_min":49,"x_max":1056,"o":"m 49 0 m 547 0 q 328 41 421 0 q 169 153 235 82 q 81 296 113 215 q 49 469 49 376 q 89 661 49 572 q 200 815 129 750 q 348 906 263 874 q 547 939 433 939 l 1054 939 l 1054 690 l 547 690 q 442 674 483 690 q 369 629 400 657 q 319 557 338 599 q 300 468 300 515 q 315 387 300 425 q 358 319 331 349 q 435 265 389 286 q 547 243 481 243 l 788 243 q 806 263 806 243 l 806 514 l 1056 514 l 1056 60 q 996 0 1056 0 l 547 0 m 753 -69 l 571 -350 l 372 -350 l 507 -69 l 753 -69 z "},"Ħ":{"ha":1208,"x_min":0,"x_max":1208,"o":"m 1208 653 l 1136 653 l 1136 0 l 883 0 l 883 307 l 324 307 l 324 0 l 71 0 l 71 653 l 0 653 l 0 826 l 71 826 l 71 939 l 324 939 l 324 826 l 883 826 l 883 939 l 1136 939 l 1136 826 l 1208 826 l 1208 653 m 883 543 l 883 653 l 324 653 l 324 543 l 883 543 z "},"ħ":{"ha":1208,"x_min":0,"x_max":1208,"o":"m 0 0 m 1208 653 l 1136 653 l 1136 0 l 883 0 l 883 307 l 324 307 l 324 0 l 71 0 l 71 653 l 0 653 l 0 826 l 71 826 l 71 939 l 324 939 l 324 826 l 883 826 l 883 939 l 1136 939 l 1136 826 l 1208 826 l 1208 653 m 883 543 l 883 653 l 324 653 l 324 543 l 883 543 z "},"Ī":{"ha":715,"x_min":0,"x_max":715,"o":"m 0 0 m 483 939 l 483 0 l 231 0 l 231 939 l 483 939 m 715 1064 l 0 1064 l 0 1238 l 715 1238 l 715 1064 z "},"ī":{"ha":715,"x_min":0,"x_max":715,"o":"m 0 0 m 483 939 l 483 0 l 231 0 l 231 939 l 483 939 m 715 1064 l 0 1064 l 0 1238 l 715 1238 l 715 1064 z "},"Ĭ":{"ha":625,"x_min":0,"x_max":625,"o":"m 0 0 m 439 939 l 439 0 l 186 0 l 186 939 l 439 939 m 271 1000 q 147 1023 199 1000 q 64 1088 96 1046 q 17 1188 32 1129 q 0 1317 1 1246 l 171 1317 q 205 1174 171 1218 q 297 1131 239 1131 l 328 1131 q 420 1174 385 1131 q 456 1317 456 1218 l 625 1317 q 610 1192 625 1250 q 564 1091 596 1133 q 480 1024 532 1049 q 353 1000 428 1000 l 271 1000 z "},"ĭ":{"ha":625,"x_min":0,"x_max":625,"o":"m 0 0 m 439 939 l 439 0 l 186 0 l 186 939 l 439 939 m 271 1000 q 147 1023 199 1000 q 64 1088 96 1046 q 17 1188 32 1129 q 0 1317 1 1246 l 171 1317 q 205 1174 171 1218 q 297 1131 239 1131 l 328 1131 q 420 1174 385 1131 q 456 1317 456 1218 l 625 1317 q 610 1192 625 1250 q 564 1091 596 1133 q 480 1024 532 1049 q 353 1000 428 1000 l 271 1000 z "},"Į":{"ha":464,"x_min":71,"x_max":529,"o":"m 71 0 m 324 939 l 324 0 l 71 0 l 71 939 l 324 939 m 338 -350 q 238 -336 278 -350 q 175 -297 199 -322 q 139 -238 151 -272 q 121 -164 126 -204 l 318 -19 l 318 -85 q 329 -120 318 -108 q 372 -132 340 -132 l 529 -132 l 529 -350 l 338 -350 z "},"į":{"ha":464,"x_min":71,"x_max":529,"o":"m 71 0 m 324 939 l 324 0 l 71 0 l 71 939 l 324 939 m 338 -350 q 238 -336 278 -350 q 175 -297 199 -322 q 139 -238 151 -272 q 121 -164 126 -204 l 318 -19 l 318 -85 q 329 -120 318 -108 q 372 -132 340 -132 l 529 -132 l 529 -350 l 338 -350 z "},"İ":{"ha":394,"x_min":71,"x_max":324,"o":"m 71 0 m 324 939 l 324 0 l 71 0 l 71 939 l 324 939 m 301 1058 l 92 1058 l 92 1243 l 301 1243 l 301 1058 z "},"ı":{"ha":394,"x_min":71,"x_max":324,"o":"m 71 0 m 324 939 l 324 0 l 71 0 l 71 939 l 324 939 z "},"Ĳ":{"ha":1379,"x_min":71,"x_max":1317,"o":"m 71 0 m 324 939 l 324 0 l 71 0 l 71 939 l 324 939 m 422 0 l 422 240 l 946 240 q 1035 269 1008 240 q 1063 357 1063 299 l 1063 939 l 1317 939 l 1317 368 q 1226 97 1317 194 q 946 0 1136 0 l 422 0 z "},"ĳ":{"ha":1379,"x_min":71,"x_max":1317,"o":"m 71 0 m 324 939 l 324 0 l 71 0 l 71 939 l 324 939 m 422 0 l 422 240 l 946 240 q 1035 269 1008 240 q 1063 357 1063 299 l 1063 939 l 1317 939 l 1317 368 q 1226 97 1317 194 q 946 0 1136 0 l 422 0 z "},"Ķ":{"ha":1210,"x_min":69,"x_max":1190,"o":"m 69 0 m 324 939 l 324 554 l 751 900 q 790 939 774 918 l 1142 939 q 1131 926 1138 932 q 1117 914 1124 919 l 600 514 q 592 499 592 507 q 600 483 592 490 l 1154 35 q 1173 18 1164 26 q 1190 0 1182 10 l 815 0 q 774 39 801 17 l 324 415 l 324 0 l 69 0 l 69 939 l 324 939 m 714 -69 l 532 -350 l 333 -350 l 468 -69 l 714 -69 z "},"ķ":{"ha":1210,"x_min":69,"x_max":1190,"o":"m 69 0 m 324 939 l 324 554 l 751 900 q 790 939 774 918 l 1142 939 q 1131 926 1138 932 q 1117 914 1124 919 l 600 514 q 592 499 592 507 q 600 483 592 490 l 1154 35 q 1173 18 1164 26 q 1190 0 1182 10 l 815 0 q 774 39 801 17 l 324 415 l 324 0 l 69 0 l 69 939 l 324 939 m 714 -69 l 532 -350 l 333 -350 l 468 -69 l 714 -69 z "},"Ĺ":{"ha":1079,"x_min":64,"x_max":1051,"o":"m 64 0 m 369 0 q 224 19 283 0 q 130 76 165 38 q 79 172 94 114 q 64 306 64 229 l 64 939 l 317 939 l 317 329 q 334 259 317 278 q 400 240 351 240 l 1051 240 l 1051 0 l 369 0 m 601 1317 l 382 1000 l 172 1000 l 338 1317 l 601 1317 z "},"ĺ":{"ha":1079,"x_min":64,"x_max":1051,"o":"m 64 0 m 369 0 q 224 19 283 0 q 130 76 165 38 q 79 172 94 114 q 64 306 64 229 l 64 939 l 317 939 l 317 329 q 334 259 317 278 q 400 240 351 240 l 1051 240 l 1051 0 l 369 0 m 601 1317 l 382 1000 l 172 1000 l 338 1317 l 601 1317 z "},"Ļ":{"ha":1079,"x_min":64,"x_max":1051,"o":"m 64 0 m 369 0 q 224 19 283 0 q 130 76 165 38 q 79 172 94 114 q 64 306 64 229 l 64 939 l 317 939 l 317 329 q 334 259 317 278 q 400 240 351 240 l 1051 240 l 1051 0 l 369 0 m 718 -69 l 536 -350 l 338 -350 l 472 -69 l 718 -69 z "},"ļ":{"ha":1079,"x_min":64,"x_max":1051,"o":"m 64 0 m 369 0 q 224 19 283 0 q 130 76 165 38 q 79 172 94 114 q 64 306 64 229 l 64 939 l 317 939 l 317 329 q 334 259 317 278 q 400 240 351 240 l 1051 240 l 1051 0 l 369 0 m 718 -69 l 536 -350 l 338 -350 l 472 -69 l 718 -69 z "},"Ľ":{"ha":1079,"x_min":64,"x_max":1051,"o":"m 64 0 m 369 0 q 224 19 283 0 q 130 76 165 38 q 79 172 94 114 q 64 306 64 229 l 64 939 l 317 939 l 317 329 q 334 259 317 278 q 400 240 351 240 l 1051 240 l 1051 0 l 369 0 m 811 981 l 629 700 l 431 700 l 565 981 l 811 981 z "},"ľ":{"ha":1079,"x_min":64,"x_max":1051,"o":"m 64 0 m 369 0 q 224 19 283 0 q 130 76 165 38 q 79 172 94 114 q 64 306 64 229 l 64 939 l 317 939 l 317 329 q 334 259 317 278 q 400 240 351 240 l 1051 240 l 1051 0 l 369 0 m 811 981 l 629 700 l 431 700 l 565 981 l 811 981 z "},"Ŀ":{"ha":1079,"x_min":64,"x_max":1051,"o":"m 64 0 m 369 0 q 224 19 283 0 q 130 76 165 38 q 79 172 94 114 q 64 306 64 229 l 64 939 l 317 939 l 317 329 q 334 259 317 278 q 400 240 351 240 l 1051 240 l 1051 0 l 369 0 m 754 460 l 544 460 l 544 644 l 754 644 l 754 460 z "},"ŀ":{"ha":1079,"x_min":64,"x_max":1051,"o":"m 64 0 m 369 0 q 224 19 283 0 q 130 76 165 38 q 79 172 94 114 q 64 306 64 229 l 64 939 l 317 939 l 317 329 q 334 259 317 278 q 400 240 351 240 l 1051 240 l 1051 0 l 369 0 m 754 460 l 544 460 l 544 644 l 754 644 l 754 460 z "},"Ł":{"ha":1079,"x_min":64,"x_max":1051,"o":"m 714 724 q 694 715 703 721 q 675 704 685 710 l 317 492 l 317 329 q 334 259 317 278 q 400 240 351 240 l 1051 240 l 1051 0 l 369 0 q 224 19 283 0 q 130 76 165 38 q 79 172 94 114 q 64 306 64 229 l 64 939 l 317 939 l 317 733 l 675 940 q 694 951 685 946 q 714 960 703 956 l 714 724 z "},"ł":{"ha":1079,"x_min":64,"x_max":1051,"o":"m 64 0 m 714 724 q 694 715 703 721 q 675 704 685 710 l 317 492 l 317 329 q 334 259 317 278 q 400 240 351 240 l 1051 240 l 1051 0 l 369 0 q 224 19 283 0 q 130 76 165 38 q 79 172 94 114 q 64 306 64 229 l 64 939 l 317 939 l 317 733 l 675 940 q 694 951 685 946 q 714 960 703 956 l 714 724 z "},"Ń":{"ha":1304,"x_min":67,"x_max":1235,"o":"m 67 0 m 1235 182 q 1220 91 1235 129 q 1181 28 1206 53 q 1125 -8 1157 4 q 1058 -19 1093 -19 q 953 -2 999 -19 q 875 54 908 15 l 360 650 q 338 663 349 663 q 321 656 328 663 q 314 636 314 649 l 314 0 l 67 0 l 67 740 q 83 842 67 800 q 128 910 99 883 q 197 948 157 936 q 285 960 238 960 q 397 939 351 960 q 488 867 443 918 l 946 318 q 957 309 951 311 q 969 307 963 307 q 989 332 989 307 l 989 939 l 1235 939 l 1235 182 m 936 1317 l 717 1000 l 507 1000 l 672 1317 l 936 1317 z "},"ń":{"ha":1304,"x_min":67,"x_max":1235,"o":"m 67 0 m 1235 182 q 1220 91 1235 129 q 1181 28 1206 53 q 1125 -8 1157 4 q 1058 -19 1093 -19 q 953 -2 999 -19 q 875 54 908 15 l 360 650 q 338 663 349 663 q 321 656 328 663 q 314 636 314 649 l 314 0 l 67 0 l 67 740 q 83 842 67 800 q 128 910 99 883 q 197 948 157 936 q 285 960 238 960 q 397 939 351 960 q 488 867 443 918 l 946 318 q 957 309 951 311 q 969 307 963 307 q 989 332 989 307 l 989 939 l 1235 939 l 1235 182 m 936 1317 l 717 1000 l 507 1000 l 672 1317 l 936 1317 z "},"Ņ":{"ha":1304,"x_min":67,"x_max":1235,"o":"m 67 0 m 1235 182 q 1220 91 1235 129 q 1181 28 1206 53 q 1125 -8 1157 4 q 1058 -19 1093 -19 q 953 -2 999 -19 q 875 54 908 15 l 360 650 q 338 663 349 663 q 321 656 328 663 q 314 636 314 649 l 314 0 l 67 0 l 67 740 q 83 842 67 800 q 128 910 99 883 q 197 948 157 936 q 285 960 238 960 q 397 939 351 960 q 488 867 443 918 l 946 318 q 957 309 951 311 q 969 307 963 307 q 989 332 989 307 l 989 939 l 1235 939 l 1235 182 m 803 -69 l 621 -350 l 422 -350 l 557 -69 l 803 -69 z "},"ņ":{"ha":1304,"x_min":67,"x_max":1235,"o":"m 67 0 m 1235 182 q 1220 91 1235 129 q 1181 28 1206 53 q 1125 -8 1157 4 q 1058 -19 1093 -19 q 953 -2 999 -19 q 875 54 908 15 l 360 650 q 338 663 349 663 q 321 656 328 663 q 314 636 314 649 l 314 0 l 67 0 l 67 740 q 83 842 67 800 q 128 910 99 883 q 197 948 157 936 q 285 960 238 960 q 397 939 351 960 q 488 867 443 918 l 946 318 q 957 309 951 311 q 969 307 963 307 q 989 332 989 307 l 989 939 l 1235 939 l 1235 182 m 803 -69 l 621 -350 l 422 -350 l 557 -69 l 803 -69 z "},"Ň":{"ha":1304,"x_min":67,"x_max":1235,"o":"m 67 0 m 1235 182 q 1220 91 1235 129 q 1181 28 1206 53 q 1125 -8 1157 4 q 1058 -19 1093 -19 q 953 -2 999 -19 q 875 54 908 15 l 360 650 q 338 663 349 663 q 321 656 328 663 q 314 636 314 649 l 314 0 l 67 0 l 67 740 q 83 842 67 800 q 128 910 99 883 q 197 948 157 936 q 285 960 238 960 q 397 939 351 960 q 488 867 443 918 l 946 318 q 957 309 951 311 q 969 307 963 307 q 989 332 989 307 l 989 939 l 1235 939 l 1235 182 m 550 1000 l 307 1317 l 519 1317 l 653 1131 l 786 1317 l 997 1317 l 756 1000 l 550 1000 z "},"ň":{"ha":1304,"x_min":67,"x_max":1235,"o":"m 67 0 m 1235 182 q 1220 91 1235 129 q 1181 28 1206 53 q 1125 -8 1157 4 q 1058 -19 1093 -19 q 953 -2 999 -19 q 875 54 908 15 l 360 650 q 338 663 349 663 q 321 656 328 663 q 314 636 314 649 l 314 0 l 67 0 l 67 740 q 83 842 67 800 q 128 910 99 883 q 197 948 157 936 q 285 960 238 960 q 397 939 351 960 q 488 867 443 918 l 946 318 q 957 309 951 311 q 969 307 963 307 q 989 332 989 307 l 989 939 l 1235 939 l 1235 182 m 550 1000 l 307 1317 l 519 1317 l 653 1131 l 786 1317 l 997 1317 l 756 1000 l 550 1000 z "},"Ŋ":{"ha":1304,"x_min":67,"x_max":1235,"o":"m 549 -351 l 549 -111 l 864 -111 q 953 -82 926 -111 q 981 4 981 -53 q 858 74 906 19 l 360 650 q 338 663 349 663 q 321 656 328 663 q 314 636 314 649 l 314 0 l 67 0 l 67 740 q 83 842 67 800 q 128 910 99 883 q 197 948 157 936 q 285 960 238 960 q 397 939 351 960 q 488 867 443 918 l 946 313 q 989 293 961 293 l 989 939 l 1235 939 l 1235 17 q 1144 -254 1235 -157 q 864 -351 1054 -351 l 549 -351 z "},"ŋ":{"ha":1304,"x_min":67,"x_max":1235,"o":"m 67 0 m 549 -351 l 549 -111 l 864 -111 q 953 -82 926 -111 q 981 4 981 -53 q 858 74 906 19 l 360 650 q 338 663 349 663 q 321 656 328 663 q 314 636 314 649 l 314 0 l 67 0 l 67 740 q 83 842 67 800 q 128 910 99 883 q 197 948 157 936 q 285 960 238 960 q 397 939 351 960 q 488 867 443 918 l 946 313 q 989 293 961 293 l 989 939 l 1235 939 l 1235 17 q 1144 -254 1235 -157 q 864 -351 1054 -351 l 549 -351 z "},"Ō":{"ha":1294,"x_min":49,"x_max":1243,"o":"m 49 0 m 547 0 q 328 41 421 0 q 169 153 235 82 q 81 296 113 215 q 49 469 49 376 q 89 661 49 572 q 200 815 129 750 q 348 906 263 874 q 547 939 433 939 l 744 939 q 944 906 858 939 q 1092 815 1029 874 q 1203 661 1163 750 q 1243 469 1243 572 q 1211 296 1243 376 q 1122 153 1179 215 q 964 41 1057 82 q 744 0 871 0 l 547 0 m 547 690 q 442 674 483 690 q 369 629 400 657 q 319 557 338 599 q 300 468 300 515 q 315 387 300 425 q 358 319 331 349 q 435 267 389 286 q 547 247 481 247 l 744 247 q 857 267 811 247 q 933 319 903 286 q 976 387 961 349 q 992 468 992 425 q 973 557 992 515 q 922 629 954 599 q 850 674 892 657 q 744 690 808 690 l 547 690 m 1004 1064 l 289 1064 l 289 1238 l 1004 1238 l 1004 1064 z "},"ō":{"ha":1294,"x_min":49,"x_max":1243,"o":"m 49 0 m 547 0 q 328 41 421 0 q 169 153 235 82 q 81 296 113 215 q 49 469 49 376 q 89 661 49 572 q 200 815 129 750 q 348 906 263 874 q 547 939 433 939 l 744 939 q 944 906 858 939 q 1092 815 1029 874 q 1203 661 1163 750 q 1243 469 1243 572 q 1211 296 1243 376 q 1122 153 1179 215 q 964 41 1057 82 q 744 0 871 0 l 547 0 m 547 690 q 442 674 483 690 q 369 629 400 657 q 319 557 338 599 q 300 468 300 515 q 315 387 300 425 q 358 319 331 349 q 435 267 389 286 q 547 247 481 247 l 744 247 q 857 267 811 247 q 933 319 903 286 q 976 387 961 349 q 992 468 992 425 q 973 557 992 515 q 922 629 954 599 q 850 674 892 657 q 744 690 808 690 l 547 690 m 1004 1064 l 289 1064 l 289 1238 l 1004 1238 l 1004 1064 z "},"Ŏ":{"ha":1294,"x_min":49,"x_max":1243,"o":"m 49 0 m 547 0 q 328 41 421 0 q 169 153 235 82 q 81 296 113 215 q 49 469 49 376 q 89 661 49 572 q 200 815 129 750 q 348 906 263 874 q 547 939 433 939 l 744 939 q 944 906 858 939 q 1092 815 1029 874 q 1203 661 1163 750 q 1243 469 1243 572 q 1211 296 1243 376 q 1122 153 1179 215 q 964 41 1057 82 q 744 0 871 0 l 547 0 m 547 690 q 442 674 483 690 q 369 629 400 657 q 319 557 338 599 q 300 468 300 515 q 315 387 300 425 q 358 319 331 349 q 435 267 389 286 q 547 247 481 247 l 744 247 q 857 267 811 247 q 933 319 903 286 q 976 387 961 349 q 992 468 992 425 q 973 557 992 515 q 922 629 954 599 q 850 674 892 657 q 744 690 808 690 l 547 690 m 606 1000 q 482 1023 533 1000 q 399 1088 431 1046 q 351 1188 367 1129 q 335 1317 336 1246 l 506 1317 q 540 1174 506 1218 q 632 1131 574 1131 l 663 1131 q 755 1174 719 1131 q 790 1317 790 1218 l 960 1317 q 945 1192 960 1250 q 899 1091 931 1133 q 815 1024 867 1049 q 688 1000 763 1000 l 606 1000 z "},"ŏ":{"ha":1294,"x_min":49,"x_max":1243,"o":"m 49 0 m 547 0 q 328 41 421 0 q 169 153 235 82 q 81 296 113 215 q 49 469 49 376 q 89 661 49 572 q 200 815 129 750 q 348 906 263 874 q 547 939 433 939 l 744 939 q 944 906 858 939 q 1092 815 1029 874 q 1203 661 1163 750 q 1243 469 1243 572 q 1211 296 1243 376 q 1122 153 1179 215 q 964 41 1057 82 q 744 0 871 0 l 547 0 m 547 690 q 442 674 483 690 q 369 629 400 657 q 319 557 338 599 q 300 468 300 515 q 315 387 300 425 q 358 319 331 349 q 435 267 389 286 q 547 247 481 247 l 744 247 q 857 267 811 247 q 933 319 903 286 q 976 387 961 349 q 992 468 992 425 q 973 557 992 515 q 922 629 954 599 q 850 674 892 657 q 744 690 808 690 l 547 690 m 606 1000 q 482 1023 533 1000 q 399 1088 431 1046 q 351 1188 367 1129 q 335 1317 336 1246 l 506 1317 q 540 1174 506 1218 q 632 1131 574 1131 l 663 1131 q 755 1174 719 1131 q 790 1317 790 1218 l 960 1317 q 945 1192 960 1250 q 899 1091 931 1133 q 815 1024 867 1049 q 688 1000 763 1000 l 606 1000 z "},"Ő":{"ha":1294,"x_min":49,"x_max":1243,"o":"m 49 0 m 547 0 q 328 41 421 0 q 169 153 235 82 q 81 296 113 215 q 49 469 49 376 q 89 661 49 572 q 200 815 129 750 q 348 906 263 874 q 547 939 433 939 l 744 939 q 944 906 858 939 q 1092 815 1029 874 q 1203 661 1163 750 q 1243 469 1243 572 q 1211 296 1243 376 q 1122 153 1179 215 q 964 41 1057 82 q 744 0 871 0 l 547 0 m 547 690 q 442 674 483 690 q 369 629 400 657 q 319 557 338 599 q 300 468 300 515 q 315 387 300 425 q 358 319 331 349 q 435 267 389 286 q 547 247 481 247 l 744 247 q 857 267 811 247 q 933 319 903 286 q 976 387 961 349 q 992 468 992 425 q 973 557 992 515 q 922 629 954 599 q 850 674 892 657 q 744 690 808 690 l 547 690 m 1118 1317 l 899 1000 l 689 1000 l 854 1317 l 1118 1317 m 744 1317 l 525 1000 l 315 1000 l 481 1317 l 744 1317 z "},"ő":{"ha":1294,"x_min":49,"x_max":1243,"o":"m 49 0 m 547 0 q 328 41 421 0 q 169 153 235 82 q 81 296 113 215 q 49 469 49 376 q 89 661 49 572 q 200 815 129 750 q 348 906 263 874 q 547 939 433 939 l 744 939 q 944 906 858 939 q 1092 815 1029 874 q 1203 661 1163 750 q 1243 469 1243 572 q 1211 296 1243 376 q 1122 153 1179 215 q 964 41 1057 82 q 744 0 871 0 l 547 0 m 547 690 q 442 674 483 690 q 369 629 400 657 q 319 557 338 599 q 300 468 300 515 q 315 387 300 425 q 358 319 331 349 q 435 267 389 286 q 547 247 481 247 l 744 247 q 857 267 811 247 q 933 319 903 286 q 976 387 961 349 q 992 468 992 425 q 973 557 992 515 q 922 629 954 599 q 850 674 892 657 q 744 690 808 690 l 547 690 m 1118 1317 l 899 1000 l 689 1000 l 854 1317 l 1118 1317 m 744 1317 l 525 1000 l 315 1000 l 481 1317 l 744 1317 z "},"Œ":{"ha":1840,"x_min":49,"x_max":1792,"o":"m 547 0 q 328 41 421 0 q 169 153 235 82 q 81 296 113 215 q 49 469 49 376 q 89 661 49 572 q 200 815 129 750 q 348 906 263 874 q 547 939 433 939 l 1792 939 l 1792 690 l 1096 690 l 1096 560 l 1786 560 l 1786 379 l 1096 379 l 1096 240 l 1792 240 l 1792 0 l 547 0 m 358 319 q 435 267 389 286 q 547 247 481 247 l 846 247 l 846 690 l 547 690 q 442 674 483 690 q 369 629 400 657 q 319 557 338 599 q 300 468 300 515 q 315 387 300 425 q 358 319 331 349 z "},"œ":{"ha":1840,"x_min":49,"x_max":1792,"o":"m 49 0 m 547 0 q 328 41 421 0 q 169 153 235 82 q 81 296 113 215 q 49 469 49 376 q 89 661 49 572 q 200 815 129 750 q 348 906 263 874 q 547 939 433 939 l 1792 939 l 1792 690 l 1096 690 l 1096 560 l 1786 560 l 1786 379 l 1096 379 l 1096 240 l 1792 240 l 1792 0 l 547 0 m 358 319 q 435 267 389 286 q 547 247 481 247 l 846 247 l 846 690 l 547 690 q 442 674 483 690 q 369 629 400 657 q 319 557 338 599 q 300 468 300 515 q 315 387 300 425 q 358 319 331 349 z "},"Ŕ":{"ha":1169,"x_min":69,"x_max":1119,"o":"m 69 0 m 321 0 l 69 0 l 69 881 q 132 939 69 939 l 799 939 q 943 915 886 939 q 1039 850 1000 890 q 1094 766 1074 814 q 1114 665 1114 718 q 1094 558 1114 608 q 1025 471 1075 507 q 1094 400 1072 443 q 1115 276 1115 357 l 1115 89 q 1116 39 1115 58 q 1119 0 1117 19 l 865 0 q 861 63 861 31 l 861 250 q 838 314 861 294 q 758 333 814 333 l 321 333 l 321 0 m 765 547 q 808 556 792 547 q 836 578 825 564 q 854 626 854 600 q 833 679 854 658 q 765 704 811 704 l 342 704 q 321 683 321 704 l 321 547 l 765 547 m 868 1317 l 649 1000 l 439 1000 l 604 1317 l 868 1317 z "},"ŕ":{"ha":1169,"x_min":69,"x_max":1119,"o":"m 69 0 m 321 0 l 69 0 l 69 881 q 132 939 69 939 l 799 939 q 943 915 886 939 q 1039 850 1000 890 q 1094 766 1074 814 q 1114 665 1114 718 q 1094 558 1114 608 q 1025 471 1075 507 q 1094 400 1072 443 q 1115 276 1115 357 l 1115 89 q 1116 39 1115 58 q 1119 0 1117 19 l 865 0 q 861 63 861 31 l 861 250 q 838 314 861 294 q 758 333 814 333 l 321 333 l 321 0 m 765 547 q 808 556 792 547 q 836 578 825 564 q 854 626 854 600 q 833 679 854 658 q 765 704 811 704 l 342 704 q 321 683 321 704 l 321 547 l 765 547 m 868 1317 l 649 1000 l 439 1000 l 604 1317 l 868 1317 z "},"Ŗ":{"ha":1169,"x_min":69,"x_max":1119,"o":"m 69 0 m 321 0 l 69 0 l 69 881 q 132 939 69 939 l 799 939 q 943 915 886 939 q 1039 850 1000 890 q 1094 766 1074 814 q 1114 665 1114 718 q 1094 558 1114 608 q 1025 471 1075 507 q 1094 400 1072 443 q 1115 276 1115 357 l 1115 89 q 1116 39 1115 58 q 1119 0 1117 19 l 865 0 q 861 63 861 31 l 861 250 q 838 314 861 294 q 758 333 814 333 l 321 333 l 321 0 m 765 547 q 808 556 792 547 q 836 578 825 564 q 854 626 854 600 q 833 679 854 658 q 765 704 811 704 l 342 704 q 321 683 321 704 l 321 547 l 765 547 m 739 -69 l 557 -350 l 358 -350 l 493 -69 l 739 -69 z "},"ŗ":{"ha":1169,"x_min":69,"x_max":1119,"o":"m 69 0 m 321 0 l 69 0 l 69 881 q 132 939 69 939 l 799 939 q 943 915 886 939 q 1039 850 1000 890 q 1094 766 1074 814 q 1114 665 1114 718 q 1094 558 1114 608 q 1025 471 1075 507 q 1094 400 1072 443 q 1115 276 1115 357 l 1115 89 q 1116 39 1115 58 q 1119 0 1117 19 l 865 0 q 861 63 861 31 l 861 250 q 838 314 861 294 q 758 333 814 333 l 321 333 l 321 0 m 765 547 q 808 556 792 547 q 836 578 825 564 q 854 626 854 600 q 833 679 854 658 q 765 704 811 704 l 342 704 q 321 683 321 704 l 321 547 l 765 547 m 739 -69 l 557 -350 l 358 -350 l 493 -69 l 739 -69 z "},"Ř":{"ha":1169,"x_min":69,"x_max":1119,"o":"m 69 0 m 321 0 l 69 0 l 69 881 q 132 939 69 939 l 799 939 q 943 915 886 939 q 1039 850 1000 890 q 1094 766 1074 814 q 1114 665 1114 718 q 1094 558 1114 608 q 1025 471 1075 507 q 1094 400 1072 443 q 1115 276 1115 357 l 1115 89 q 1116 39 1115 58 q 1119 0 1117 19 l 865 0 q 861 63 861 31 l 861 250 q 838 314 861 294 q 758 333 814 333 l 321 333 l 321 0 m 765 547 q 808 556 792 547 q 836 578 825 564 q 854 626 854 600 q 833 679 854 658 q 765 704 811 704 l 342 704 q 321 683 321 704 l 321 547 l 765 547 m 482 1000 l 239 1317 l 451 1317 l 585 1131 l 718 1317 l 929 1317 l 688 1000 l 482 1000 z "},"ř":{"ha":1169,"x_min":69,"x_max":1119,"o":"m 69 0 m 321 0 l 69 0 l 69 881 q 132 939 69 939 l 799 939 q 943 915 886 939 q 1039 850 1000 890 q 1094 766 1074 814 q 1114 665 1114 718 q 1094 558 1114 608 q 1025 471 1075 507 q 1094 400 1072 443 q 1115 276 1115 357 l 1115 89 q 1116 39 1115 58 q 1119 0 1117 19 l 865 0 q 861 63 861 31 l 861 250 q 838 314 861 294 q 758 333 814 333 l 321 333 l 321 0 m 765 547 q 808 556 792 547 q 836 578 825 564 q 854 626 854 600 q 833 679 854 658 q 765 704 811 704 l 342 704 q 321 683 321 704 l 321 547 l 765 547 m 482 1000 l 239 1317 l 451 1317 l 585 1131 l 718 1317 l 929 1317 l 688 1000 l 482 1000 z "},"Ś":{"ha":1128,"x_min":36,"x_max":1096,"o":"m 36 0 m 1051 690 l 376 690 q 340 685 353 690 q 318 672 326 681 q 299 624 299 653 q 322 574 299 593 q 342 563 331 567 q 376 560 354 560 l 789 560 q 923 537 868 560 q 1015 475 978 514 q 1074 386 1053 436 q 1096 281 1096 336 q 1077 182 1096 229 q 1026 97 1058 135 q 930 26 988 53 q 789 0 872 0 l 61 0 l 61 240 l 744 240 q 790 247 774 240 q 815 264 806 253 q 831 307 831 282 q 811 357 831 338 q 787 373 801 368 q 744 378 772 378 l 363 378 q 210 401 268 378 q 115 463 153 424 q 57 551 78 501 q 36 658 36 600 q 58 765 36 715 q 117 854 79 815 q 211 916 154 893 q 363 939 268 939 l 1051 939 l 1051 690 m 861 1317 l 642 1000 l 432 1000 l 597 1317 l 861 1317 z "},"ś":{"ha":1128,"x_min":36,"x_max":1096,"o":"m 36 0 m 1051 690 l 376 690 q 340 685 353 690 q 318 672 326 681 q 299 624 299 653 q 322 574 299 593 q 342 563 331 567 q 376 560 354 560 l 789 560 q 923 537 868 560 q 1015 475 978 514 q 1074 386 1053 436 q 1096 281 1096 336 q 1077 182 1096 229 q 1026 97 1058 135 q 930 26 988 53 q 789 0 872 0 l 61 0 l 61 240 l 744 240 q 790 247 774 240 q 815 264 806 253 q 831 307 831 282 q 811 357 831 338 q 787 373 801 368 q 744 378 772 378 l 363 378 q 210 401 268 378 q 115 463 153 424 q 57 551 78 501 q 36 658 36 600 q 58 765 36 715 q 117 854 79 815 q 211 916 154 893 q 363 939 268 939 l 1051 939 l 1051 690 m 861 1317 l 642 1000 l 432 1000 l 597 1317 l 861 1317 z "},"Ş":{"ha":1128,"x_min":36,"x_max":1096,"o":"m 36 0 m 1051 690 l 376 690 q 340 685 353 690 q 318 672 326 681 q 299 624 299 653 q 322 574 299 593 q 342 563 331 567 q 376 560 354 560 l 789 560 q 923 537 868 560 q 1015 475 978 514 q 1074 386 1053 436 q 1096 281 1096 336 q 1077 182 1096 229 q 1026 97 1058 135 q 930 26 988 53 q 789 0 872 0 l 61 0 l 61 240 l 744 240 q 790 247 774 240 q 815 264 806 253 q 831 307 831 282 q 811 357 831 338 q 787 373 801 368 q 744 378 772 378 l 363 378 q 210 401 268 378 q 115 463 153 424 q 57 551 78 501 q 36 658 36 600 q 58 765 36 715 q 117 854 79 815 q 211 916 154 893 q 363 939 268 939 l 1051 939 l 1051 690 m 715 -69 l 533 -350 l 335 -350 l 469 -69 l 715 -69 z "},"ş":{"ha":1128,"x_min":36,"x_max":1096,"o":"m 36 0 m 1051 690 l 376 690 q 340 685 353 690 q 318 672 326 681 q 299 624 299 653 q 322 574 299 593 q 342 563 331 567 q 376 560 354 560 l 789 560 q 923 537 868 560 q 1015 475 978 514 q 1074 386 1053 436 q 1096 281 1096 336 q 1077 182 1096 229 q 1026 97 1058 135 q 930 26 988 53 q 789 0 872 0 l 61 0 l 61 240 l 744 240 q 790 247 774 240 q 815 264 806 253 q 831 307 831 282 q 811 357 831 338 q 787 373 801 368 q 744 378 772 378 l 363 378 q 210 401 268 378 q 115 463 153 424 q 57 551 78 501 q 36 658 36 600 q 58 765 36 715 q 117 854 79 815 q 211 916 154 893 q 363 939 268 939 l 1051 939 l 1051 690 m 715 -69 l 533 -350 l 335 -350 l 469 -69 l 715 -69 z "},"Š":{"ha":1128,"x_min":36,"x_max":1096,"o":"m 36 0 m 1051 690 l 376 690 q 340 685 353 690 q 318 672 326 681 q 299 624 299 653 q 322 574 299 593 q 342 563 331 567 q 376 560 354 560 l 789 560 q 923 537 868 560 q 1015 475 978 514 q 1074 386 1053 436 q 1096 281 1096 336 q 1077 182 1096 229 q 1026 97 1058 135 q 930 26 988 53 q 789 0 872 0 l 61 0 l 61 240 l 744 240 q 790 247 774 240 q 815 264 806 253 q 831 307 831 282 q 811 357 831 338 q 787 373 801 368 q 744 378 772 378 l 363 378 q 210 401 268 378 q 115 463 153 424 q 57 551 78 501 q 36 658 36 600 q 58 765 36 715 q 117 854 79 815 q 211 916 154 893 q 363 939 268 939 l 1051 939 l 1051 690 m 475 1000 l 232 1317 l 444 1317 l 578 1131 l 711 1317 l 922 1317 l 681 1000 l 475 1000 z "},"š":{"ha":1128,"x_min":36,"x_max":1096,"o":"m 36 0 m 1051 690 l 376 690 q 340 685 353 690 q 318 672 326 681 q 299 624 299 653 q 322 574 299 593 q 342 563 331 567 q 376 560 354 560 l 789 560 q 923 537 868 560 q 1015 475 978 514 q 1074 386 1053 436 q 1096 281 1096 336 q 1077 182 1096 229 q 1026 97 1058 135 q 930 26 988 53 q 789 0 872 0 l 61 0 l 61 240 l 744 240 q 790 247 774 240 q 815 264 806 253 q 831 307 831 282 q 811 357 831 338 q 787 373 801 368 q 744 378 772 378 l 363 378 q 210 401 268 378 q 115 463 153 424 q 57 551 78 501 q 36 658 36 600 q 58 765 36 715 q 117 854 79 815 q 211 916 154 893 q 363 939 268 939 l 1051 939 l 1051 690 m 475 1000 l 232 1317 l 444 1317 l 578 1131 l 711 1317 l 922 1317 l 681 1000 l 475 1000 z "},"Ţ":{"ha":1133,"x_min":28,"x_max":1104,"o":"m 28 0 m 1104 939 l 1104 690 l 693 690 l 693 0 l 440 0 l 440 690 l 28 690 l 28 939 l 1104 939 m 690 -69 l 508 -350 l 310 -350 l 444 -69 l 690 -69 z "},"ţ":{"ha":1133,"x_min":28,"x_max":1104,"o":"m 28 0 m 1104 939 l 1104 690 l 693 690 l 693 0 l 440 0 l 440 690 l 28 690 l 28 939 l 1104 939 m 690 -69 l 508 -350 l 310 -350 l 444 -69 l 690 -69 z "},"Ť":{"ha":1133,"x_min":28,"x_max":1104,"o":"m 28 0 m 1104 939 l 1104 690 l 693 690 l 693 0 l 440 0 l 440 690 l 28 690 l 28 939 l 1104 939 m 464 1000 l 221 1317 l 433 1317 l 567 1131 l 700 1317 l 911 1317 l 669 1000 l 464 1000 z "},"ť":{"ha":1133,"x_min":28,"x_max":1104,"o":"m 28 0 m 1104 939 l 1104 690 l 693 690 l 693 0 l 440 0 l 440 690 l 28 690 l 28 939 l 1104 939 m 464 1000 l 221 1317 l 433 1317 l 567 1131 l 700 1317 l 911 1317 l 669 1000 l 464 1000 z "},"Ŧ":{"ha":1133,"x_min":28,"x_max":1104,"o":"m 239 553 l 440 553 l 440 690 l 28 690 l 28 939 l 1104 939 l 1104 690 l 693 690 l 693 553 l 894 553 l 894 344 l 693 344 l 693 0 l 440 0 l 440 344 l 239 344 l 239 553 z "},"ŧ":{"ha":1133,"x_min":28,"x_max":1104,"o":"m 28 0 m 239 553 l 440 553 l 440 690 l 28 690 l 28 939 l 1104 939 l 1104 690 l 693 690 l 693 553 l 894 553 l 894 344 l 693 344 l 693 0 l 440 0 l 440 344 l 239 344 l 239 553 z "},"Ũ":{"ha":1207,"x_min":64,"x_max":1143,"o":"m 64 0 m 393 0 q 242 17 304 0 q 140 72 179 35 q 82 165 100 108 q 64 300 64 221 l 64 939 l 317 939 l 317 328 q 407 240 317 240 l 797 240 q 890 328 890 240 l 890 939 l 1143 939 l 1143 300 q 1067 72 1143 143 q 814 0 990 0 l 393 0 m 961 1064 l 246 1064 l 246 1238 l 961 1238 l 961 1064 z "},"ũ":{"ha":1207,"x_min":64,"x_max":1143,"o":"m 64 0 m 393 0 q 242 17 304 0 q 140 72 179 35 q 82 165 100 108 q 64 300 64 221 l 64 939 l 317 939 l 317 328 q 407 240 317 240 l 797 240 q 890 328 890 240 l 890 939 l 1143 939 l 1143 300 q 1067 72 1143 143 q 814 0 990 0 l 393 0 m 961 1064 l 246 1064 l 246 1238 l 961 1238 l 961 1064 z "},"Ū":{"ha":1207,"x_min":64,"x_max":1143,"o":"m 64 0 m 393 0 q 242 17 304 0 q 140 72 179 35 q 82 165 100 108 q 64 300 64 221 l 64 939 l 317 939 l 317 328 q 407 240 317 240 l 797 240 q 890 328 890 240 l 890 939 l 1143 939 l 1143 300 q 1067 72 1143 143 q 814 0 990 0 l 393 0 m 961 1064 l 246 1064 l 246 1238 l 961 1238 l 961 1064 z "},"ū":{"ha":1207,"x_min":64,"x_max":1143,"o":"m 64 0 m 393 0 q 242 17 304 0 q 140 72 179 35 q 82 165 100 108 q 64 300 64 221 l 64 939 l 317 939 l 317 328 q 407 240 317 240 l 797 240 q 890 328 890 240 l 890 939 l 1143 939 l 1143 300 q 1067 72 1143 143 q 814 0 990 0 l 393 0 m 961 1064 l 246 1064 l 246 1238 l 961 1238 l 961 1064 z "},"Ŭ":{"ha":1207,"x_min":64,"x_max":1143,"o":"m 64 0 m 393 0 q 242 17 304 0 q 140 72 179 35 q 82 165 100 108 q 64 300 64 221 l 64 939 l 317 939 l 317 328 q 407 240 317 240 l 797 240 q 890 328 890 240 l 890 939 l 1143 939 l 1143 300 q 1067 72 1143 143 q 814 0 990 0 l 393 0 m 561 1000 q 438 1023 489 1000 q 354 1088 386 1046 q 307 1188 322 1129 q 290 1317 292 1246 l 461 1317 q 495 1174 461 1218 q 588 1131 529 1131 l 618 1131 q 710 1174 675 1131 q 746 1317 746 1218 l 915 1317 q 901 1192 915 1250 q 854 1091 886 1133 q 770 1024 822 1049 q 643 1000 718 1000 l 561 1000 z "},"ŭ":{"ha":1207,"x_min":64,"x_max":1143,"o":"m 64 0 m 393 0 q 242 17 304 0 q 140 72 179 35 q 82 165 100 108 q 64 300 64 221 l 64 939 l 317 939 l 317 328 q 407 240 317 240 l 797 240 q 890 328 890 240 l 890 939 l 1143 939 l 1143 300 q 1067 72 1143 143 q 814 0 990 0 l 393 0 m 561 1000 q 438 1023 489 1000 q 354 1088 386 1046 q 307 1188 322 1129 q 290 1317 292 1246 l 461 1317 q 495 1174 461 1218 q 588 1131 529 1131 l 618 1131 q 710 1174 675 1131 q 746 1317 746 1218 l 915 1317 q 901 1192 915 1250 q 854 1091 886 1133 q 770 1024 822 1049 q 643 1000 718 1000 l 561 1000 z "},"Ů":{"ha":1207,"x_min":64,"x_max":1143,"o":"m 64 0 m 393 0 q 242 17 304 0 q 140 72 179 35 q 82 165 100 108 q 64 300 64 221 l 64 939 l 317 939 l 317 328 q 407 240 317 240 l 797 240 q 890 328 890 240 l 890 939 l 1143 939 l 1143 300 q 1067 72 1143 143 q 814 0 990 0 l 393 0 m 542 965 q 460 981 494 965 q 401 1022 425 996 q 356 1140 356 1071 q 371 1213 356 1179 q 413 1271 386 1247 q 468 1304 436 1292 q 542 1317 500 1317 l 663 1317 q 737 1304 706 1317 q 792 1271 768 1292 q 835 1213 819 1247 q 850 1140 850 1179 q 838 1076 850 1106 q 804 1022 825 1046 q 746 981 781 996 q 663 965 711 965 l 542 965 m 544 1213 q 510 1207 524 1213 q 486 1192 497 1201 q 465 1140 465 1172 q 483 1093 465 1111 q 544 1069 503 1069 l 661 1069 q 721 1093 703 1069 q 740 1140 740 1113 q 718 1192 740 1172 q 694 1207 707 1201 q 661 1213 681 1213 l 544 1213 z "},"ů":{"ha":1207,"x_min":64,"x_max":1143,"o":"m 64 0 m 393 0 q 242 17 304 0 q 140 72 179 35 q 82 165 100 108 q 64 300 64 221 l 64 939 l 317 939 l 317 328 q 407 240 317 240 l 797 240 q 890 328 890 240 l 890 939 l 1143 939 l 1143 300 q 1067 72 1143 143 q 814 0 990 0 l 393 0 m 542 965 q 460 981 494 965 q 401 1022 425 996 q 356 1140 356 1071 q 371 1213 356 1179 q 413 1271 386 1247 q 468 1304 436 1292 q 542 1317 500 1317 l 663 1317 q 737 1304 706 1317 q 792 1271 768 1292 q 835 1213 819 1247 q 850 1140 850 1179 q 838 1076 850 1106 q 804 1022 825 1046 q 746 981 781 996 q 663 965 711 965 l 542 965 m 544 1213 q 510 1207 524 1213 q 486 1192 497 1201 q 465 1140 465 1172 q 483 1093 465 1111 q 544 1069 503 1069 l 661 1069 q 721 1093 703 1069 q 740 1140 740 1113 q 718 1192 740 1172 q 694 1207 707 1201 q 661 1213 681 1213 l 544 1213 z "},"Ű":{"ha":1207,"x_min":64,"x_max":1143,"o":"m 64 0 m 393 0 q 242 17 304 0 q 140 72 179 35 q 82 165 100 108 q 64 300 64 221 l 64 939 l 317 939 l 317 328 q 407 240 317 240 l 797 240 q 890 328 890 240 l 890 939 l 1143 939 l 1143 300 q 1067 72 1143 143 q 814 0 990 0 l 393 0 m 1074 1317 l 854 1000 l 644 1000 l 810 1317 l 1074 1317 m 700 1317 l 481 1000 l 271 1000 l 436 1317 l 700 1317 z "},"ű":{"ha":1207,"x_min":64,"x_max":1143,"o":"m 64 0 m 393 0 q 242 17 304 0 q 140 72 179 35 q 82 165 100 108 q 64 300 64 221 l 64 939 l 317 939 l 317 328 q 407 240 317 240 l 797 240 q 890 328 890 240 l 890 939 l 1143 939 l 1143 300 q 1067 72 1143 143 q 814 0 990 0 l 393 0 m 1074 1317 l 854 1000 l 644 1000 l 810 1317 l 1074 1317 m 700 1317 l 481 1000 l 271 1000 l 436 1317 l 700 1317 z "},"Ų":{"ha":1207,"x_min":64,"x_max":1143,"o":"m 64 0 m 393 0 q 242 17 304 0 q 140 72 179 35 q 82 165 100 108 q 64 300 64 221 l 64 939 l 317 939 l 317 328 q 407 240 317 240 l 797 240 q 890 328 890 240 l 890 939 l 1143 939 l 1143 300 q 1067 72 1143 143 q 814 0 990 0 l 393 0 m 921 -350 q 822 -336 861 -350 q 758 -297 782 -322 q 722 -238 735 -272 q 704 -164 710 -204 l 901 -19 l 901 -85 q 913 -120 901 -108 q 956 -132 924 -132 l 1113 -132 l 1113 -350 l 921 -350 z "},"ų":{"ha":1207,"x_min":64,"x_max":1143,"o":"m 64 0 m 393 0 q 242 17 304 0 q 140 72 179 35 q 82 165 100 108 q 64 300 64 221 l 64 939 l 317 939 l 317 328 q 407 240 317 240 l 797 240 q 890 328 890 240 l 890 939 l 1143 939 l 1143 300 q 1067 72 1143 143 q 814 0 990 0 l 393 0 m 921 -350 q 822 -336 861 -350 q 758 -297 782 -322 q 722 -238 735 -272 q 704 -164 710 -204 l 901 -19 l 901 -85 q 913 -120 901 -108 q 956 -132 924 -132 l 1113 -132 l 1113 -350 l 921 -350 z "},"Ŵ":{"ha":1738,"x_min":31,"x_max":1707,"o":"m 31 0 m 872 736 q 842 708 849 736 l 696 190 q 599 31 665 82 q 424 -19 532 -19 q 312 -3 360 -19 q 231 40 264 13 q 178 107 197 68 q 151 190 158 146 l 35 894 q 31 939 31 921 l 296 939 q 297 922 296 932 q 299 903 297 913 l 397 261 q 431 229 401 229 q 451 235 443 229 q 464 258 460 242 l 607 763 q 697 912 636 864 q 872 960 758 960 q 1043 913 985 960 q 1128 769 1101 865 l 1268 258 q 1281 235 1272 242 q 1301 229 1289 229 q 1335 261 1329 229 l 1442 903 q 1444 923 1444 914 q 1444 939 1444 932 l 1707 939 q 1706 919 1707 928 q 1703 894 1706 910 l 1578 189 q 1495 38 1561 96 q 1303 -19 1429 -19 q 1038 190 1093 -19 l 903 708 q 872 736 896 736 m 972 1317 l 1214 1000 l 1003 1000 l 869 1183 l 736 1000 l 524 1000 l 767 1317 l 972 1317 z "},"ŵ":{"ha":1738,"x_min":31,"x_max":1707,"o":"m 31 0 m 872 736 q 842 708 849 736 l 696 190 q 599 31 665 82 q 424 -19 532 -19 q 312 -3 360 -19 q 231 40 264 13 q 178 107 197 68 q 151 190 158 146 l 35 894 q 31 939 31 921 l 296 939 q 297 922 296 932 q 299 903 297 913 l 397 261 q 431 229 401 229 q 451 235 443 229 q 464 258 460 242 l 607 763 q 697 912 636 864 q 872 960 758 960 q 1043 913 985 960 q 1128 769 1101 865 l 1268 258 q 1281 235 1272 242 q 1301 229 1289 229 q 1335 261 1329 229 l 1442 903 q 1444 923 1444 914 q 1444 939 1444 932 l 1707 939 q 1706 919 1707 928 q 1703 894 1706 910 l 1578 189 q 1495 38 1561 96 q 1303 -19 1429 -19 q 1038 190 1093 -19 l 903 708 q 872 736 896 736 m 972 1317 l 1214 1000 l 1003 1000 l 869 1183 l 736 1000 l 524 1000 l 767 1317 l 972 1317 z "},"Ŷ":{"ha":1186,"x_min":8,"x_max":1178,"o":"m 8 0 m 32 907 q 16 925 21 918 q 8 939 11 932 l 318 939 q 326 925 321 933 q 340 907 331 917 l 576 650 q 596 640 586 640 q 615 650 606 640 l 850 907 q 874 939 868 925 l 1178 939 q 1169 925 1174 932 q 1153 907 1164 918 l 713 421 l 713 0 l 458 0 l 458 438 l 32 907 m 696 1317 l 938 1000 l 726 1000 l 593 1183 l 460 1000 l 247 1000 l 490 1317 l 696 1317 z "},"ŷ":{"ha":1186,"x_min":8,"x_max":1178,"o":"m 8 0 m 32 907 q 16 925 21 918 q 8 939 11 932 l 318 939 q 326 925 321 933 q 340 907 331 917 l 576 650 q 596 640 586 640 q 615 650 606 640 l 850 907 q 874 939 868 925 l 1178 939 q 1169 925 1174 932 q 1153 907 1164 918 l 713 421 l 713 0 l 458 0 l 458 438 l 32 907 m 696 1317 l 938 1000 l 726 1000 l 593 1183 l 460 1000 l 247 1000 l 490 1317 l 696 1317 z "},"Ÿ":{"ha":1186,"x_min":8,"x_max":1178,"o":"m 8 0 m 32 907 q 16 925 21 918 q 8 939 11 932 l 318 939 q 326 925 321 933 q 340 907 331 917 l 576 650 q 596 640 586 640 q 615 650 606 640 l 850 907 q 874 939 868 925 l 1178 939 q 1169 925 1174 932 q 1153 907 1164 918 l 713 421 l 713 0 l 458 0 l 458 438 l 32 907 m 917 1058 l 706 1058 l 706 1243 l 917 1243 l 917 1058 m 479 1058 l 269 1058 l 269 1243 l 479 1243 l 479 1058 z "},"Ź":{"ha":1108,"x_min":54,"x_max":1063,"o":"m 54 0 m 1063 240 l 1063 0 l 235 0 q 144 17 179 0 q 89 61 110 33 q 54 163 54 107 q 64 214 54 188 q 94 265 74 240 q 118 287 104 276 q 160 317 132 297 l 664 671 q 668 679 668 672 q 657 690 668 690 l 61 690 l 61 939 l 871 939 q 956 925 924 939 q 1008 889 988 911 q 1040 840 1029 867 q 1051 786 1051 813 q 1036 715 1051 750 q 1016 683 1029 699 q 971 643 1003 667 l 464 265 q 456 253 456 258 q 472 240 456 240 l 1063 240 m 851 1317 l 632 1000 l 422 1000 l 588 1317 l 851 1317 z "},"ź":{"ha":1108,"x_min":54,"x_max":1063,"o":"m 54 0 m 1063 240 l 1063 0 l 235 0 q 144 17 179 0 q 89 61 110 33 q 54 163 54 107 q 64 214 54 188 q 94 265 74 240 q 118 287 104 276 q 160 317 132 297 l 664 671 q 668 679 668 672 q 657 690 668 690 l 61 690 l 61 939 l 871 939 q 956 925 924 939 q 1008 889 988 911 q 1040 840 1029 867 q 1051 786 1051 813 q 1036 715 1051 750 q 1016 683 1029 699 q 971 643 1003 667 l 464 265 q 456 253 456 258 q 472 240 456 240 l 1063 240 m 851 1317 l 632 1000 l 422 1000 l 588 1317 l 851 1317 z "},"Ż":{"ha":1108,"x_min":54,"x_max":1063,"o":"m 54 0 m 1063 240 l 1063 0 l 235 0 q 144 17 179 0 q 89 61 110 33 q 54 163 54 107 q 64 214 54 188 q 94 265 74 240 q 118 287 104 276 q 160 317 132 297 l 664 671 q 668 679 668 672 q 657 690 668 690 l 61 690 l 61 939 l 871 939 q 956 925 924 939 q 1008 889 988 911 q 1040 840 1029 867 q 1051 786 1051 813 q 1036 715 1051 750 q 1016 683 1029 699 q 971 643 1003 667 l 464 265 q 456 253 456 258 q 472 240 456 240 l 1063 240 m 672 1058 l 463 1058 l 463 1243 l 672 1243 l 672 1058 z "},"ż":{"ha":1108,"x_min":54,"x_max":1063,"o":"m 54 0 m 1063 240 l 1063 0 l 235 0 q 144 17 179 0 q 89 61 110 33 q 54 163 54 107 q 64 214 54 188 q 94 265 74 240 q 118 287 104 276 q 160 317 132 297 l 664 671 q 668 679 668 672 q 657 690 668 690 l 61 690 l 61 939 l 871 939 q 956 925 924 939 q 1008 889 988 911 q 1040 840 1029 867 q 1051 786 1051 813 q 1036 715 1051 750 q 1016 683 1029 699 q 971 643 1003 667 l 464 265 q 456 253 456 258 q 472 240 456 240 l 1063 240 m 672 1058 l 463 1058 l 463 1243 l 672 1243 l 672 1058 z "},"Ž":{"ha":1108,"x_min":54,"x_max":1063,"o":"m 54 0 m 1063 240 l 1063 0 l 235 0 q 144 17 179 0 q 89 61 110 33 q 54 163 54 107 q 64 214 54 188 q 94 265 74 240 q 118 287 104 276 q 160 317 132 297 l 664 671 q 668 679 668 672 q 657 690 668 690 l 61 690 l 61 939 l 871 939 q 956 925 924 939 q 1008 889 988 911 q 1040 840 1029 867 q 1051 786 1051 813 q 1036 715 1051 750 q 1016 683 1029 699 q 971 643 1003 667 l 464 265 q 456 253 456 258 q 472 240 456 240 l 1063 240 m 465 1000 l 222 1317 l 435 1317 l 568 1131 l 701 1317 l 913 1317 l 671 1000 l 465 1000 z "},"ž":{"ha":1108,"x_min":54,"x_max":1063,"o":"m 54 0 m 1063 240 l 1063 0 l 235 0 q 144 17 179 0 q 89 61 110 33 q 54 163 54 107 q 64 214 54 188 q 94 265 74 240 q 118 287 104 276 q 160 317 132 297 l 664 671 q 668 679 668 672 q 657 690 668 690 l 61 690 l 61 939 l 871 939 q 956 925 924 939 q 1008 889 988 911 q 1040 840 1029 867 q 1051 786 1051 813 q 1036 715 1051 750 q 1016 683 1029 699 q 971 643 1003 667 l 464 265 q 456 253 456 258 q 472 240 456 240 l 1063 240 m 465 1000 l 222 1317 l 435 1317 l 568 1131 l 701 1317 l 913 1317 l 671 1000 l 465 1000 z "},"ƒ":{"ha":819,"x_min":71,"x_max":747,"o":"m 103 550 l 283 550 l 283 593 q 369 847 283 754 q 636 939 456 939 l 747 939 l 747 697 l 633 697 q 559 673 582 697 q 536 601 536 649 l 536 550 l 744 550 l 744 389 l 536 389 l 536 -3 q 516 -144 536 -81 q 453 -254 496 -208 q 344 -325 411 -300 q 185 -350 278 -350 l 71 -350 l 71 -110 l 185 -110 q 260 -85 238 -110 q 283 -11 283 -60 l 283 389 l 103 389 l 103 550 z "},"Ș":{"ha":1128,"x_min":36,"x_max":1096,"o":"m 36 0 m 1051 690 l 376 690 q 340 685 353 690 q 318 672 326 681 q 299 624 299 653 q 322 574 299 593 q 342 563 331 567 q 376 560 354 560 l 789 560 q 923 537 868 560 q 1015 475 978 514 q 1074 386 1053 436 q 1096 281 1096 336 q 1077 182 1096 229 q 1026 97 1058 135 q 930 26 988 53 q 789 0 872 0 l 61 0 l 61 240 l 744 240 q 790 247 774 240 q 815 264 806 253 q 831 307 831 282 q 811 357 831 338 q 787 373 801 368 q 744 378 772 378 l 363 378 q 210 401 268 378 q 115 463 153 424 q 57 551 78 501 q 36 658 36 600 q 58 765 36 715 q 117 854 79 815 q 211 916 154 893 q 363 939 268 939 l 1051 939 l 1051 690 m 715 -69 l 533 -350 l 335 -350 l 469 -69 l 715 -69 z "},"ș":{"ha":1128,"x_min":36,"x_max":1096,"o":"m 36 0 m 1051 690 l 376 690 q 340 685 353 690 q 318 672 326 681 q 299 624 299 653 q 322 574 299 593 q 342 563 331 567 q 376 560 354 560 l 789 560 q 923 537 868 560 q 1015 475 978 514 q 1074 386 1053 436 q 1096 281 1096 336 q 1077 182 1096 229 q 1026 97 1058 135 q 930 26 988 53 q 789 0 872 0 l 61 0 l 61 240 l 744 240 q 790 247 774 240 q 815 264 806 253 q 831 307 831 282 q 811 357 831 338 q 787 373 801 368 q 744 378 772 378 l 363 378 q 210 401 268 378 q 115 463 153 424 q 57 551 78 501 q 36 658 36 600 q 58 765 36 715 q 117 854 79 815 q 211 916 154 893 q 363 939 268 939 l 1051 939 l 1051 690 m 715 -69 l 533 -350 l 335 -350 l 469 -69 l 715 -69 z "},"Ț":{"ha":1133,"x_min":28,"x_max":1104,"o":"m 28 0 m 1104 939 l 1104 690 l 693 690 l 693 0 l 440 0 l 440 690 l 28 690 l 28 939 l 1104 939 m 690 -69 l 508 -350 l 310 -350 l 444 -69 l 690 -69 z "},"ț":{"ha":1133,"x_min":28,"x_max":1104,"o":"m 28 0 m 1104 939 l 1104 690 l 693 690 l 693 0 l 440 0 l 440 690 l 28 690 l 28 939 l 1104 939 m 690 -69 l 508 -350 l 310 -350 l 444 -69 l 690 -69 z "},"ˆ":{"ha":828,"x_min":68,"x_max":758,"o":"m 517 1317 l 758 1000 l 547 1000 l 414 1183 l 281 1000 l 68 1000 l 311 1317 l 517 1317 z "},"ˇ":{"ha":828,"x_min":68,"x_max":758,"o":"m 311 1000 l 68 1317 l 281 1317 l 414 1131 l 547 1317 l 758 1317 l 517 1000 l 311 1000 z "},"˘":{"ha":764,"x_min":68,"x_max":693,"o":"m 339 1000 q 215 1023 267 1000 q 132 1088 164 1046 q 85 1188 100 1129 q 68 1317 69 1246 l 239 1317 q 273 1174 239 1218 q 365 1131 307 1131 l 396 1131 q 488 1174 453 1131 q 524 1317 524 1218 l 693 1317 q 678 1192 693 1250 q 632 1091 664 1133 q 548 1024 600 1049 q 421 1000 496 1000 l 339 1000 z "},"˙":{"ha":350,"x_min":69,"x_max":279,"o":"m 279 1058 l 69 1058 l 69 1243 l 279 1243 l 279 1058 z "},"˚":{"ha":633,"x_min":68,"x_max":563,"o":"m 254 965 q 172 981 207 965 q 114 1022 138 996 q 68 1140 68 1071 q 83 1213 68 1179 q 125 1271 99 1247 q 181 1304 149 1292 q 254 1317 213 1317 l 375 1317 q 449 1304 418 1317 q 504 1271 481 1292 q 547 1213 532 1247 q 563 1140 563 1179 q 550 1076 563 1106 q 517 1022 538 1046 q 458 981 493 996 q 375 965 424 965 l 254 965 m 257 1213 q 223 1207 236 1213 q 199 1192 210 1201 q 178 1140 178 1172 q 196 1093 178 1111 q 257 1069 215 1069 l 374 1069 q 433 1093 415 1069 q 453 1140 453 1113 q 431 1192 453 1172 q 406 1207 419 1201 q 374 1213 393 1213 l 257 1213 z "},"˛":{"ha":482,"x_min":69,"x_max":478,"o":"m 286 -350 q 187 -336 226 -350 q 124 -297 147 -322 q 88 -238 100 -272 q 69 -164 75 -204 l 267 -19 l 267 -85 q 278 -120 267 -108 q 321 -132 289 -132 l 478 -132 l 478 -350 l 286 -350 z "},"˜":{"ha":856,"x_min":69,"x_max":785,"o":"m 785 1064 l 69 1064 l 69 1238 l 785 1238 l 785 1064 z "},"˝":{"ha":942,"x_min":69,"x_max":872,"o":"m 872 1317 l 653 1000 l 443 1000 l 608 1317 l 872 1317 m 499 1317 l 279 1000 l 69 1000 l 235 1317 l 499 1317 z "},"Δ":{"ha":1304,"x_min":26,"x_max":1275,"o":"m 1260 42 q 1269 21 1265 31 q 1275 0 1272 11 l 26 0 q 33 21 29 11 q 42 42 36 31 l 378 788 q 483 917 418 875 q 649 960 549 960 q 921 788 843 960 l 1260 42 m 418 240 l 878 240 l 688 683 q 670 706 681 699 q 647 713 660 713 q 625 706 635 713 q 608 683 615 700 l 418 240 z "},"Ω":{"ha":1229,"x_min":64,"x_max":1165,"o":"m 758 960 q 935 931 858 960 q 1063 852 1011 903 q 1140 732 1114 801 q 1165 581 1165 663 q 1148 469 1165 519 q 1102 377 1131 418 q 1036 306 1074 336 q 957 257 999 276 l 957 240 l 1150 240 l 1150 0 l 742 0 l 742 285 q 878 353 825 301 q 932 496 932 406 q 880 638 932 582 q 713 693 828 693 l 517 693 q 415 678 457 693 q 347 636 374 663 q 309 574 321 610 q 297 496 297 538 q 312 417 297 453 q 352 355 326 382 q 413 310 378 328 q 488 285 447 293 l 488 0 l 76 0 l 76 240 l 271 240 l 271 257 q 193 306 231 276 q 127 376 156 336 q 81 468 99 417 q 64 581 64 519 q 90 734 64 664 q 167 854 117 804 q 294 932 218 904 q 469 960 369 960 l 758 960 l 758 960 z "},"μ":{"ha":1147,"x_min":69,"x_max":1083,"o":"m 324 0 l 324 -350 l 69 -350 l 69 647 l 324 647 l 324 294 q 378 240 324 240 l 731 240 q 829 335 829 240 l 829 647 l 1083 647 l 1083 300 q 1006 72 1083 143 q 753 0 929 0 l 324 0 z "},"π":{"ha":1256,"x_min":71,"x_max":1221,"o":"m 1221 647 l 1221 406 l 1068 406 l 1068 0 l 814 0 l 814 406 l 324 406 l 324 0 l 71 0 l 71 647 l 1221 647 z "},"Ẁ":{"ha":1738,"x_min":31,"x_max":1707,"o":"m 31 0 m 872 736 q 842 708 849 736 l 696 190 q 599 31 665 82 q 424 -19 532 -19 q 312 -3 360 -19 q 231 40 264 13 q 178 107 197 68 q 151 190 158 146 l 35 894 q 31 939 31 921 l 296 939 q 297 922 296 932 q 299 903 297 913 l 397 261 q 431 229 401 229 q 451 235 443 229 q 464 258 460 242 l 607 763 q 697 912 636 864 q 872 960 758 960 q 1043 913 985 960 q 1128 769 1101 865 l 1268 258 q 1281 235 1272 242 q 1301 229 1289 229 q 1335 261 1329 229 l 1442 903 q 1444 923 1444 914 q 1444 939 1444 932 l 1707 939 q 1706 919 1707 928 q 1703 894 1706 910 l 1578 189 q 1495 38 1561 96 q 1303 -19 1429 -19 q 1038 190 1093 -19 l 903 708 q 872 736 896 736 m 849 1317 l 1014 1000 l 804 1000 l 585 1317 l 849 1317 z "},"ẁ":{"ha":1738,"x_min":31,"x_max":1707,"o":"m 31 0 m 872 736 q 842 708 849 736 l 696 190 q 599 31 665 82 q 424 -19 532 -19 q 312 -3 360 -19 q 231 40 264 13 q 178 107 197 68 q 151 190 158 146 l 35 894 q 31 939 31 921 l 296 939 q 297 922 296 932 q 299 903 297 913 l 397 261 q 431 229 401 229 q 451 235 443 229 q 464 258 460 242 l 607 763 q 697 912 636 864 q 872 960 758 960 q 1043 913 985 960 q 1128 769 1101 865 l 1268 258 q 1281 235 1272 242 q 1301 229 1289 229 q 1335 261 1329 229 l 1442 903 q 1444 923 1444 914 q 1444 939 1444 932 l 1707 939 q 1706 919 1707 928 q 1703 894 1706 910 l 1578 189 q 1495 38 1561 96 q 1303 -19 1429 -19 q 1038 190 1093 -19 l 903 708 q 872 736 896 736 m 849 1317 l 1014 1000 l 804 1000 l 585 1317 l 849 1317 z "},"Ẃ":{"ha":1738,"x_min":31,"x_max":1707,"o":"m 31 0 m 872 736 q 842 708 849 736 l 696 190 q 599 31 665 82 q 424 -19 532 -19 q 312 -3 360 -19 q 231 40 264 13 q 178 107 197 68 q 151 190 158 146 l 35 894 q 31 939 31 921 l 296 939 q 297 922 296 932 q 299 903 297 913 l 397 261 q 431 229 401 229 q 451 235 443 229 q 464 258 460 242 l 607 763 q 697 912 636 864 q 872 960 758 960 q 1043 913 985 960 q 1128 769 1101 865 l 1268 258 q 1281 235 1272 242 q 1301 229 1289 229 q 1335 261 1329 229 l 1442 903 q 1444 923 1444 914 q 1444 939 1444 932 l 1707 939 q 1706 919 1707 928 q 1703 894 1706 910 l 1578 189 q 1495 38 1561 96 q 1303 -19 1429 -19 q 1038 190 1093 -19 l 903 708 q 872 736 896 736 m 1153 1317 l 933 1000 l 724 1000 l 889 1317 l 1153 1317 z "},"ẃ":{"ha":1738,"x_min":31,"x_max":1707,"o":"m 31 0 m 872 736 q 842 708 849 736 l 696 190 q 599 31 665 82 q 424 -19 532 -19 q 312 -3 360 -19 q 231 40 264 13 q 178 107 197 68 q 151 190 158 146 l 35 894 q 31 939 31 921 l 296 939 q 297 922 296 932 q 299 903 297 913 l 397 261 q 431 229 401 229 q 451 235 443 229 q 464 258 460 242 l 607 763 q 697 912 636 864 q 872 960 758 960 q 1043 913 985 960 q 1128 769 1101 865 l 1268 258 q 1281 235 1272 242 q 1301 229 1289 229 q 1335 261 1329 229 l 1442 903 q 1444 923 1444 914 q 1444 939 1444 932 l 1707 939 q 1706 919 1707 928 q 1703 894 1706 910 l 1578 189 q 1495 38 1561 96 q 1303 -19 1429 -19 q 1038 190 1093 -19 l 903 708 q 872 736 896 736 m 1153 1317 l 933 1000 l 724 1000 l 889 1317 l 1153 1317 z "},"Ẅ":{"ha":1738,"x_min":31,"x_max":1707,"o":"m 31 0 m 872 736 q 842 708 849 736 l 696 190 q 599 31 665 82 q 424 -19 532 -19 q 312 -3 360 -19 q 231 40 264 13 q 178 107 197 68 q 151 190 158 146 l 35 894 q 31 939 31 921 l 296 939 q 297 922 296 932 q 299 903 297 913 l 397 261 q 431 229 401 229 q 451 235 443 229 q 464 258 460 242 l 607 763 q 697 912 636 864 q 872 960 758 960 q 1043 913 985 960 q 1128 769 1101 865 l 1268 258 q 1281 235 1272 242 q 1301 229 1289 229 q 1335 261 1329 229 l 1442 903 q 1444 923 1444 914 q 1444 939 1444 932 l 1707 939 q 1706 919 1707 928 q 1703 894 1706 910 l 1578 189 q 1495 38 1561 96 q 1303 -19 1429 -19 q 1038 190 1093 -19 l 903 708 q 872 736 896 736 m 1192 1058 l 981 1058 l 981 1243 l 1192 1243 l 1192 1058 m 754 1058 l 544 1058 l 544 1243 l 754 1243 l 754 1058 z "},"ẅ":{"ha":1738,"x_min":31,"x_max":1707,"o":"m 31 0 m 872 736 q 842 708 849 736 l 696 190 q 599 31 665 82 q 424 -19 532 -19 q 312 -3 360 -19 q 231 40 264 13 q 178 107 197 68 q 151 190 158 146 l 35 894 q 31 939 31 921 l 296 939 q 297 922 296 932 q 299 903 297 913 l 397 261 q 431 229 401 229 q 451 235 443 229 q 464 258 460 242 l 607 763 q 697 912 636 864 q 872 960 758 960 q 1043 913 985 960 q 1128 769 1101 865 l 1268 258 q 1281 235 1272 242 q 1301 229 1289 229 q 1335 261 1329 229 l 1442 903 q 1444 923 1444 914 q 1444 939 1444 932 l 1707 939 q 1706 919 1707 928 q 1703 894 1706 910 l 1578 189 q 1495 38 1561 96 q 1303 -19 1429 -19 q 1038 190 1093 -19 l 903 708 q 872 736 896 736 m 1192 1058 l 981 1058 l 981 1243 l 1192 1243 l 1192 1058 m 754 1058 l 544 1058 l 544 1243 l 754 1243 l 754 1058 z "},"Ỳ":{"ha":1186,"x_min":8,"x_max":1178,"o":"m 8 0 m 32 907 q 16 925 21 918 q 8 939 11 932 l 318 939 q 326 925 321 933 q 340 907 331 917 l 576 650 q 596 640 586 640 q 615 650 606 640 l 850 907 q 874 939 868 925 l 1178 939 q 1169 925 1174 932 q 1153 907 1164 918 l 713 421 l 713 0 l 458 0 l 458 438 l 32 907 m 572 1317 l 738 1000 l 528 1000 l 308 1317 l 572 1317 z "},"ỳ":{"ha":1186,"x_min":8,"x_max":1178,"o":"m 8 0 m 32 907 q 16 925 21 918 q 8 939 11 932 l 318 939 q 326 925 321 933 q 340 907 331 917 l 576 650 q 596 640 586 640 q 615 650 606 640 l 850 907 q 874 939 868 925 l 1178 939 q 1169 925 1174 932 q 1153 907 1164 918 l 713 421 l 713 0 l 458 0 l 458 438 l 32 907 m 572 1317 l 738 1000 l 528 1000 l 308 1317 l 572 1317 z "},"–":{"ha":897,"x_min":44,"x_max":853,"o":"m 44 549 l 853 549 l 853 389 l 44 389 l 44 549 z "},"—":{"ha":1306,"x_min":3,"x_max":1304,"o":"m 3 549 l 1304 549 l 1304 389 l 3 389 l 3 549 z "},"‘":{"ha":417,"x_min":64,"x_max":376,"o":"m 318 939 l 376 468 l 179 468 l 64 939 l 318 939 z "},"’":{"ha":417,"x_min":39,"x_max":351,"o":"m 351 939 l 236 468 l 39 468 l 99 939 l 351 939 z "},"‚":{"ha":417,"x_min":39,"x_max":351,"o":"m 351 244 l 236 -225 l 39 -225 l 99 244 l 351 244 z "},"“":{"ha":750,"x_min":64,"x_max":710,"o":"m 64 468 m 318 939 l 376 468 l 179 468 l 64 939 l 318 939 m 651 939 l 710 468 l 513 468 l 397 939 l 651 939 z "},"”":{"ha":750,"x_min":39,"x_max":685,"o":"m 39 468 m 351 939 l 236 468 l 39 468 l 99 939 l 351 939 m 685 939 l 569 468 l 372 468 l 432 939 l 685 939 z "},"„":{"ha":750,"x_min":39,"x_max":685,"o":"m 39 0 m 351 244 l 236 -225 l 39 -225 l 99 244 l 351 244 m 685 244 l 569 -225 l 372 -225 l 432 244 l 685 244 z "},"†":{"ha":718,"x_min":56,"x_max":661,"o":"m 294 0 l 294 653 l 56 653 l 56 771 l 294 771 l 294 939 l 433 939 l 433 771 l 661 771 l 661 653 l 433 653 l 433 0 l 294 0 z "},"‡":{"ha":718,"x_min":56,"x_max":661,"o":"m 294 0 l 294 167 l 56 167 l 56 286 l 294 286 l 294 653 l 56 653 l 56 771 l 294 771 l 294 939 l 433 939 l 433 771 l 661 771 l 661 653 l 433 653 l 433 286 l 661 286 l 661 167 l 433 167 l 433 0 l 294 0 z "},"•":{"ha":633,"x_min":69,"x_max":564,"o":"m 564 469 q 549 385 564 424 q 504 321 533 347 q 433 278 471 290 q 332 267 394 267 l 301 267 q 202 278 240 267 q 132 321 164 290 q 86 386 103 349 q 69 469 69 424 q 86 553 69 515 q 132 617 103 590 q 202 660 164 647 q 301 674 240 674 l 332 674 q 433 661 394 674 q 504 617 471 649 q 564 469 564 564 z "},"…":{"ha":1738,"x_min":117,"x_max":1619,"o":"m 117 0 m 369 244 l 369 0 l 117 0 l 117 244 l 369 244 m 994 244 l 994 0 l 742 0 l 742 244 l 994 244 m 1619 244 l 1619 0 l 1367 0 l 1367 244 l 1619 244 z "},"‰":{"ha":2133,"x_min":67,"x_max":2065,"o":"m 67 0 m 694 681 q 617 492 694 563 q 400 422 539 422 l 361 422 q 144 492 221 422 q 67 681 67 563 q 87 787 67 739 q 145 869 107 835 q 238 921 183 903 q 361 939 293 939 l 400 939 q 616 870 538 939 q 694 681 694 801 m 229 681 q 235 642 229 660 q 255 613 240 625 q 295 592 269 600 q 361 585 321 585 l 400 585 q 467 592 442 585 q 508 613 493 600 q 527 642 522 625 q 532 681 532 660 q 527 719 532 701 q 508 750 522 738 q 467 770 493 763 q 400 778 442 778 l 361 778 q 295 771 321 778 q 255 751 269 764 q 235 721 240 739 q 229 681 229 703 m 204 0 l 1075 939 l 1289 939 l 418 0 l 204 0 m 1422 258 q 1344 70 1422 140 q 1128 0 1267 0 l 1089 0 q 872 70 949 0 q 794 258 794 140 q 815 365 794 317 q 873 447 835 413 q 966 499 911 481 q 1089 517 1021 517 l 1128 517 q 1344 448 1265 517 q 1422 258 1422 379 m 957 258 q 963 220 957 238 q 983 190 968 203 q 1023 170 997 178 q 1089 163 1049 163 l 1128 163 q 1195 170 1169 163 q 1235 190 1221 178 q 1255 220 1250 203 q 1260 258 1260 238 q 1255 297 1260 279 q 1235 328 1250 315 q 1195 348 1221 340 q 1128 356 1169 356 l 1089 356 q 1023 349 1049 356 q 983 329 997 342 q 963 299 968 317 q 957 258 957 281 m 2065 258 q 1988 70 2065 140 q 1771 0 1910 0 l 1732 0 q 1515 70 1592 0 q 1438 258 1438 140 q 1458 365 1438 317 q 1516 447 1478 413 q 1609 499 1554 481 q 1732 517 1664 517 l 1771 517 q 1987 448 1908 517 q 2065 258 2065 379 m 1600 258 q 1606 220 1600 238 q 1626 190 1611 203 q 1666 170 1640 178 q 1732 163 1692 163 l 1771 163 q 1838 170 1813 163 q 1878 190 1864 178 q 1898 220 1893 203 q 1903 258 1903 238 q 1898 297 1903 279 q 1878 328 1893 315 q 1838 348 1864 340 q 1771 356 1813 356 l 1732 356 q 1666 349 1692 356 q 1626 329 1640 342 q 1606 299 1611 317 q 1600 258 1600 281 z "},"‹":{"ha":374,"x_min":29,"x_max":344,"o":"m 344 939 l 200 496 q 194 469 194 481 q 200 443 194 460 l 344 0 l 176 0 l 39 418 q 32 444 35 432 q 29 468 29 456 q 32 494 29 482 q 39 521 35 506 l 176 939 l 344 939 z "},"›":{"ha":374,"x_min":29,"x_max":344,"o":"m 197 939 l 335 521 q 342 494 339 506 q 344 468 344 482 q 342 444 344 456 q 335 418 339 432 l 197 0 l 29 0 l 174 443 q 179 469 179 460 q 174 496 179 481 l 29 939 l 197 939 z "},"⁄":{"ha":488,"x_min":-299,"x_max":786,"o":"m -299 0 l 572 939 l 786 939 l -85 0 l -299 0 z "},"⁰":{"ha":719,"x_min":46,"x_max":674,"o":"m 46 422 m 674 681 q 596 492 674 563 q 379 422 518 422 l 340 422 q 123 492 200 422 q 46 681 46 563 q 66 787 46 739 q 124 869 86 835 q 217 921 163 903 q 340 939 272 939 l 379 939 q 595 870 517 939 q 674 681 674 801 m 208 681 q 214 642 208 660 q 234 613 219 625 q 274 592 249 600 q 340 585 300 585 l 379 585 q 447 592 421 585 q 487 613 472 600 q 506 642 501 625 q 511 681 511 660 q 506 719 511 701 q 487 750 501 738 q 447 770 472 763 q 379 778 421 778 l 340 778 q 274 771 300 778 q 234 751 249 764 q 214 721 219 739 q 208 681 208 703 z "},"⁴":{"ha":688,"x_min":38,"x_max":633,"o":"m 38 422 m 469 422 l 469 492 l 139 492 q 89 499 108 492 q 58 518 69 506 q 42 546 46 531 q 38 578 38 561 q 45 615 38 596 q 83 657 53 635 l 454 926 q 521 950 488 950 q 562 943 542 950 q 598 921 582 936 q 624 882 614 906 q 633 824 633 858 l 633 422 l 469 422 m 469 742 q 460 754 469 754 q 453 751 456 754 q 367 690 399 711 q 318 657 335 668 q 297 642 301 646 q 292 633 292 638 q 300 626 292 626 q 317 627 307 626 q 344 628 326 628 q 392 628 363 628 q 469 629 421 629 l 469 742 z "},"⁵":{"ha":665,"x_min":49,"x_max":636,"o":"m 49 422 m 438 578 q 460 583 450 578 q 471 604 471 589 q 464 624 471 618 q 438 631 457 631 l 107 631 q 69 645 79 631 q 60 688 60 660 l 69 889 q 85 926 71 914 q 124 939 100 939 l 617 939 l 617 778 l 247 778 q 235 768 236 778 l 233 740 q 246 731 233 731 l 461 731 q 589 689 542 731 q 636 576 636 647 q 590 464 636 506 q 461 422 544 422 l 49 422 l 49 578 l 438 578 l 438 578 z "},"⁶":{"ha":647,"x_min":39,"x_max":615,"o":"m 39 422 m 408 939 q 406 933 408 936 q 399 921 404 931 q 383 894 394 911 q 354 849 372 878 q 322 805 338 824 q 307 781 307 786 q 314 775 307 775 q 349 776 325 775 q 414 778 372 778 q 563 731 510 778 q 615 600 615 683 q 561 468 615 514 q 414 422 507 422 l 240 422 q 92 469 144 422 q 39 600 39 517 q 47 655 39 629 q 74 711 54 681 l 203 921 q 210 939 207 931 l 408 939 m 264 651 q 232 645 247 651 q 217 615 217 639 q 225 589 217 600 q 264 578 233 578 l 406 578 q 443 589 433 578 q 453 615 453 600 q 445 640 453 629 q 406 651 438 651 l 264 651 z "},"⁷":{"ha":647,"x_min":33,"x_max":618,"o":"m 33 422 m 33 778 l 33 939 l 492 939 q 581 908 544 939 q 618 822 618 876 q 613 791 618 806 q 597 760 608 776 l 386 442 l 376 422 l 169 422 q 174 432 171 428 q 179 443 176 436 l 315 647 q 374 726 349 697 q 400 769 400 754 q 386 781 400 781 q 338 779 368 781 q 257 778 307 778 l 33 778 z "},"⁸":{"ha":674,"x_min":43,"x_max":631,"o":"m 43 422 m 218 422 q 90 465 138 422 q 43 576 43 507 q 54 638 43 608 q 92 682 65 667 q 58 728 67 701 q 49 783 49 756 q 58 840 49 813 q 89 890 68 868 q 143 925 110 911 q 224 939 176 939 l 450 939 q 531 925 497 939 q 585 890 564 911 q 615 840 606 868 q 625 783 625 813 q 616 728 625 756 q 582 682 607 701 q 619 638 608 667 q 631 576 631 608 q 583 465 631 507 q 454 422 536 422 l 218 422 m 257 633 q 218 600 218 633 q 228 576 218 586 q 257 567 238 567 l 417 567 q 454 600 454 567 q 417 633 454 633 l 257 633 m 257 789 q 221 760 221 789 q 257 729 221 729 l 415 729 q 444 737 436 729 q 453 760 453 744 q 415 789 453 789 l 257 789 z "},"⁹":{"ha":647,"x_min":38,"x_max":614,"o":"m 38 422 m 247 422 q 253 437 249 428 q 279 479 257 446 q 326 549 313 532 q 340 571 340 567 q 331 581 340 581 q 303 579 319 581 q 242 578 286 578 q 91 626 144 578 q 38 758 38 674 q 91 890 38 842 q 242 939 144 939 l 408 939 q 561 890 508 939 q 614 758 614 842 q 585 653 614 700 l 453 440 q 444 422 446 429 l 247 422 m 394 713 q 426 719 411 713 q 442 749 442 726 q 432 776 442 765 q 394 786 422 786 l 251 786 q 213 775 221 786 q 204 749 204 764 q 212 724 204 736 q 251 713 219 713 l 394 713 z "},"₀":{"ha":719,"x_min":46,"x_max":674,"o":"m 674 258 q 596 70 674 140 q 379 0 518 0 l 340 0 q 123 70 200 0 q 46 258 46 140 q 66 365 46 317 q 124 447 86 413 q 217 499 163 481 q 340 517 272 517 l 379 517 q 595 448 517 517 q 674 258 674 379 m 208 258 q 214 220 208 238 q 234 190 219 203 q 274 170 249 178 q 340 163 300 163 l 379 163 q 447 170 421 163 q 487 190 472 178 q 506 220 501 203 q 511 258 511 238 q 506 297 511 279 q 487 328 501 315 q 447 348 472 340 q 379 356 421 356 l 340 356 q 274 349 300 356 q 234 329 249 342 q 214 299 219 317 q 208 258 208 281 z "},"₁":{"ha":358,"x_min":40,"x_max":294,"o":"m 165 517 q 267 484 239 517 q 294 374 294 451 l 294 -1 l 133 -1 l 133 333 q 113 356 133 356 l 40 356 l 40 517 l 165 517 z "},"₂":{"ha":632,"x_min":33,"x_max":597,"o":"m 43 517 l 431 517 q 550 476 503 517 q 597 363 597 435 q 569 278 597 317 q 494 221 542 240 q 408 188 440 200 q 360 170 376 176 q 340 162 344 164 q 336 157 336 160 q 342 151 336 151 q 398 153 361 151 q 501 156 435 156 l 590 156 l 590 0 l 140 0 q 60 31 88 0 q 33 101 33 63 q 50 156 33 131 q 100 196 67 181 q 256 261 197 238 q 347 298 315 285 q 388 319 378 311 q 397 335 397 326 q 389 353 397 349 q 369 357 381 357 q 330 356 350 357 q 263 356 310 356 l 43 356 l 43 517 z "},"₃":{"ha":626,"x_min":49,"x_max":597,"o":"m 492 517 q 562 494 540 517 q 583 438 583 471 q 581 417 583 426 q 569 396 578 407 q 547 372 561 385 q 513 342 533 360 q 503 335 510 339 q 489 326 496 331 q 477 317 482 321 q 472 310 472 313 q 476 306 472 307 q 563 254 529 290 q 597 158 597 218 q 588 103 597 132 q 558 52 578 75 q 506 15 538 29 q 432 0 475 0 l 49 0 l 49 156 l 374 156 q 398 165 390 156 q 406 185 406 174 q 398 201 406 193 q 374 210 390 210 l 278 210 q 228 224 240 210 q 217 258 217 239 q 222 279 217 269 q 246 303 226 289 l 268 318 q 303 339 286 331 q 319 354 319 347 q 315 358 319 358 q 291 357 304 358 q 257 356 278 356 l 50 356 l 50 517 l 492 517 z "},"₄":{"ha":688,"x_min":38,"x_max":633,"o":"m 469 0 l 469 69 l 139 69 q 89 76 108 69 q 58 96 69 83 q 42 124 46 108 q 38 156 38 139 q 45 193 38 174 q 83 235 53 213 l 454 504 q 521 528 488 528 q 562 521 542 528 q 598 499 582 514 q 624 460 614 483 q 633 401 633 436 l 633 0 l 469 0 m 469 319 q 460 332 469 332 q 453 329 456 332 q 367 267 399 289 q 318 235 335 246 q 297 219 301 224 q 292 211 292 215 q 300 204 292 204 q 317 205 307 204 q 344 206 326 206 q 392 206 363 206 q 469 207 421 207 l 469 319 z "},"₅":{"ha":665,"x_min":49,"x_max":636,"o":"m 438 156 q 460 161 450 156 q 471 182 471 167 q 464 202 471 196 q 438 208 457 208 l 107 208 q 69 223 79 208 q 60 265 60 238 l 69 467 q 85 504 71 492 q 124 517 100 517 l 617 517 l 617 356 l 247 356 q 235 346 236 356 l 233 318 q 246 308 233 308 l 461 308 q 589 267 542 308 q 636 154 636 225 q 590 42 636 83 q 461 0 544 0 l 49 0 l 49 156 l 438 156 l 438 156 z "},"₆":{"ha":647,"x_min":39,"x_max":615,"o":"m 408 517 q 406 511 408 514 q 399 499 404 508 q 383 472 394 489 q 354 426 372 456 q 322 383 338 401 q 307 358 307 364 q 314 353 307 353 q 349 354 325 353 q 414 356 372 356 q 563 308 510 356 q 615 178 615 261 q 561 46 615 92 q 414 0 507 0 l 240 0 q 92 47 144 0 q 39 178 39 94 q 47 233 39 207 q 74 289 54 258 l 203 499 q 210 517 207 508 l 408 517 m 264 229 q 232 223 247 229 q 217 193 217 217 q 225 167 217 178 q 264 156 233 156 l 406 156 q 443 167 433 156 q 453 193 453 178 q 445 218 453 207 q 406 229 438 229 l 264 229 z "},"₇":{"ha":647,"x_min":33,"x_max":618,"o":"m 33 356 l 33 517 l 492 517 q 581 485 544 517 q 618 400 618 454 q 613 369 618 383 q 597 338 608 354 l 386 19 l 376 0 l 169 0 q 174 10 171 6 q 179 21 176 14 l 315 225 q 374 303 349 275 q 400 347 400 332 q 386 358 400 358 q 338 357 368 358 q 257 356 307 356 l 33 356 z "},"₈":{"ha":674,"x_min":43,"x_max":631,"o":"m 218 0 q 90 42 138 0 q 43 154 43 85 q 54 215 43 186 q 92 260 65 244 q 58 306 67 279 q 49 361 49 333 q 58 418 49 390 q 89 467 68 446 q 143 503 110 489 q 224 517 176 517 l 450 517 q 531 503 497 517 q 585 467 564 489 q 615 418 606 446 q 625 361 625 390 q 616 306 625 333 q 582 260 607 279 q 619 215 608 244 q 631 154 631 186 q 583 42 631 85 q 454 0 536 0 l 218 0 m 257 211 q 218 178 218 211 q 228 154 218 164 q 257 144 238 144 l 417 144 q 454 178 454 144 q 417 211 454 211 l 257 211 m 257 367 q 221 338 221 367 q 257 307 221 307 l 415 307 q 444 315 436 307 q 453 338 453 322 q 415 367 453 367 l 257 367 z "},"₉":{"ha":647,"x_min":38,"x_max":614,"o":"m 247 0 q 253 15 249 6 q 279 57 257 24 q 326 127 313 110 q 340 149 340 144 q 331 158 340 158 q 303 157 319 158 q 242 156 286 156 q 91 203 144 156 q 38 336 38 251 q 91 468 38 419 q 242 517 144 517 l 408 517 q 561 468 508 517 q 614 336 614 419 q 585 231 614 278 l 453 18 q 444 0 446 7 l 247 0 m 394 290 q 426 297 411 290 q 442 326 442 304 q 432 353 442 343 q 394 364 422 364 l 251 364 q 213 353 221 364 q 204 326 204 342 q 212 302 204 314 q 251 290 219 290 l 394 290 z "},"€":{"ha":1100,"x_min":11,"x_max":1074,"o":"m 69 549 l 140 549 q 187 695 153 628 q 278 811 221 763 q 353 867 315 843 q 435 908 390 892 q 533 931 479 924 q 653 939 586 939 l 1074 939 l 953 704 l 710 704 q 503 670 576 704 q 401 549 429 636 l 872 549 l 790 388 l 400 388 q 497 264 425 301 q 708 226 568 226 l 1038 226 l 1038 0 l 693 0 q 549 8 611 0 q 437 31 486 15 q 347 74 388 47 q 267 138 306 100 q 183 250 214 186 q 140 388 151 314 l 11 388 l 69 549 z "},"₹":{"ha":994,"x_min":19,"x_max":968,"o":"m 68 372 q 47 414 47 390 q 62 449 47 433 q 101 464 76 464 l 385 464 q 541 483 486 464 q 613 556 596 503 l 19 556 l 42 696 l 622 696 q 601 744 615 725 q 560 776 586 764 q 494 792 533 788 q 396 797 454 797 l 42 797 l 63 939 l 968 939 l 946 797 l 793 797 q 846 696 831 756 l 968 696 l 944 556 l 856 556 q 824 460 849 507 q 763 375 800 413 q 676 315 725 338 q 571 292 626 292 l 481 292 q 471 283 471 292 q 475 275 471 279 l 751 31 q 781 0 771 13 l 465 0 q 444 25 457 13 l 68 372 z "},"₺":{"ha":1157,"x_min":21,"x_max":1122,"o":"m 21 774 l 122 796 l 122 939 l 374 939 l 374 850 l 703 925 l 703 764 l 374 690 l 374 581 l 703 656 l 703 494 l 374 419 l 374 260 q 390 240 374 240 l 585 240 q 715 254 661 240 q 803 297 769 268 q 851 368 836 325 q 868 469 867 411 l 1122 469 q 1085 274 1121 361 q 980 126 1049 186 q 812 33 911 65 q 586 0 713 0 l 182 0 q 122 60 122 0 l 122 365 l 21 342 l 21 504 l 122 525 l 122 635 l 21 613 l 21 774 z "},"₽":{"ha":1181,"x_min":22,"x_max":1143,"o":"m 22 494 l 149 494 l 149 881 q 208 939 149 939 l 813 939 q 1054 857 965 939 q 1143 624 1143 775 q 1056 407 1143 485 q 813 329 969 329 l 400 329 l 400 250 l 1057 250 l 1057 86 l 400 86 l 400 0 l 149 0 l 149 86 l 22 86 l 22 250 l 149 250 l 149 329 l 22 329 l 22 494 m 779 494 q 858 520 826 494 q 889 592 889 546 q 862 664 889 638 q 781 690 835 690 l 415 690 q 400 672 400 690 l 400 494 l 779 494 z "},"℗":{"ha":1224,"x_min":47,"x_max":1174,"o":"m 692 679 q 817 638 771 679 q 863 522 863 597 q 816 409 863 449 q 692 369 769 369 l 507 369 l 507 261 l 388 261 l 388 649 q 418 679 388 679 l 692 679 m 699 479 q 732 490 719 479 q 744 519 744 500 q 732 549 744 538 q 699 560 719 560 l 515 560 q 507 550 507 560 l 507 479 l 699 479 m 1174 469 q 1137 276 1174 363 q 1031 126 1100 189 q 953 68 993 92 q 867 29 914 44 q 765 7 821 14 q 639 0 710 0 l 582 0 q 456 7 511 0 q 353 29 400 14 q 267 68 307 44 q 190 126 228 92 q 85 276 122 189 q 47 469 47 363 q 85 663 47 578 q 190 811 122 749 q 267 870 228 846 q 353 910 307 894 q 456 932 400 925 q 582 939 511 939 l 639 939 q 765 932 710 939 q 868 909 821 925 q 954 869 915 893 q 1031 811 993 844 q 1137 663 1100 749 q 1174 469 1174 578 m 1051 469 q 1024 613 1051 550 q 949 721 997 676 q 890 765 921 746 q 823 794 860 783 q 741 811 786 806 q 639 817 696 817 l 582 817 q 480 811 525 817 q 398 794 435 806 q 331 765 361 783 q 272 721 300 746 q 197 613 224 676 q 169 469 169 550 q 197 326 169 390 q 272 217 224 263 q 330 172 300 190 q 397 143 360 154 q 478 127 433 132 q 582 122 524 122 l 639 122 q 741 127 696 122 q 823 144 786 132 q 890 174 860 156 q 949 217 921 192 q 1024 325 997 261 q 1051 469 1051 389 z "},"™":{"ha":1050,"x_min":46,"x_max":979,"o":"m 144 465 l 144 835 l 46 835 l 46 939 l 339 939 l 339 835 l 244 835 l 244 465 l 144 465 m 875 465 l 875 849 l 771 465 l 618 465 l 506 849 l 506 465 l 400 465 l 400 939 l 601 939 l 696 551 l 786 939 l 979 939 l 979 465 l 875 465 z "},"⅓":{"ha":1431,"x_min":67,"x_max":1363,"o":"m 67 0 m 282 939 q 383 906 356 939 q 411 796 411 874 l 411 421 l 250 421 l 250 756 q 229 778 250 778 l 157 778 l 157 939 l 282 939 m 67 0 l 938 939 l 1151 939 l 281 0 l 67 0 m 1257 517 q 1327 494 1306 517 q 1349 438 1349 471 q 1346 417 1349 426 q 1335 396 1343 407 q 1313 372 1326 385 q 1278 342 1299 360 q 1268 335 1275 339 q 1254 326 1261 331 q 1242 317 1247 321 q 1238 310 1238 313 q 1242 306 1238 307 q 1328 254 1294 290 q 1363 158 1363 218 q 1353 103 1363 132 q 1323 52 1343 75 q 1272 15 1303 29 q 1197 0 1240 0 l 814 0 l 814 156 l 1139 156 q 1163 165 1156 156 q 1171 185 1171 174 q 1163 201 1171 193 q 1139 210 1156 210 l 1043 210 q 994 224 1006 210 q 982 258 982 239 q 987 279 982 269 q 1011 303 992 289 l 1033 318 q 1068 339 1051 331 q 1085 354 1085 347 q 1081 358 1085 358 q 1056 357 1069 358 q 1022 356 1043 356 l 815 356 l 815 517 l 1257 517 z "},"⅔":{"ha":1608,"x_min":67,"x_max":1540,"o":"m 67 0 m 76 939 l 464 939 q 583 898 536 939 q 631 785 631 857 q 603 701 631 739 q 528 643 575 663 q 442 610 474 622 q 394 592 410 599 q 374 584 378 586 q 369 579 369 582 q 375 574 369 574 q 431 576 394 574 q 535 578 468 578 l 624 578 l 624 422 l 174 422 q 94 453 121 422 q 67 524 67 485 q 83 578 67 553 q 133 618 100 603 q 290 683 231 660 q 380 720 349 707 q 421 741 411 733 q 431 757 431 749 q 422 775 431 771 q 403 779 414 779 q 363 778 383 779 q 296 778 343 778 l 76 778 l 76 939 m 271 0 l 1142 939 l 1356 939 l 485 0 l 271 0 m 1435 517 q 1505 494 1483 517 q 1526 438 1526 471 q 1524 417 1526 426 q 1513 396 1521 407 q 1490 372 1504 385 q 1456 342 1476 360 q 1446 335 1453 339 q 1432 326 1439 331 q 1420 317 1425 321 q 1415 310 1415 313 q 1419 306 1415 307 q 1506 254 1472 290 q 1540 158 1540 218 q 1531 103 1540 132 q 1501 52 1521 75 q 1449 15 1481 29 q 1375 0 1418 0 l 992 0 l 992 156 l 1317 156 q 1341 165 1333 156 q 1349 185 1349 174 q 1341 201 1349 193 q 1317 210 1333 210 l 1221 210 q 1172 224 1183 210 q 1160 258 1160 239 q 1165 279 1160 269 q 1189 303 1169 289 l 1211 318 q 1246 339 1229 331 q 1263 354 1263 347 q 1258 358 1263 358 q 1234 357 1247 358 q 1200 356 1221 356 l 993 356 l 993 517 l 1435 517 z "},"⅕":{"ha":1424,"x_min":67,"x_max":1356,"o":"m 67 0 m 301 939 q 403 906 375 939 q 431 796 431 874 l 431 421 l 269 421 l 269 756 q 249 778 269 778 l 176 778 l 176 939 l 301 939 m 67 0 l 938 939 l 1151 939 l 281 0 l 67 0 m 1157 156 q 1180 161 1169 156 q 1190 182 1190 167 q 1183 202 1190 196 q 1157 208 1176 208 l 826 208 q 789 223 799 208 q 779 265 779 238 l 789 467 q 805 504 790 492 q 843 517 819 517 l 1336 517 l 1336 356 l 967 356 q 954 346 956 356 l 953 318 q 965 308 953 308 l 1181 308 q 1308 267 1261 308 q 1356 154 1356 225 q 1310 42 1356 83 q 1181 0 1264 0 l 768 0 l 768 156 l 1157 156 l 1157 156 z "},"⅖":{"ha":1613,"x_min":67,"x_max":1544,"o":"m 67 0 m 76 939 l 464 939 q 583 898 536 939 q 631 785 631 857 q 603 701 631 739 q 528 643 575 663 q 442 610 474 622 q 394 592 410 599 q 374 584 378 586 q 369 579 369 582 q 375 574 369 574 q 431 576 394 574 q 535 578 468 578 l 624 578 l 624 422 l 174 422 q 94 453 121 422 q 67 524 67 485 q 83 578 67 553 q 133 618 100 603 q 290 683 231 660 q 380 720 349 707 q 421 741 411 733 q 431 757 431 749 q 422 775 431 771 q 403 779 414 779 q 363 778 383 779 q 296 778 343 778 l 76 778 l 76 939 m 261 0 l 1132 939 l 1346 939 l 475 0 l 261 0 m 1346 156 q 1369 161 1358 156 q 1379 182 1379 167 q 1372 202 1379 196 q 1346 208 1365 208 l 1015 208 q 978 223 988 208 q 968 265 968 238 l 978 467 q 994 504 979 492 q 1032 517 1008 517 l 1525 517 l 1525 356 l 1156 356 q 1143 346 1144 356 l 1142 318 q 1154 308 1142 308 l 1369 308 q 1497 267 1450 308 q 1544 154 1544 225 q 1499 42 1544 83 q 1369 0 1453 0 l 957 0 l 957 156 l 1346 156 l 1346 156 z "},"⅗":{"ha":1514,"x_min":67,"x_max":1446,"o":"m 67 0 m 510 939 q 580 916 558 939 q 601 860 601 893 q 599 839 601 849 q 588 818 596 829 q 565 794 579 807 q 531 764 551 782 q 521 757 528 761 q 507 748 514 753 q 495 739 500 743 q 490 732 490 735 q 494 728 490 729 q 581 676 547 713 q 615 581 615 640 q 606 526 615 554 q 576 474 596 497 q 524 437 556 451 q 450 422 493 422 l 67 422 l 67 578 l 392 578 q 416 587 408 578 q 424 607 424 596 q 416 624 424 615 q 392 632 408 632 l 296 632 q 247 647 258 632 q 235 681 235 661 q 240 701 235 692 q 264 725 244 711 l 286 740 q 321 761 304 753 q 338 776 338 769 q 333 781 338 781 q 309 779 322 781 q 275 778 296 778 l 68 778 l 68 939 l 510 939 m 175 0 l 1046 939 l 1260 939 l 389 0 l 175 0 m 1247 156 q 1270 161 1260 156 q 1281 182 1281 167 q 1274 202 1281 196 q 1247 208 1267 208 l 917 208 q 879 223 889 208 q 869 265 869 238 l 879 467 q 895 504 881 492 q 933 517 910 517 l 1426 517 l 1426 356 l 1057 356 q 1044 346 1046 356 l 1043 318 q 1056 308 1043 308 l 1271 308 q 1399 267 1351 308 q 1446 154 1446 225 q 1400 42 1446 83 q 1271 0 1354 0 l 858 0 l 858 156 l 1247 156 l 1247 156 z "},"⅘":{"ha":1642,"x_min":67,"x_max":1574,"o":"m 67 0 m 499 422 l 499 492 l 168 492 q 118 499 138 492 q 87 518 99 506 q 71 546 75 531 q 67 578 67 561 q 74 615 67 596 q 113 657 82 635 l 483 926 q 550 950 517 950 q 591 943 571 950 q 627 921 611 936 q 653 882 643 906 q 663 824 663 858 l 663 422 l 499 422 m 499 742 q 489 754 499 754 q 482 751 485 754 q 396 690 428 711 q 347 657 364 668 q 326 642 331 646 q 321 633 321 638 q 329 626 321 626 q 346 627 336 626 q 374 628 356 628 q 421 628 392 628 q 499 629 450 629 l 499 742 m 297 0 l 1168 939 l 1382 939 l 511 0 l 297 0 m 1375 156 q 1398 161 1388 156 q 1408 182 1408 167 q 1401 202 1408 196 q 1375 208 1394 208 l 1044 208 q 1007 223 1017 208 q 997 265 997 238 l 1007 467 q 1023 504 1008 492 q 1061 517 1038 517 l 1554 517 l 1554 356 l 1185 356 q 1172 346 1174 356 l 1171 318 q 1183 308 1171 308 l 1399 308 q 1526 267 1479 308 q 1574 154 1574 225 q 1528 42 1574 83 q 1399 0 1482 0 l 986 0 l 986 156 l 1375 156 l 1375 156 z "},"⅙":{"ha":1329,"x_min":67,"x_max":1261,"o":"m 67 0 m 299 939 q 400 906 372 939 q 428 796 428 874 l 428 421 l 267 421 l 267 756 q 246 778 267 778 l 174 778 l 174 939 l 299 939 m 67 0 l 938 939 l 1151 939 l 281 0 l 67 0 m 1054 517 q 1052 511 1054 514 q 1045 499 1050 508 q 1029 472 1040 489 q 1000 426 1018 456 q 968 383 983 401 q 953 358 953 364 q 960 353 953 353 q 994 354 971 353 q 1060 356 1018 356 q 1208 308 1156 356 q 1261 178 1261 261 q 1207 46 1261 92 q 1060 0 1153 0 l 886 0 q 738 47 790 0 q 685 178 685 94 q 692 233 685 207 q 719 289 700 258 l 849 499 q 856 517 853 508 l 1054 517 m 910 229 q 878 223 893 229 q 863 193 863 217 q 871 167 863 178 q 910 156 879 156 l 1051 156 q 1089 167 1079 156 q 1099 193 1099 178 q 1091 218 1099 207 q 1051 229 1083 229 l 910 229 z "},"⅚":{"ha":1483,"x_min":67,"x_max":1415,"o":"m 67 0 m 456 578 q 478 583 468 578 q 489 604 489 589 q 482 624 489 618 q 456 631 475 631 l 125 631 q 88 645 97 631 q 78 688 78 660 l 88 889 q 103 926 89 914 q 142 939 118 939 l 635 939 l 635 778 l 265 778 q 253 768 254 778 l 251 740 q 264 731 251 731 l 479 731 q 607 689 560 731 q 654 576 654 647 q 608 464 654 506 q 479 422 563 422 l 67 422 l 67 578 l 456 578 l 456 578 m 221 0 l 1092 939 l 1306 939 l 435 0 l 221 0 m 1208 517 q 1206 511 1208 514 q 1199 499 1204 508 q 1183 472 1194 489 q 1154 426 1172 456 q 1122 383 1138 401 q 1107 358 1107 364 q 1114 353 1107 353 q 1149 354 1125 353 q 1214 356 1172 356 q 1363 308 1310 356 q 1415 178 1415 261 q 1361 46 1415 92 q 1214 0 1307 0 l 1040 0 q 892 47 944 0 q 839 178 839 94 q 847 233 839 207 q 874 289 854 258 l 1003 499 q 1010 517 1007 508 l 1208 517 m 1064 229 q 1032 223 1047 229 q 1017 193 1017 217 q 1025 167 1017 178 q 1064 156 1033 156 l 1206 156 q 1243 167 1233 156 q 1253 193 1253 178 q 1245 218 1253 207 q 1206 229 1238 229 l 1064 229 z "},"⅛":{"ha":1372,"x_min":67,"x_max":1304,"o":"m 67 0 m 286 939 q 388 906 360 939 q 415 796 415 874 l 415 421 l 254 421 l 254 756 q 233 778 254 778 l 161 778 l 161 939 l 286 939 m 67 0 l 938 939 l 1151 939 l 281 0 l 67 0 m 892 0 q 764 42 811 0 q 717 154 717 85 q 728 215 717 186 q 765 260 739 244 q 731 306 740 279 q 722 361 722 333 q 732 418 722 390 q 763 467 742 446 q 817 503 783 489 q 897 517 850 517 l 1124 517 q 1204 503 1171 517 q 1258 467 1238 489 q 1289 418 1279 446 q 1299 361 1299 390 q 1290 306 1299 333 q 1256 260 1281 279 q 1293 215 1282 244 q 1304 154 1304 186 q 1257 42 1304 85 q 1128 0 1210 0 l 892 0 m 931 211 q 892 178 892 211 q 901 154 892 164 q 931 144 911 144 l 1090 144 q 1128 178 1128 144 q 1090 211 1128 211 l 931 211 m 931 367 q 894 338 894 367 q 931 307 894 307 l 1089 307 q 1118 315 1110 307 q 1126 338 1126 322 q 1089 367 1126 367 l 931 367 z "},"⅜":{"ha":1475,"x_min":67,"x_max":1407,"o":"m 67 0 m 510 939 q 580 916 558 939 q 601 860 601 893 q 599 839 601 849 q 588 818 596 829 q 565 794 579 807 q 531 764 551 782 q 521 757 528 761 q 507 748 514 753 q 495 739 500 743 q 490 732 490 735 q 494 728 490 729 q 581 676 547 713 q 615 581 615 640 q 606 526 615 554 q 576 474 596 497 q 524 437 556 451 q 450 422 493 422 l 67 422 l 67 578 l 392 578 q 416 587 408 578 q 424 607 424 596 q 416 624 424 615 q 392 632 408 632 l 296 632 q 247 647 258 632 q 235 681 235 661 q 240 701 235 692 q 264 725 244 711 l 286 740 q 321 761 304 753 q 338 776 338 769 q 333 781 338 781 q 309 779 322 781 q 275 778 296 778 l 68 778 l 68 939 l 510 939 m 175 0 l 1046 939 l 1260 939 l 389 0 l 175 0 m 994 0 q 867 42 914 0 q 819 154 819 85 q 831 215 819 186 q 868 260 842 244 q 834 306 843 279 q 825 361 825 333 q 835 418 825 390 q 865 467 844 446 q 919 503 886 489 q 1000 517 953 517 l 1226 517 q 1307 503 1274 517 q 1361 467 1340 489 q 1392 418 1382 446 q 1401 361 1401 390 q 1392 306 1401 333 q 1358 260 1383 279 q 1396 215 1385 244 q 1407 154 1407 186 q 1360 42 1407 85 q 1231 0 1313 0 l 994 0 m 1033 211 q 994 178 994 211 q 1004 154 994 164 q 1033 144 1014 144 l 1193 144 q 1231 178 1231 144 q 1193 211 1231 211 l 1033 211 m 1033 367 q 997 338 997 367 q 1033 307 997 307 l 1192 307 q 1221 315 1213 307 q 1229 338 1229 322 q 1192 367 1229 367 l 1033 367 z "},"⅝":{"ha":1526,"x_min":67,"x_max":1458,"o":"m 67 0 m 456 578 q 478 583 468 578 q 489 604 489 589 q 482 624 489 618 q 456 631 475 631 l 125 631 q 88 645 97 631 q 78 688 78 660 l 88 889 q 103 926 89 914 q 142 939 118 939 l 635 939 l 635 778 l 265 778 q 253 768 254 778 l 251 740 q 264 731 251 731 l 479 731 q 607 689 560 731 q 654 576 654 647 q 608 464 654 506 q 479 422 563 422 l 67 422 l 67 578 l 456 578 l 456 578 m 221 0 l 1092 939 l 1306 939 l 435 0 l 221 0 m 1046 0 q 918 42 965 0 q 871 154 871 85 q 882 215 871 186 q 919 260 893 244 q 885 306 894 279 q 876 361 876 333 q 886 418 876 390 q 917 467 896 446 q 971 503 938 489 q 1051 517 1004 517 l 1278 517 q 1358 503 1325 517 q 1413 467 1392 489 q 1443 418 1433 446 q 1453 361 1453 390 q 1444 306 1453 333 q 1410 260 1435 279 q 1447 215 1436 244 q 1458 154 1458 186 q 1411 42 1458 85 q 1282 0 1364 0 l 1046 0 m 1085 211 q 1046 178 1046 211 q 1056 154 1046 164 q 1085 144 1065 144 l 1244 144 q 1282 178 1282 144 q 1244 211 1282 211 l 1085 211 m 1085 367 q 1049 338 1049 367 q 1085 307 1049 307 l 1243 307 q 1272 315 1264 307 q 1281 338 1281 322 q 1243 367 1281 367 l 1085 367 z "},"⅞":{"ha":1429,"x_min":67,"x_max":1361,"o":"m 67 0 m 67 778 l 67 939 l 525 939 q 615 908 578 939 q 651 822 651 876 q 647 791 651 806 q 631 760 642 776 l 419 442 l 410 422 l 203 422 q 207 432 204 428 q 213 443 210 436 l 349 647 q 408 726 382 697 q 433 769 433 754 q 419 781 433 781 q 371 779 401 781 q 290 778 340 778 l 67 778 m 117 0 l 988 939 l 1201 939 l 331 0 l 117 0 m 949 0 q 821 42 868 0 q 774 154 774 85 q 785 215 774 186 q 822 260 796 244 q 788 306 797 279 q 779 361 779 333 q 789 418 779 390 q 819 467 799 446 q 874 503 840 489 q 954 517 907 517 l 1181 517 q 1261 503 1228 517 q 1315 467 1294 489 q 1346 418 1336 446 q 1356 361 1356 390 q 1347 306 1356 333 q 1313 260 1338 279 q 1350 215 1339 244 q 1361 154 1361 186 q 1314 42 1361 85 q 1185 0 1267 0 l 949 0 m 988 211 q 949 178 949 211 q 958 154 949 164 q 988 144 968 144 l 1147 144 q 1185 178 1185 144 q 1147 211 1185 211 l 988 211 m 988 367 q 951 338 951 367 q 988 307 951 307 l 1146 307 q 1175 315 1167 307 q 1183 338 1183 322 q 1146 367 1183 367 l 988 367 z "},"∂":{"ha":919,"x_min":43,"x_max":876,"o":"m 372 951 q 419 957 396 954 q 468 960 442 960 q 622 937 547 960 q 752 863 696 914 q 842 731 808 813 q 876 533 876 650 q 855 331 876 431 q 783 154 833 232 q 648 28 732 76 q 439 -19 564 -19 q 261 2 336 -19 q 138 63 186 24 q 66 159 89 103 q 43 285 43 215 q 70 436 43 374 q 147 538 97 499 q 263 594 196 576 q 411 613 331 613 q 574 581 500 613 q 685 497 649 550 q 688 524 688 511 q 689 558 689 538 q 619 744 689 682 q 433 807 549 807 q 403 806 418 807 q 372 801 389 806 l 372 951 m 656 358 q 625 400 643 381 q 581 433 607 419 q 517 455 554 447 q 425 463 479 463 q 288 419 338 463 q 239 283 239 375 q 290 167 239 207 q 424 128 342 128 q 656 358 622 128 z "},"∏":{"ha":878,"x_min":69,"x_max":808,"o":"m 651 -297 l 651 815 l 225 815 l 225 -297 l 69 -297 l 69 939 l 808 939 l 808 -297 l 651 -297 z "},"∑":{"ha":878,"x_min":26,"x_max":817,"o":"m 26 -297 l 26 -272 l 461 319 l 26 914 l 26 939 l 817 939 l 817 788 l 317 788 l 643 319 l 317 -150 l 817 -150 l 817 -297 l 26 -297 z "},"−":{"ha":878,"x_min":68,"x_max":807,"o":"m 807 382 l 68 382 l 68 567 l 807 567 l 807 382 z "},"√":{"ha":878,"x_min":60,"x_max":828,"o":"m 358 0 l 203 481 l 60 481 l 60 629 l 325 629 l 446 214 l 458 214 l 649 939 l 828 939 l 546 0 l 358 0 z "},"∞":{"ha":1299,"x_min":47,"x_max":1249,"o":"m 646 338 q 521 217 597 263 q 325 171 444 171 q 215 191 265 171 q 126 251 164 211 q 68 350 89 292 q 47 486 47 408 q 69 624 47 564 q 128 724 90 683 q 216 784 165 764 q 325 804 267 804 q 517 757 443 804 q 646 633 592 710 q 709 703 676 671 q 781 757 742 735 q 869 792 821 779 q 975 804 917 804 q 1085 783 1035 804 q 1172 722 1135 763 q 1228 623 1208 682 q 1249 486 1249 564 q 1228 350 1249 408 q 1172 251 1208 292 q 1085 191 1135 211 q 975 171 1035 171 q 778 217 856 171 q 646 338 701 263 m 572 479 q 527 535 550 510 q 478 578 504 560 q 421 608 451 597 q 353 618 390 618 q 249 581 279 618 q 218 486 218 543 q 248 384 218 419 q 353 349 278 349 q 426 360 393 349 q 485 389 458 371 q 534 431 513 407 q 572 479 556 454 m 726 479 q 766 431 744 454 q 814 389 788 407 q 873 360 840 371 q 946 349 906 349 q 1051 384 1021 349 q 1082 486 1082 419 q 1051 581 1082 543 q 946 618 1019 618 q 878 608 908 618 q 821 578 847 597 q 771 535 794 560 q 726 479 747 510 z "},"∫":{"ha":878,"x_min":243,"x_max":633,"o":"m 522 -40 q 339 -254 522 -254 l 243 -254 l 243 -124 l 294 -124 q 354 -51 354 -124 l 354 888 q 538 1101 354 1101 l 633 1101 l 633 971 l 582 971 q 536 952 550 971 q 522 900 522 933 l 522 -40 z "},"≈":{"ha":878,"x_min":68,"x_max":808,"o":"m 68 157 m 807 594 q 717 538 769 557 q 589 518 664 518 q 508 533 547 518 q 428 567 468 549 q 348 601 389 586 q 264 617 307 617 q 165 597 207 617 q 82 522 124 578 l 68 522 l 68 714 q 140 770 96 750 q 258 790 185 790 q 353 774 308 790 q 438 740 397 758 q 517 706 478 721 q 596 690 556 690 q 708 713 663 690 q 794 788 754 735 l 807 788 l 807 594 m 808 233 q 718 176 771 196 q 590 157 665 157 q 509 172 549 157 q 430 206 469 188 q 349 240 390 225 q 265 256 308 256 q 167 236 208 256 q 83 161 125 217 l 69 161 l 69 353 q 142 409 97 389 q 260 429 186 429 q 354 413 310 429 q 439 378 399 397 q 518 344 479 360 q 597 329 557 329 q 710 351 664 329 q 796 426 756 374 l 808 426 l 808 233 z "},"≠":{"ha":878,"x_min":0,"x_max":878,"o":"m 808 565 l 606 565 l 474 385 l 808 385 l 808 200 l 340 200 l 194 0 l 0 0 l 146 200 l 69 200 l 69 385 l 279 385 l 411 565 l 69 565 l 69 751 l 546 751 l 683 939 l 878 939 l 740 751 l 808 751 l 808 565 z "},"≤":{"ha":878,"x_min":68,"x_max":808,"o":"m 68 0 m 807 238 l 167 449 q 93 500 118 464 q 68 586 68 536 q 94 670 68 635 q 167 721 121 706 l 807 935 l 807 739 l 315 601 q 304 586 304 597 q 315 569 304 574 l 807 431 l 807 238 m 808 -62 l 69 -62 l 69 122 l 808 122 l 808 -62 z "},"≥":{"ha":878,"x_min":68,"x_max":808,"o":"m 68 0 m 68 431 l 560 569 q 572 586 572 574 q 560 601 572 597 l 68 739 l 68 935 l 708 721 q 781 670 754 706 q 807 586 807 635 q 782 500 807 536 q 708 449 757 464 l 68 238 l 68 431 m 808 -62 l 69 -62 l 69 122 l 808 122 l 808 -62 z "},"◊":{"ha":878,"x_min":79,"x_max":796,"o":"m 294 890 q 342 941 311 922 q 438 960 372 960 q 536 941 503 960 q 586 890 569 922 l 796 469 l 586 49 q 536 -2 569 15 q 438 -19 503 -19 q 341 -1 374 -19 q 289 57 308 17 l 79 469 l 294 890 m 417 146 q 425 138 419 140 q 438 136 431 136 q 460 146 456 136 l 597 469 l 460 792 q 438 803 456 803 q 424 801 431 803 q 415 792 418 799 l 278 469 l 417 146 z "}}}
